<svg width="402" height="345" viewBox="0 0 402 345" fill="none" xmlns="http://www.w3.org/2000/svg">
<path d="M311.83 95.64L271.23 114.9L345.23 132.08L317.12 96.85C316.505 96.0801 315.647 95.5414 314.686 95.3217C313.726 95.1019 312.719 95.2141 311.83 95.64Z" fill="#E0E0E0"/>
<path d="M271.582 114.99L345.156 132.07C345.251 132.092 345.334 132.152 345.386 132.235C345.438 132.318 345.455 132.419 345.432 132.514L335.677 174.537C335.623 174.767 335.481 174.966 335.28 175.091C335.08 175.216 334.838 175.256 334.609 175.202L262.058 158.359C261.828 158.306 261.629 158.163 261.504 157.963C261.379 157.763 261.339 157.521 261.392 157.291L271.148 115.269C271.17 115.175 271.227 115.093 271.309 115.041C271.39 114.989 271.488 114.97 271.582 114.99Z" fill="#E0E0E0"/>
<path d="M340.43 132.03L305.7 143.71L275.12 118.33L280.51 98.0099C280.779 96.9515 281.456 96.0423 282.392 95.4804C283.329 94.9185 284.449 94.7494 285.51 95.0099L341.77 108.06C342.844 108.312 343.774 108.98 344.355 109.918C344.937 110.856 345.122 111.986 344.87 113.06L340.43 132.03Z" fill="white"/>
<path d="M303.5 140.27L261.93 154.77C261.829 155.204 261.815 155.654 261.888 156.093C261.961 156.533 262.12 156.954 262.356 157.332C262.592 157.71 262.9 158.037 263.263 158.296C263.626 158.555 264.036 158.74 264.47 158.84L332.2 174.56C332.634 174.661 333.084 174.675 333.523 174.602C333.963 174.529 334.383 174.37 334.761 174.134C335.139 173.898 335.467 173.59 335.726 173.227C335.985 172.864 336.17 172.454 336.27 172.02L336.33 171.77L307.26 141.22C306.791 140.717 306.186 140.36 305.52 140.192C304.853 140.023 304.152 140.051 303.5 140.27Z" fill="#E0E0E0"/>
<path d="M308.082 109.883L286.076 104.779L285.554 107.029L307.56 112.134L308.082 109.883Z" fill="#E0E0E0"/>
<path d="M333.593 121.812L284.76 110.484L284.17 113.027L333.003 124.355L333.593 121.812Z" fill="#F5F5F5"/>
<path d="M332.149 128.007L283.316 116.679L282.726 119.221L331.559 130.549L332.149 128.007Z" fill="#F5F5F5"/>
<path d="M329.33 135.78L327.28 136.45L286.05 127.4L281.87 123.86L281.95 123.26L330.62 134.55L330.43 135.39L329.33 135.78Z" fill="#F5F5F5"/>
<path d="M315.19 140.51L296.72 136.23L292.3 132.53L319.9 138.93L315.19 140.51Z" fill="#F5F5F5"/>
<path d="M301.98 140.8C301.484 141.06 300.965 141.275 300.43 141.44L296.12 142.99C292.48 144.28 287.45 145.99 281.88 147.92C276.31 149.85 271.25 151.51 267.58 152.71L263.24 154.11C262.715 154.307 262.172 154.454 261.62 154.55C262.12 154.298 262.638 154.084 263.17 153.91L267.47 152.36C271.11 151.07 276.14 149.36 281.71 147.43C287.28 145.5 292.33 143.84 296 142.64L300.35 141.25C300.881 141.06 301.426 140.91 301.98 140.8Z" fill="#EBEBEB"/>
<path d="M336.33 171.77C336.23 171.87 329.95 165.44 322.33 157.42C314.71 149.4 308.57 142.81 308.68 142.71C308.79 142.61 315.06 149.03 322.68 157.06C330.3 165.09 336.44 171.67 336.33 171.77Z" fill="#EBEBEB"/>
<path d="M342.12 131.46C341.716 131.685 341.295 131.876 340.86 132.03C340.04 132.36 338.86 132.83 337.36 133.39C334.36 134.51 330.28 136 325.71 137.57C321.14 139.14 316.96 140.48 313.93 141.41C312.41 141.87 311.18 142.24 310.33 142.47C309.896 142.625 309.447 142.732 308.99 142.79C309.4 142.582 309.829 142.411 310.27 142.28L313.82 141.06L325.54 137.06L337.24 133.06L340.79 131.86C341.219 131.685 341.665 131.551 342.12 131.46Z" fill="#EBEBEB"/>
<path d="M301.98 140.8C301.537 140.501 301.119 140.167 300.73 139.8L297.43 137.04L286.43 128.04C282.13 124.53 278.27 121.31 275.54 118.9C274.17 117.7 273.07 116.72 272.33 116.02C271.924 115.681 271.552 115.302 271.22 114.89C271.66 115.193 272.078 115.527 272.47 115.89L275.77 118.65L286.77 127.65C291.07 131.16 294.93 134.39 297.66 136.79C299.03 137.99 300.13 138.98 300.87 139.68C301.274 140.018 301.646 140.393 301.98 140.8Z" fill="#EBEBEB"/>
<path d="M340.43 132.03C340.421 131.933 340.421 131.836 340.43 131.74C340.43 131.53 340.53 131.25 340.6 130.91C340.76 130.15 340.99 129.09 341.28 127.75L343.9 116.12C344.04 115.5 344.18 114.87 344.32 114.23C344.495 113.594 344.622 112.945 344.7 112.29C344.738 111.61 344.598 110.932 344.292 110.323C343.987 109.714 343.528 109.196 342.96 108.82C342.352 108.436 341.671 108.184 340.96 108.08L338.69 107.56L333.95 106.47L312.86 101.6L291.77 96.68L287.03 95.57C286.293 95.3705 285.545 95.2136 284.79 95.1C284.087 95.0542 283.385 95.198 282.757 95.5164C282.129 95.8348 281.598 96.3161 281.22 96.91C280.882 97.5033 280.646 98.1488 280.52 98.82C280.16 100.14 279.82 101.41 279.52 102.63L276.38 114.13C276.01 115.46 275.72 116.5 275.5 117.25C275.407 117.583 275.327 117.853 275.26 118.06C275.242 118.155 275.208 118.246 275.16 118.33C275.16 118.33 275.16 118.23 275.21 118.04L275.4 117.22C275.59 116.47 275.85 115.42 276.19 114.08C276.9 111.32 277.91 107.38 279.19 102.54C279.51 101.32 279.84 100.04 280.19 98.72C280.324 98.017 280.574 97.3412 280.93 96.72C281.337 96.0685 281.91 95.537 282.59 95.18C283.293 94.8069 284.086 94.6372 284.88 94.69C285.661 94.8009 286.436 94.9544 287.2 95.1499L291.94 96.24L313.03 101.12L334.12 106.01L338.85 107.12L341.12 107.65C341.892 107.766 342.631 108.042 343.29 108.46C343.914 108.881 344.417 109.458 344.751 110.133C345.084 110.808 345.235 111.558 345.19 112.31C345.107 112.986 344.974 113.654 344.79 114.31C344.64 114.95 344.49 115.58 344.34 116.19C343.18 121.06 342.23 125.01 341.57 127.78L340.79 130.93C340.7 131.26 340.63 131.53 340.57 131.74C340.538 131.843 340.491 131.941 340.43 132.03Z" fill="#E0E0E0"/>
<path d="M244.63 12.88L313.88 0L324.23 46.8L252.31 58.95L244.63 12.88Z" fill="#EBEBEB"/>
<path d="M313.88 0C313.88 0 313.88 0.0700046 313.76 0.200005L313.37 0.739998L311.83 2.8L306.12 10.34C301.12 16.71 294.34 25.48 286.8 35.22L286.67 35.39L286.47 35.29L285.13 34.58L256.44 19.33L247.77 14.66L245.43 13.36L244.83 13.01C244.757 12.9766 244.69 12.9329 244.63 12.88C244.708 12.8967 244.783 12.9271 244.85 12.97L245.48 13.27L247.87 14.48L256.61 19.01C264.01 22.89 274.16 28.23 285.37 34.13L286.72 34.84L286.39 34.91L305.78 10.12L311.67 2.68L313.29 0.68L313.72 0.169998C313.765 0.10616 313.819 0.0489431 313.88 0Z" fill="#E0E0E0"/>
<path d="M252.31 58.95C252.19 58.87 256.64 51.81 262.25 43.18C267.86 34.55 272.52 27.61 272.64 27.69C272.76 27.77 268.31 34.83 262.69 43.46C257.07 52.09 252.43 59.03 252.31 58.95Z" fill="#E0E0E0"/>
<path d="M324.23 46.8C324.14 46.91 317.66 41.95 309.76 35.73C301.86 29.51 295.53 24.35 295.61 24.22C295.69 24.09 302.18 29.07 310.08 35.3C317.98 41.53 324.31 46.69 324.23 46.8Z" fill="#E0E0E0"/>
<path d="M355.69 45.24L401.62 56.37L395.11 87.85L347.75 75.55L355.69 45.24Z" fill="#F5F5F5"/>
<path d="M401.62 56.37C401.461 56.4966 401.29 56.6072 401.11 56.7L399.61 57.55L394.03 60.55L375.41 70.55L375.22 70.65L375.09 70.48L374.46 69.68L361.12 52.47C359.46 50.29 358.12 48.47 357.12 47.21L356.05 45.77C355.919 45.6033 355.802 45.426 355.7 45.24C355.863 45.3737 356.008 45.5284 356.13 45.7L357.28 47.09C358.28 48.36 359.69 50.09 361.41 52.24C364.89 56.68 369.64 62.71 374.88 69.38L375.51 70.18L375.18 70.11L393.87 60.28L399.53 57.37L401.07 56.61C401.241 56.5034 401.426 56.4226 401.62 56.37Z" fill="#E0E0E0"/>
<path d="M347.75 75.55C347.67 75.43 352.31 72.29 358.12 68.55C363.93 64.81 368.7 61.87 368.77 61.99C368.84 62.11 364.21 65.25 358.4 68.99C352.59 72.73 347.83 75.67 347.75 75.55Z" fill="#E0E0E0"/>
<path d="M395.12 87.85C395 87.92 392.36 83.12 389.23 77.14C386.1 71.16 383.66 66.22 383.78 66.22C383.9 66.22 386.55 70.95 389.68 76.93C392.81 82.91 395.23 87.79 395.12 87.85Z" fill="#E0E0E0"/>
<path d="M307.92 325.87L309.03 326.27C309.75 326.55 310.85 326.92 312.31 327.33C316.572 328.519 321.006 328.969 325.42 328.66C328.606 328.44 331.766 327.931 334.86 327.14C338.547 326.236 342.14 324.984 345.59 323.4C353.981 319.432 361.437 313.734 367.47 306.68C369.219 304.73 370.577 302.463 371.47 300C372.382 297.422 372.245 294.589 371.09 292.11C370.445 290.878 369.482 289.842 368.3 289.11C367.082 288.367 365.717 287.896 364.3 287.73C361.362 287.379 358.385 287.865 355.71 289.13C354.299 289.748 352.845 290.262 351.36 290.67C349.81 291.075 348.177 291.034 346.65 290.55C345.852 290.322 345.124 289.899 344.53 289.32C343.937 288.74 343.497 288.022 343.25 287.23C343.058 286.418 343.041 285.574 343.202 284.754C343.362 283.935 343.696 283.16 344.18 282.48C345.136 281.101 346.46 280.017 348 279.35C349.515 278.679 351.076 278.114 352.67 277.66C359.145 275.576 365.24 272.46 370.72 268.43C372.146 267.442 373.442 266.28 374.58 264.97C375.772 263.711 376.48 262.071 376.58 260.34C376.565 259.488 376.312 258.656 375.85 257.94C375.37 257.22 374.73 256.621 373.98 256.19C372.419 255.339 370.686 254.853 368.91 254.77C367.068 254.687 365.237 254.436 363.44 254.02C362.499 253.798 361.624 253.356 360.887 252.73C360.149 252.105 359.571 251.313 359.2 250.42C359.033 249.944 358.977 249.435 359.038 248.934C359.099 248.433 359.274 247.953 359.55 247.53C360.135 246.755 360.869 246.106 361.71 245.62C363.27 244.62 364.81 243.53 366.3 242.39C369.31 240.091 372.139 237.564 374.76 234.83C377.36 232.06 380 229.18 381.63 225.7C382.479 223.984 382.885 222.083 382.81 220.17C382.693 218.254 381.928 216.434 380.64 215.01C379.341 213.599 377.702 212.544 375.88 211.946C374.058 211.347 372.113 211.225 370.23 211.59C366.483 212.403 363.084 214.368 360.51 217.21C355.24 222.76 352.64 230.08 348.32 236.15C347.256 237.68 346.054 239.109 344.73 240.42C344.083 241.105 343.343 241.694 342.53 242.17C342.102 242.432 341.614 242.578 341.113 242.596C340.612 242.613 340.115 242.501 339.67 242.27C339.268 241.99 338.928 241.631 338.671 241.215C338.413 240.799 338.242 240.334 338.17 239.85C338.045 238.931 338.045 237.999 338.17 237.08C338.288 236.214 338.254 235.334 338.07 234.48C337.855 233.653 337.42 232.899 336.81 232.3C336.196 231.703 335.47 231.234 334.673 230.92C333.877 230.606 333.026 230.453 332.17 230.47C330.456 230.579 328.835 231.287 327.59 232.47C326.332 233.617 325.342 235.027 324.69 236.6C324.059 238.174 323.642 239.825 323.45 241.51C323.24 243.19 323.18 244.87 323.12 246.51C323.06 248.15 323.01 249.86 322.96 251.51C322.847 254.843 322.737 258.117 322.63 261.33C322.57 262.94 322.54 264.53 322.46 266.14C322.399 267.741 322.092 269.323 321.55 270.83C321.287 271.598 320.857 272.298 320.292 272.881C319.727 273.463 319.04 273.914 318.28 274.2C316.752 274.644 315.117 274.538 313.66 273.9C310.871 272.716 308.419 270.861 306.52 268.5C305.593 267.365 304.794 266.131 304.14 264.82C303.542 263.535 302.874 262.283 302.14 261.07C301.462 259.903 300.403 259.006 299.14 258.53C297.867 258.147 296.497 258.243 295.29 258.8C294.092 259.323 293.043 260.138 292.24 261.17C291.479 262.202 290.947 263.385 290.68 264.64C290.288 267.112 290.068 269.608 290.02 272.11C289.85 274.55 289.77 276.94 289.74 279.25C289.691 283.617 289.955 287.981 290.53 292.31C291.01 296.075 291.823 299.789 292.96 303.41C293.42 305.1 294.1 306.64 294.65 308.14C294.96 308.87 295.3 309.57 295.65 310.26C296 310.95 296.26 311.63 296.65 312.26C298.711 316.174 301.377 319.738 304.55 322.82C305.008 323.304 305.499 323.755 306.02 324.17L307.13 325.11L308.01 325.88L307.09 325.15L305.97 324.23C305.442 323.823 304.944 323.378 304.48 322.9C301.27 319.835 298.569 316.277 296.48 312.36C296.112 311.711 295.779 311.043 295.48 310.36C295.16 309.67 294.8 308.97 294.48 308.23C293.92 306.73 293.23 305.23 292.76 303.5C291.604 299.865 290.778 296.133 290.29 292.35C289.687 288.013 289.407 283.638 289.45 279.26C289.45 276.94 289.55 274.55 289.71 272.1C289.758 269.575 289.975 267.056 290.36 264.56C290.638 263.255 291.19 262.025 291.98 260.95C292.817 259.865 293.914 259.009 295.17 258.46C296.463 257.857 297.933 257.75 299.3 258.16C300.658 258.665 301.805 259.617 302.55 260.86C303.285 262.086 303.953 263.351 304.55 264.65C305.189 265.931 305.971 267.135 306.88 268.24C308.748 270.542 311.151 272.352 313.88 273.51C315.247 274.102 316.776 274.205 318.21 273.8C318.908 273.532 319.539 273.113 320.057 272.574C320.576 272.035 320.969 271.388 321.21 270.68C322.31 267.79 322.07 264.53 322.21 261.32C322.35 258.11 322.42 254.82 322.53 251.51C322.58 249.85 322.63 248.18 322.69 246.51C322.75 244.84 322.8 243.12 323.02 241.42C323.212 239.704 323.636 238.022 324.28 236.42C324.949 234.779 325.974 233.308 327.28 232.11C328.617 230.866 330.346 230.127 332.17 230.02C333.095 230.003 334.013 230.172 334.872 230.515C335.73 230.859 336.512 231.37 337.17 232.02C337.844 232.682 338.325 233.515 338.56 234.43C338.764 235.336 338.804 236.27 338.68 237.19C338.56 238.063 338.56 238.947 338.68 239.82C338.733 240.235 338.873 240.635 339.09 240.993C339.307 241.352 339.596 241.66 339.94 241.9C340.308 242.092 340.72 242.182 341.135 242.163C341.549 242.144 341.951 242.015 342.3 241.79C343.07 241.336 343.773 240.777 344.39 240.13C345.683 238.835 346.861 237.429 347.91 235.93C349.977 232.823 351.883 229.612 353.62 226.31C355.393 222.918 357.587 219.763 360.15 216.92C362.797 213.997 366.295 211.979 370.15 211.15C372.122 210.768 374.159 210.897 376.068 211.525C377.976 212.154 379.691 213.26 381.05 214.74C382.413 216.251 383.224 218.179 383.35 220.21C383.428 222.209 383.005 224.196 382.12 225.99C380.44 229.57 377.77 232.47 375.12 235.26C372.481 238.013 369.633 240.558 366.6 242.87C365.1 244.02 363.55 245.1 361.98 246.12C361.203 246.568 360.523 247.166 359.98 247.88C359.743 248.237 359.593 248.644 359.541 249.07C359.489 249.495 359.536 249.926 359.68 250.33C360.028 251.143 360.562 251.863 361.239 252.431C361.917 252.999 362.719 253.4 363.58 253.6C365.346 254.011 367.148 254.255 368.96 254.33C370.81 254.426 372.615 254.939 374.24 255.83C375.043 256.307 375.726 256.96 376.24 257.74C376.75 258.535 377.03 259.456 377.05 260.4C376.967 262.262 376.227 264.033 374.96 265.4C373.78 266.74 372.436 267.926 370.96 268.93C365.436 272.985 359.294 276.122 352.77 278.22C351.192 278.662 349.648 279.217 348.15 279.88C346.68 280.516 345.421 281.556 344.52 282.88C344.068 283.505 343.755 284.218 343.601 284.974C343.448 285.729 343.458 286.509 343.63 287.26C343.861 287.978 344.265 288.627 344.808 289.151C345.351 289.674 346.014 290.055 346.74 290.26C348.189 290.721 349.74 290.759 351.21 290.37C352.675 289.972 354.109 289.467 355.5 288.86C358.248 287.577 361.298 287.086 364.31 287.44C365.781 287.629 367.195 288.126 368.46 288.9C369.704 289.669 370.717 290.761 371.39 292.06C372.589 294.637 372.725 297.583 371.77 300.26C370.862 302.769 369.476 305.078 367.69 307.06C361.624 314.134 354.125 319.84 345.69 323.8C342.22 325.382 338.607 326.627 334.9 327.52C331.791 328.298 328.618 328.796 325.42 329.01C320.983 329.291 316.531 328.804 312.26 327.57C311.152 327.256 310.06 326.886 308.99 326.46L307.92 325.87Z" fill="#263238"/>
<path d="M313.51 313.67C317.213 303.019 321.524 292.588 326.42 282.43C327.7 279.73 328.97 277.05 330.23 274.43C331.49 271.81 332.72 269.2 334.1 266.72C336.749 261.977 339.657 257.384 342.81 252.96C345.81 248.72 348.81 244.8 351.6 241.16C354.39 237.52 357.12 234.16 359.71 231.24C363.775 226.581 368.202 222.251 372.95 218.29C374.63 216.89 375.95 215.84 376.88 215.15L377.93 214.36C378.046 214.266 378.169 214.182 378.3 214.11L377.97 214.41L376.97 215.24C376.08 215.97 374.77 217.04 373.11 218.47C368.435 222.493 364.066 226.858 360.04 231.53C357.48 234.48 354.81 237.83 352.04 241.47C349.27 245.11 346.28 249.05 343.31 253.29C340.183 257.703 337.299 262.283 334.67 267.01C333.3 269.47 332.07 272.06 330.82 274.69L327.02 282.69C322.128 292.825 317.811 303.229 314.09 313.85" fill="#263238"/>
<path d="M334.27 266.7C334.134 266.237 334.047 265.761 334.01 265.28C333.87 264.37 333.71 263.04 333.55 261.39C333.21 258.1 332.9 253.55 332.55 248.52C332.2 243.49 331.85 238.95 331.47 235.68C331.28 234.04 331.11 232.68 330.98 231.8C330.879 231.33 330.839 230.85 330.86 230.37C331.026 230.82 331.146 231.286 331.22 231.76C331.41 232.67 331.64 233.99 331.89 235.62C332.39 238.89 332.83 243.45 333.15 248.48C333.47 253.51 333.74 257.93 333.95 261.36C334.06 262.9 334.15 264.21 334.22 265.26C334.289 265.737 334.305 266.22 334.27 266.7Z" fill="#263238"/>
<path d="M376.81 260.44C376.252 260.537 375.686 260.581 375.12 260.57C374.03 260.63 372.46 260.7 370.51 260.85C366.63 261.12 361.28 261.67 355.4 262.55C350.19 263.33 345.12 264.26 340.4 265.31C338.5 265.73 336.97 266.1 335.91 266.31C335.365 266.476 334.806 266.593 334.24 266.66C334.754 266.409 335.294 266.214 335.85 266.08C336.85 265.76 338.41 265.32 340.31 264.85C344.09 263.85 349.39 262.79 355.31 261.9C360.341 261.134 365.407 260.626 370.49 260.38C372.44 260.28 374.02 260.28 375.11 260.3C375.68 260.285 376.25 260.332 376.81 260.44Z" fill="#263238"/>
<path d="M314.06 312.91C313.946 312.75 313.855 312.575 313.79 312.39L313.13 310.83C312.56 309.48 311.78 307.5 310.86 305.04C309.01 300.12 306.67 293.25 304.19 285.63C301.71 278.01 299.43 271.12 297.68 266.18C296.83 263.77 296.12 261.79 295.6 260.32C295.38 259.68 295.19 259.16 295.04 258.72C294.962 258.538 294.908 258.346 294.88 258.15C294.997 258.312 295.088 258.49 295.15 258.68L295.82 260.23C296.39 261.59 297.16 263.57 298.08 266.03C299.93 270.94 302.28 277.82 304.76 285.44C307.24 293.06 310.51 301.04 312.26 305.99C313.11 308.4 312.82 309.27 313.34 310.74C313.57 311.38 313.75 311.91 313.9 312.34C313.977 312.523 314.03 312.714 314.06 312.91Z" fill="#263238"/>
<path d="M370.88 297C370.699 297.093 370.508 297.163 370.31 297.21L368.66 297.69L362.58 299.4C357.44 300.85 350.37 302.94 342.58 305.25C335.27 307.41 328.47 309.37 322.5 310.92C319.92 311.6 317.82 312.12 316.36 312.45L314.68 312.82C314.488 312.877 314.29 312.907 314.09 312.91C314.27 312.815 314.461 312.744 314.66 312.7L316.31 312.22L322.39 310.51C327.53 309.06 334.6 306.97 342.39 304.66C350.18 302.35 357.3 300.33 362.47 298.99C365.05 298.31 367.15 297.79 368.6 297.46L370.28 297.09C370.475 297.033 370.677 297.003 370.88 297Z" fill="#263238"/>
<path d="M205.9 82.63C205.9 82.63 205.32 79.8499 204.35 71.8099L195.51 54.4799C195.51 54.4799 197.51 50.8499 202.02 58.5299C204.1 62.0299 211.02 60.53 209.9 55.07C208.78 49.61 201.62 47.0699 197.24 52.5099C197.24 52.5099 194.41 52.7999 194.08 50.5899C193.75 48.3799 200.14 42.92 205.58 44.51C207.797 45.208 209.842 46.3666 211.58 47.91C211.58 47.91 210.4 29.6899 211.88 29.5299C213.36 29.3699 215.41 30.53 216.53 50.46C216.53 50.46 217.15 34.6899 217.46 32.6799C217.77 30.6699 220.46 29.3099 220.82 34.3599C220.82 34.9199 221.82 50.4199 221.82 50.4199C221.82 50.4199 223.59 40.1699 223.82 39.3499C224.32 37.1899 226.45 37.4199 226.66 40.2799C226.81 42.4499 227.51 51.71 227.51 51.71L228.85 80.22H229.03" fill="#FFBE9D"/>
<path d="M234.18 73.22L200.98 72.36L197.68 152.7L160.12 136.22L160.06 136.35C157.8 135.35 155.83 134.45 154.78 133.87C134.03 122.56 120.41 121.18 98.1401 129.13L55.4801 146.21C47.2201 150.1 25.7301 153.69 18.3601 187.67L17.3601 191.73L51.5001 216.22L74.9101 277.92L102.91 339.68L167.36 337.59L201.04 295.59L172.46 241L154.7 179.86C167.25 188.19 190.54 199.53 218.43 193.62C248.68 187.22 234.18 73.22 234.18 73.22Z" fill="#FF725E"/>
<g opacity="0.3">
<path opacity="0.3" d="M74.6899 277.29C79.8135 280.409 85.342 282.808 91.1199 284.42C94.2599 285.36 97.8599 286.05 100.65 284.33C103.44 282.61 103.87 277.52 100.75 276.5L127.8 270.39C124.13 259.83 130.18 247.78 139.33 241.39C148.48 235 158.88 233.14 170.02 232.17L183.51 274.02L138.42 335.52L101.5 336.59L74.6899 277.29Z" fill="black"/>
</g>
<path d="M60.54 219.48C60.54 219.48 43.63 256.48 47.54 274.92C49.7 285.24 83.47 294.05 104.99 296.68L98.54 332.8C98.54 332.8 18.54 325.19 3.59 293.52C-4.91 275.52 3.7 231.52 19.89 181.72L60.54 219.48Z" fill="#FF725E"/>
<path d="M137.56 262.81C137.382 262.934 137.191 263.038 136.99 263.12L135.3 263.9C133.83 264.58 131.68 265.51 129.01 266.63C123.67 268.85 116.19 271.71 107.78 274.41C99.3701 277.11 91.6201 279.13 85.9801 280.41C83.1601 281.06 80.8701 281.55 79.2801 281.85L77.4501 282.19C77.2413 282.247 77.0263 282.277 76.8101 282.28C77.0089 282.193 77.2169 282.13 77.4301 282.09L79.2401 281.65C80.8201 281.29 83.0901 280.74 85.9001 280.05C91.5101 278.66 99.2201 276.58 107.62 273.89C116.02 271.2 123.5 268.4 128.87 266.26C131.56 265.2 133.72 264.32 135.22 263.7L136.94 263C137.139 262.915 137.347 262.851 137.56 262.81Z" fill="white"/>
<path d="M159.83 135.03C159.83 135.16 128.36 146.59 89.4399 160.55C50.5199 174.51 18.9099 185.72 18.8599 185.55C18.8099 185.38 50.3299 173.99 89.2599 160.03C128.19 146.07 159.78 134.89 159.83 135.03Z" fill="white"/>
<path d="M52.32 238.22C52.3371 238.143 52.3639 238.07 52.4 238L52.66 237.38L53.66 234.99C54.54 232.91 55.79 229.88 57.06 226.05C58.5564 221.558 59.5819 216.924 60.12 212.22C60.7828 206.476 60.3622 200.659 58.88 195.07C57.4251 189.467 54.553 184.332 50.54 180.16C47.203 176.82 43.1009 174.345 38.59 172.95C35.5456 172.021 32.3517 171.681 29.18 171.95L27.69 172.14C27.26 172.2 26.91 172.29 26.61 172.34L25.95 172.47H25.72C25.72 172.47 25.79 172.47 25.93 172.4L26.59 172.22C26.88 172.15 27.24 172.04 27.67 171.96L29.16 171.73C32.3616 171.378 35.6012 171.667 38.69 172.58C43.2887 173.939 47.4776 176.42 50.88 179.8C54.9714 184.017 57.8999 189.223 59.38 194.91C60.8801 200.561 61.2941 206.445 60.6 212.25C60.0269 216.973 58.9542 221.623 57.4 226.12C56.08 229.95 54.78 232.96 53.84 235.02C53.36 236.02 52.98 236.84 52.71 237.37L52.4 237.98C52.37 238.13 52.33 238.22 52.32 238.22Z" fill="#263238"/>
<path d="M132.67 126.7C132.87 126.76 133.061 126.844 133.24 126.95C133.777 127.216 134.295 127.521 134.79 127.86C136.626 129.101 138.256 130.623 139.62 132.37C141.621 134.976 143.219 137.869 144.36 140.95C145.719 144.709 146.878 148.538 147.83 152.42L153.4 173.42L155.02 179.81L155.44 181.55C155.502 181.751 155.539 181.96 155.55 182.17C155.458 181.982 155.387 181.784 155.34 181.58C155.21 181.13 155.04 180.58 154.83 179.86L153.04 173.52L147.33 152.52C146.23 148.42 145.22 144.52 143.91 141.08C142.803 138.033 141.261 135.164 139.33 132.56C138.012 130.817 136.445 129.277 134.68 127.99C133.42 127.13 132.64 126.74 132.67 126.7Z" fill="#263238"/>
<path d="M187.97 148.22L187.53 148.43L186.2 149.01L181.12 151.15C176.68 153.03 170.23 155.69 162.25 158.95C146.25 165.46 124.15 174.25 99.54 183.53C74.93 192.81 52.54 200.84 36.21 206.53C28.07 209.36 21.47 211.61 16.9 213.14L11.63 214.89L10.26 215.33L9.78003 215.47L10.24 215.28L11.6 214.79L16.83 212.95L36.09 206.18C52.34 200.44 74.74 192.36 99.36 183.08C123.98 173.8 146.12 165.08 162.11 158.64L181.04 151L186.19 148.92L187.54 148.39L187.97 148.22Z" fill="white"/>
<path d="M158.69 188.09L158.31 188.27L157.17 188.76L152.76 190.59C148.93 192.18 143.37 194.41 136.47 197.12C122.67 202.53 103.47 209.72 82.1001 217.04C60.7301 224.36 41.1001 230.41 26.9101 234.58C19.8001 236.66 14.0301 238.3 10.0301 239.39L5.43007 240.64L4.23007 240.95C4.09661 240.993 3.95931 241.023 3.82007 241.04C3.94625 240.983 4.07664 240.936 4.21007 240.9L5.40007 240.54L9.98007 239.22C13.9801 238.07 19.7101 236.37 26.8101 234.22C41.0001 229.97 60.5401 223.86 81.9301 216.55C103.32 209.24 122.51 202.1 136.34 196.77C143.25 194.11 148.83 191.93 152.68 190.4L157.13 188.66L158.29 188.22L158.69 188.09Z" fill="white"/>
<path d="M236.87 153.47C236.691 153.653 236.497 153.821 236.29 153.97L234.54 155.33C233.78 155.92 232.84 156.63 231.73 157.42C230.62 158.21 229.37 159.14 227.94 160.09C225.11 162.04 221.66 164.25 217.75 166.57C213.84 168.89 209.44 171.28 204.75 173.57C200.06 175.86 195.44 177.85 191.22 179.57C187 181.29 183.12 182.57 179.84 183.62C178.21 184.16 176.71 184.62 175.4 184.97C174.09 185.32 172.96 185.67 172.03 185.9L169.88 186.45C169.634 186.52 169.384 186.57 169.13 186.6C169.362 186.492 169.603 186.405 169.85 186.34L171.97 185.71C172.89 185.44 173.97 185.11 175.32 184.71C176.67 184.31 178.1 183.86 179.72 183.29C182.98 182.21 186.82 180.81 191.04 179.14C195.26 177.47 199.82 175.45 204.52 173.14C209.22 170.83 213.6 168.45 217.52 166.14C221.44 163.83 224.89 161.67 227.74 159.76C229.18 158.83 230.44 157.93 231.57 157.16C232.7 156.39 233.65 155.71 234.43 155.16L236.23 153.88C236.43 153.723 236.644 153.586 236.87 153.47Z" fill="white"/>
<path d="M238.43 126.79C238.48 126.93 229.3 130.62 217.93 135.04C206.56 139.46 197.29 142.93 197.24 142.79C197.19 142.65 206.36 138.97 217.74 134.55C229.12 130.13 238.38 126.66 238.43 126.79Z" fill="white"/>
<path d="M236.41 101.91C236.41 102.05 228.41 104.46 218.41 107.29C208.41 110.12 200.3 112.29 200.26 112.16C200.22 112.03 208.26 109.62 218.26 106.79C228.26 103.96 236.37 101.77 236.41 101.91Z" fill="white"/>
<path d="M234.65 77.57C234.65 77.71 226.88 79.57 217.23 81.66C207.58 83.75 199.74 85.39 199.71 85.25C199.68 85.11 207.47 83.25 217.12 81.16C226.77 79.07 234.61 77.43 234.65 77.57Z" fill="white"/>
<path d="M164.99 215.62C164.99 215.75 142.79 224.62 115.3 235.48C87.81 246.34 65.47 255 65.42 254.87C65.37 254.74 87.61 245.87 115.11 235C142.61 224.13 164.94 215.48 164.99 215.62Z" fill="white"/>
<path d="M47.35 259.65C47.2087 259.74 47.0578 259.814 46.9 259.87L45.56 260.42C44.39 260.88 42.69 261.53 40.56 262.31C36.34 263.87 30.47 265.92 23.93 268C17.39 270.08 11.41 271.81 7.07 273C4.9 273.58 3.13 274 1.91 274.34L0.5 274.67C0.338368 274.722 0.169764 274.749 0 274.75C0.147575 274.668 0.305751 274.608 0.469997 274.57L1.86 274.14L6.97 272.64C11.28 271.38 17.23 269.64 23.77 267.52C30.31 265.4 36.18 263.44 40.43 261.97L45.43 260.24L46.8 259.78C46.974 259.704 47.1603 259.66 47.35 259.65Z" fill="white"/>
<path d="M59.22 284.99C59.28 285.12 48.5 289.62 35.15 295.04C21.8 300.46 10.92 304.75 10.87 304.62C10.82 304.49 21.59 299.98 34.95 294.56C48.31 289.14 59.17 284.85 59.22 284.99Z" fill="white"/>
<path d="M78.85 291.99C78.96 292.09 72.91 299.25 65.35 307.99C57.79 316.73 51.56 323.74 51.45 323.65C51.34 323.56 57.39 316.39 64.95 307.65C72.51 298.91 78.74 291.9 78.85 291.99Z" fill="white"/>
<path d="M98.92 297.09C99.06 297.14 96.63 304.76 93.5 314.09C90.37 323.42 87.72 331 87.59 330.95C87.46 330.9 89.88 323.29 93.01 313.95C96.14 304.61 98.78 297.04 98.92 297.09Z" fill="white"/>
<path d="M230.12 184.57C230.18 184.7 224.43 187.08 217.28 189.88C210.13 192.68 204.28 194.83 204.28 194.7C204.28 194.57 209.98 192.19 217.13 189.39C224.28 186.59 230.06 184.43 230.12 184.57Z" fill="white"/>
<g opacity="0.3">
<path opacity="0.3" d="M144.77 142.79C154.05 167.92 170.77 181.97 194.38 194.57C180.418 193.022 167.037 188.12 155.38 180.28" fill="black"/>
</g>
<path d="M136.36 343.22H314.49V267.12C314.491 263.73 313.825 260.372 312.528 257.24C311.232 254.107 309.331 251.261 306.934 248.863C304.537 246.465 301.692 244.563 298.559 243.266C295.427 241.968 292.07 241.3 288.68 241.3H162.18C155.332 241.3 148.765 244.02 143.923 248.862C139.08 253.705 136.36 260.272 136.36 267.12V343.22Z" fill="#455A64"/>
<path d="M159.45 241.3H187.75C190.524 241.3 193.185 242.402 195.146 244.364C197.108 246.325 198.21 248.986 198.21 251.76V341.89C198.21 342.243 198.07 342.581 197.821 342.83C197.571 343.08 197.233 343.22 196.88 343.22H137.7C137.347 343.22 137.009 343.08 136.76 342.83C136.51 342.581 136.37 342.243 136.37 341.89V264.39C136.37 258.268 138.801 252.396 143.129 248.066C147.458 243.736 153.328 241.303 159.45 241.3Z" fill="#455A64"/>
<path d="M149.5 343.22V267.01C149.5 260.193 152.207 253.655 157.027 248.834C161.846 244.012 168.383 241.303 175.2 241.3H156.88C156.88 241.3 135.37 244.16 135.37 271.08C135.37 298 136.06 343.22 136.06 343.22H149.5Z" fill="#263238"/>
<path d="M198.21 335.98H48.76V344.46H198.21V335.98Z" fill="#263238"/>
<path d="M320.31 335.98H198.21V344.46H320.31V335.98Z" fill="#455A64"/>
<path d="M198.21 340.22C198.197 340.12 198.197 340.02 198.21 339.92C198.21 339.69 198.21 339.39 198.21 339.02C198.21 338.2 198.21 337.02 198.21 335.59C198.21 332.59 198.21 328.28 198.21 322.98C198.26 312.29 198.34 297.6 198.43 281.36C198.43 277.3 198.56 273.36 198.31 269.52C198.137 265.859 197.492 262.236 196.39 258.74C194.773 253.779 191.641 249.45 187.434 246.362C183.227 243.275 178.158 241.585 172.94 241.53C172.273 241.508 171.605 241.525 170.94 241.58C170.458 241.598 169.977 241.645 169.5 241.72L168.62 241.84H168.31L168.61 241.77L169.49 241.6C169.965 241.504 170.446 241.44 170.93 241.41C171.594 241.331 172.262 241.298 172.93 241.31C177.18 241.29 181.365 242.353 185.09 244.4C190.72 247.386 194.943 252.475 196.84 258.56C197.972 262.096 198.644 265.763 198.84 269.47C199.09 273.31 199.01 277.29 198.97 281.35C198.82 297.58 198.69 312.28 198.59 322.96C198.52 328.26 198.46 332.56 198.42 335.58C198.42 337.04 198.36 338.19 198.35 339.01V339.9C198.314 340.011 198.268 340.118 198.21 340.22Z" fill="#263238"/>
<path d="M319.47 335.77C319.47 335.91 291.65 336.08 257.35 336.14C223.05 336.2 195.23 336.14 195.23 335.98C195.23 335.82 223.03 335.67 257.35 335.61C291.67 335.55 319.47 335.63 319.47 335.77Z" fill="#263238"/>
<path d="M319.47 344.8C319.47 344.94 291.85 344.98 257.8 344.89C223.75 344.8 196.12 344.61 196.13 344.46C196.14 344.31 223.73 344.28 257.8 344.37C291.87 344.46 319.47 344.65 319.47 344.8Z" fill="#263238"/>
<path d="M303.39 326.3C303.39 326.3 303.39 326.17 303.39 325.94C303.39 325.71 303.39 325.34 303.39 324.89C303.39 323.96 303.39 322.61 303.39 320.89C303.39 317.38 303.34 312.27 303.31 305.81L303.46 305.97L223.53 306.07C223.64 305.96 223.26 306.33 223.78 305.81V326.31L223.52 326.06L280.52 326.17L297.33 326.24H301.87H303.05H303.46C303.334 326.25 303.206 326.25 303.08 326.24H301.93H297.45L280.7 326.31L223.52 326.43H223.27V326.17C223.27 322.837 223.27 319.47 223.27 316.07V305.67C223.79 305.15 223.42 305.53 223.54 305.41L303.47 305.51H303.63V305.67C303.63 312.17 303.56 317.31 303.54 320.85C303.54 322.583 303.54 323.917 303.54 324.85C303.54 325.28 303.54 325.62 303.54 325.85C303.509 326.006 303.459 326.157 303.39 326.3Z" fill="#263238"/>
<path d="M258.25 311.07V320.22H257.32V312.92L253.74 319.06H253.28L249.7 312.96V320.22H248.78V311.1H249.57L253.57 317.86L257.49 311.1L258.25 311.07Z" fill="#263238"/>
<path d="M266.94 317.75H261.86L260.76 320.19H259.76L263.93 311.07H264.88L269.05 320.19H268.05L266.94 317.75ZM266.59 316.97L264.4 312.07L262.21 316.97H266.59Z" fill="#263238"/>
<path d="M270.56 311.07H271.56V320.22H270.56V311.07Z" fill="#263238"/>
<path d="M274.5 311.07H275.5V319.35H280.61V320.22H274.54L274.5 311.07Z" fill="#263238"/>
<path d="M293.12 220.44V205.44H265.12V265.58C262.853 266.92 261.095 268.974 260.123 271.421C259.151 273.869 259.019 276.569 259.749 279.099C260.478 281.63 262.028 283.845 264.154 285.399C266.28 286.953 268.862 287.756 271.494 287.683C274.126 287.61 276.659 286.664 278.696 284.995C280.732 283.325 282.156 281.027 282.744 278.46C283.332 275.893 283.05 273.204 281.944 270.815C280.837 268.425 278.968 266.472 276.63 265.26V220.44H293.12Z" fill="#FF725E"/>
<path d="M271.46 280.2C273.989 280.2 276.04 278.149 276.04 275.62C276.04 273.09 273.989 271.04 271.46 271.04C268.93 271.04 266.88 273.09 266.88 275.62C266.88 278.149 268.93 280.2 271.46 280.2Z" fill="#263238"/>
<path d="M99.4101 129.5C99.513 129.696 99.6 129.9 99.6701 130.11C99.9033 130.708 100.1 131.319 100.26 131.94C100.85 134.224 101.079 136.586 100.94 138.94C100.742 142.451 99.7467 145.871 98.0301 148.94C95.8866 152.719 92.6183 155.736 88.6801 157.57C84.7551 159.452 80.3169 159.979 76.0601 159.07C72.6224 158.273 69.4411 156.622 66.8101 154.27C65.045 152.69 63.5547 150.828 62.4001 148.76C62.0857 148.204 61.8052 147.63 61.5601 147.04C61.4581 146.84 61.3809 146.629 61.3301 146.41C61.3901 146.41 61.7201 147.25 62.5801 148.66C63.7807 150.661 65.2893 152.459 67.0501 153.99C69.6575 156.258 72.7881 157.842 76.1601 158.6C80.3147 159.46 84.6369 158.93 88.4601 157.09C92.3032 155.301 95.5017 152.372 97.6201 148.7C99.3224 145.691 100.33 142.339 100.57 138.89C100.745 136.564 100.573 134.225 100.06 131.95C99.7001 130.37 99.3501 129.52 99.4101 129.5Z" fill="#263238"/>
<path d="M184.53 284.3L198.18 284.12L197.65 330.49L184.98 330.99L184.53 284.3Z" fill="#EBEBEB"/>
<path d="M184.98 330.99C186.848 328.576 188.852 326.269 190.98 324.08C192.999 321.771 195.149 319.581 197.42 317.52C195.526 319.931 193.503 322.238 191.36 324.43C189.356 326.732 187.226 328.922 184.98 330.99Z" fill="#263238"/>
<path d="M198.18 299.74C195.725 297.385 193.388 294.908 191.18 292.32C188.837 289.85 186.624 287.26 184.55 284.56C187.009 286.912 189.345 289.389 191.55 291.98C193.89 294.453 196.102 297.043 198.18 299.74Z" fill="#263238"/>
<path d="M82.27 80.9199C82.2699 81.6242 82.4763 82.313 82.8638 82.9011C83.2513 83.4892 83.8027 83.9507 84.4499 84.2285C85.097 84.5063 85.8115 84.5882 86.5047 84.464C87.1979 84.3399 87.8395 84.0151 88.35 83.5299C90.28 81.6999 89.62 78.4799 88.42 76.0999C87.22 73.7199 85.56 71.31 85.91 68.68C86.18 66.68 87.58 65.0099 88.52 63.1999C89.3523 61.6292 89.8081 59.8865 89.8515 58.1094C89.8949 56.3323 89.5247 54.5694 88.77 52.9599C87.9751 51.3678 86.7563 50.0259 85.2477 49.082C83.7392 48.138 81.9994 47.6286 80.22 47.6099C76.61 47.6799 72.8 49.9399 69.59 48.2799C67.26 47.0699 66.29 44.2799 64.26 42.5599C61.13 39.9699 56.4 40.8299 52.69 42.5599C48.98 44.2899 45.43 46.6799 41.36 46.8799C37.97 47.0399 34.71 45.6199 31.36 45.1599C27.6891 44.6649 23.9551 45.326 20.6774 47.0514C17.3997 48.7769 14.7411 51.4808 13.0714 54.7873C11.4017 58.0937 10.8038 61.8383 11.3609 65.5003C11.9181 69.1623 13.6025 72.5597 16.18 75.2199C17.9711 77.2029 20.4034 78.4916 23.05 78.8599" fill="#263238"/>
<path d="M86.7999 157.34C81.7116 159.017 76.1658 158.608 71.3783 156.203C66.5908 153.798 62.9521 149.593 61.2599 144.51C59.2599 138.45 57.5499 133.35 57.5499 133.35C57.5499 133.35 41.4499 135.81 36.4099 120.52C31.3699 105.23 23.4099 71.2099 23.4099 71.2099L22.9199 69.1499C38.2799 55.8999 60.1199 53.6899 79.1699 60.6399L80.1699 63.8099L100.17 133.12C101.431 138.1 100.752 143.373 98.2689 147.871C95.7861 152.368 91.6861 155.753 86.7999 157.34Z" fill="#FFBE9D"/>
<path d="M36.8799 93.7599C37.2644 93.4775 37.5542 93.0852 37.7112 92.6347C37.8682 92.1843 37.885 91.6968 37.7594 91.2366C37.6338 90.7764 37.3717 90.365 37.0076 90.0568C36.6435 89.7485 36.1945 89.5579 35.7199 89.5099C35.1526 89.4404 34.5808 89.5987 34.1299 89.9499C33.7385 90.2295 33.4418 90.6221 33.2797 91.075C33.1175 91.5279 33.0977 92.0196 33.2228 92.4841C33.3479 92.9486 33.612 93.3638 33.9796 93.674C34.3473 93.9843 34.801 94.1747 35.2799 94.2199C35.5638 94.2524 35.8512 94.2284 36.1258 94.1495C36.4003 94.0705 36.6566 93.9381 36.8799 93.7599Z" fill="#263238"/>
<path d="M30.4901 91.8399C30.8201 92.0299 31.9601 90.39 34.0701 89.71C36.1801 89.03 38.0701 89.64 38.2001 89.3C38.2801 89.14 37.8901 88.74 37.0601 88.44C35.9543 88.0723 34.7599 88.0681 33.6516 88.428C32.5432 88.7878 31.5791 89.4929 30.9001 90.44C30.4101 91.22 30.3401 91.7599 30.4901 91.8399Z" fill="#263238"/>
<path d="M56.2899 85.2199C55.9872 85.57 55.7951 86.0021 55.7379 86.4614C55.6807 86.9207 55.761 87.3866 55.9687 87.8002C56.1763 88.2139 56.5019 88.5567 56.9044 88.7852C57.3069 89.0138 57.7681 89.1179 58.2297 89.0843C58.6913 89.0507 59.1326 88.881 59.4978 88.5966C59.8629 88.3122 60.1356 87.9259 60.2812 87.4866C60.4268 87.0473 60.4388 86.5746 60.3158 86.1284C60.1927 85.6822 59.9401 85.2826 59.5899 84.9799C59.1193 84.5768 58.5086 84.3758 57.8905 84.4207C57.2725 84.4657 56.6972 84.7529 56.2899 85.2199Z" fill="#263238"/>
<path d="M53.4899 86.6899C53.8099 86.8799 54.9499 85.2499 57.0599 84.5699C59.1699 83.8899 61.0599 84.4999 61.1999 84.1499C61.2799 83.9999 60.8899 83.5899 60.0599 83.2999C58.9541 82.9323 57.7597 82.9281 56.6513 83.288C55.543 83.6478 54.5788 84.3529 53.8999 85.2999C53.4099 86.0599 53.3299 86.6099 53.4899 86.6899Z" fill="#263238"/>
<path d="M50.5201 106.81C50.5201 106.65 49.0901 106.81 46.8801 107.19C46.3101 107.31 45.8201 107.33 45.6701 107.02C45.466 106.47 45.4277 105.872 45.5601 105.3C45.6601 103.74 45.7601 102.14 45.8701 100.47C46.2401 93.62 46.2801 88.06 45.9601 88.04C45.6401 88.02 45.0601 93.56 44.6801 100.41C44.6001 102.08 44.5301 103.67 44.4601 105.24C44.3281 106.055 44.4761 106.89 44.8801 107.61C45.0213 107.793 45.2035 107.939 45.412 108.038C45.6205 108.137 45.8493 108.186 46.0801 108.18C46.4197 108.171 46.7564 108.113 47.0801 108.01C49.2301 107.42 50.5501 106.97 50.5201 106.81Z" fill="#263238"/>
<path d="M58.12 106.98C59.91 104.98 53.12 112.11 48.71 113.26C49.7767 114.145 51.1126 114.643 52.4987 114.67C53.8849 114.697 55.2392 114.253 56.34 113.41C60.4 110.28 58.12 106.98 58.12 106.98Z" fill="white"/>
<path d="M57.46 133.14C64.586 131.035 70.9248 126.858 75.67 121.14C75.67 121.14 74.43 133.68 58.67 137.14L57.46 133.14Z" fill="#EB996E"/>
<path d="M82.3899 74.29C82.6999 74.07 93.5599 69.81 95.8099 83.34C98.0599 96.87 83.6499 94.65 83.5599 94.27C83.4699 93.89 82.3899 74.29 82.3899 74.29Z" fill="#FFBE9D"/>
<path d="M86.92 88.8399C86.92 88.7799 87.18 88.9599 87.61 89.0799C88.2116 89.2225 88.8449 89.1295 89.38 88.8199C90.72 88.0599 91.54 85.5899 91.21 83.1499C91.049 81.9834 90.6324 80.8669 89.99 79.8799C89.7911 79.4789 89.498 79.1321 89.1358 78.8691C88.7735 78.6061 88.3529 78.4348 87.91 78.3699C87.6273 78.3431 87.3442 78.4166 87.1102 78.5774C86.8762 78.7383 86.7062 78.9764 86.63 79.2499C86.51 79.6499 86.63 79.9099 86.63 79.9399C86.63 79.9699 86.3 79.7699 86.31 79.1899C86.3356 78.841 86.4763 78.5103 86.71 78.2499C87.0354 77.91 87.4798 77.7093 87.95 77.6899C88.5236 77.7091 89.0827 77.8744 89.5744 78.1701C90.0662 78.4659 90.4743 78.8823 90.76 79.3799C91.4999 80.4661 91.9664 81.7148 92.12 83.0199C92.49 85.7499 91.52 88.5399 89.66 89.4199C89.3143 89.5887 88.9347 89.6764 88.55 89.6764C88.1653 89.6764 87.7857 89.5887 87.44 89.4199C87 89.1599 86.88 88.8699 86.92 88.8399Z" fill="#EB996E"/>
<path d="M21.6499 78.63C21.6499 78.63 32.2599 80.54 42.7299 71.06C49.5899 64.84 58.3499 60.28 60.8599 61.31C63.3699 62.34 66.0899 70.45 74.6799 70.63C74.6799 70.63 78.5299 86.48 84.6299 84.17C90.7299 81.86 80.0099 58.64 80.0099 58.64L62.7999 52.33L45.2099 53.86L27.3499 61.07L18.6499 70.35L21.6499 78.63Z" fill="#263238"/>
<path d="M77.45 45.22C76.3056 45.6477 75.2123 46.2011 74.19 46.87C73.2661 47.6725 72.4373 48.5785 71.72 49.57C72.0837 48.3271 72.8367 47.2338 73.8682 46.4508C74.8996 45.6677 76.1551 45.2363 77.45 45.22Z" fill="#263238"/>
<path d="M69.2801 40.83C69.6014 41.2205 69.8457 41.6684 70.0001 42.15C70.4783 43.2703 70.8143 44.4461 71.0001 45.65C71.186 46.8594 71.1521 48.0925 70.9001 49.29C70.8435 49.7982 70.6651 50.2853 70.3801 50.71C70.6141 49.0534 70.6477 47.3746 70.4801 45.71C70.0601 42.99 69.1201 40.89 69.2801 40.83Z" fill="#263238"/>
<path d="M110.38 283.6L179.63 270.72L189.98 317.52L118.06 329.66L110.38 283.6Z" fill="#E0E0E0"/>
<path d="M179.63 270.72C179.63 270.72 179.63 270.79 179.51 270.91L179.12 271.46L177.58 273.52L171.82 281.05C166.88 287.43 160.1 296.2 152.55 305.94L152.42 306.11L152.23 306.01L150.88 305.3L122.19 290.05L113.53 285.37L111.18 284.08L110.58 283.73C110.507 283.692 110.44 283.645 110.38 283.59L110.6 283.68L111.23 283.98L113.62 285.22C115.73 286.31 118.7 287.86 122.37 289.75L151.12 304.84L152.46 305.55L152.13 305.62L171.52 280.83L177.41 273.39C178.1 272.55 178.64 271.88 179.03 271.39C179.21 271.19 179.35 271.02 179.46 270.88L179.63 270.72Z" fill="#263238"/>
<path d="M118.06 329.66C117.94 329.58 122.39 322.52 128.01 313.89C133.63 305.26 138.27 298.32 138.39 298.4C138.51 298.48 134.06 305.54 128.39 314.17C122.72 322.8 118.18 329.74 118.06 329.66Z" fill="#263238"/>
<path d="M189.98 317.52C189.89 317.63 183.41 312.67 175.51 306.44C167.61 300.21 161.28 295.07 161.37 294.96C161.46 294.85 167.93 299.8 175.84 306.03C183.75 312.26 190.12 317.4 189.98 317.52Z" fill="#263238"/>
<path d="M112.2 294.04C112.2 294.04 112.69 303.11 117.06 303.04C121.43 302.97 136.85 294.55 138.64 297.47C140.43 300.39 135.7 304.47 135.7 304.47C135.7 304.47 141.13 304.39 139.11 307.64C137.09 310.89 131.04 326.11 125.45 327.54C117.45 329.59 98.9199 330.39 98.9199 330.39L104.63 298.52L112.2 294.04Z" fill="#FFBE9D"/>
<path d="M137.38 302.5C137.213 302.739 137.018 302.957 136.8 303.15C136.4 303.54 135.8 304.09 135.04 304.73C131.039 308.083 126.534 310.783 121.69 312.73C120.76 313.1 120 313.37 119.47 313.54C119.199 313.651 118.912 313.722 118.62 313.75C119.568 313.238 120.547 312.783 121.55 312.39C126.267 310.25 130.718 307.565 134.81 304.39C135.627 303.707 136.485 303.076 137.38 302.5Z" fill="#EB996E"/>
<path d="M137.12 311.48C136.7 312.311 136.165 313.078 135.53 313.76C132.601 317.218 128.805 319.834 124.53 321.34C123.666 321.692 122.757 321.924 121.83 322.03C122.667 321.647 123.525 321.313 124.4 321.03C128.512 319.366 132.204 316.812 135.21 313.55C135.81 312.827 136.448 312.136 137.12 311.48Z" fill="#EB996E"/>
</svg>
