<svg width="349" height="343" viewBox="0 0 349 343" fill="none" xmlns="http://www.w3.org/2000/svg">
<path d="M348.679 230.285H214.916V152.878H348.679V230.285ZM215.732 229.469H347.863V153.695H215.732V229.469Z" fill="#E0E0E0"/>
<path d="M321.084 194.152H232.831V196.74H321.084V194.152Z" fill="#F0F0F0"/>
<path d="M327.165 203.799H232.831V206.623H327.165V203.799Z" fill="#F0F0F0"/>
<path d="M327.165 213.561H232.831V216.385H327.165V213.561Z" fill="#F0F0F0"/>
<path d="M263.674 180.139H232.831V186.856H263.674V180.139Z" fill="#F0F0F0"/>
<path d="M348.271 153.286H215.348V165.61H348.271V153.286Z" fill="#E0E0E0"/>
<path d="M338.044 163.766C337.873 163.603 339.587 161.538 341.864 159.154C344.141 156.771 346.141 154.968 346.304 155.123C346.467 155.278 344.761 157.351 342.484 159.742C340.207 162.134 338.208 163.929 338.044 163.766Z" fill="white"/>
<path d="M346.32 163.766C346.157 163.929 344.166 162.134 341.88 159.742C339.595 157.351 337.889 155.286 338.061 155.123C338.232 154.959 340.215 156.755 342.501 159.155C344.786 161.554 346.475 163.603 346.32 163.766Z" fill="white"/>
<path d="M184.081 0H51.158V76.5983H184.081V0Z" fill="#E6E6E6"/>
<path d="M156.902 40.874H68.6487V43.4613H156.902V40.874Z" fill="#F0F0F0"/>
<path d="M162.982 50.5215H68.6487V53.3455H162.982V50.5215Z" fill="#F0F0F0"/>
<path d="M162.982 60.2827H68.6487V63.1067H162.982V60.2827Z" fill="#F0F0F0"/>
<path d="M99.492 26.8604H68.6487V33.5775H99.492V26.8604Z" fill="#F0F0F0"/>
<path d="M184.081 0H51.158V12.3243H184.081V0Z" fill="#E0E0E0"/>
<path d="M173.405 10.4228C173.234 10.2677 174.948 8.1946 177.225 5.81136C179.502 3.42812 181.502 1.62437 181.665 1.78761C181.828 1.95084 180.122 4.01577 177.845 6.39901C175.568 8.78224 173.568 10.5697 173.405 10.4228Z" fill="white"/>
<path d="M181.665 10.4228C181.502 10.586 179.51 8.79045 177.225 6.39905C174.939 4.00765 173.234 1.95088 173.405 1.78765C173.576 1.62441 175.56 3.42 177.845 5.8114C180.13 8.2028 181.836 10.2677 181.665 10.4228Z" fill="white"/>
<path d="M133.739 142.292H0V64.8779H133.739V142.292ZM0.816177 141.476H132.923V65.6941H0.816177V141.476Z" fill="#E0E0E0"/>
<path d="M106.152 106.16H17.8987V108.747H106.152V106.16Z" fill="#F0F0F0"/>
<path d="M112.232 115.808H17.8987V118.632H112.232V115.808Z" fill="#F0F0F0"/>
<path d="M112.232 125.569H17.8987V128.393H112.232V125.569Z" fill="#F0F0F0"/>
<path d="M48.742 92.1465H17.8987V98.8636H48.742V92.1465Z" fill="#F0F0F0"/>
<path d="M133.331 65.2861H0.408203V77.6104H133.331V65.2861Z" fill="#E0E0E0"/>
<path d="M288.086 160.028H131.135V300.541H288.086V160.028Z" fill="#E6E6E6"/>
<path d="M139.028 115.767H16.0786V243.507H139.028V115.767Z" fill="#F0F0F0"/>
<path d="M139.028 115.767H16.0786V129.682H139.028V115.767Z" fill="#E0E0E0"/>
<path d="M26.2319 122.582C26.2095 123.086 26.0394 123.573 25.7428 123.982C25.4461 124.391 25.0359 124.704 24.5631 124.881C24.0903 125.059 23.5757 125.094 23.0832 124.982C22.5906 124.87 22.1419 124.616 21.7925 124.251C21.4431 123.886 21.2086 123.427 21.118 122.93C21.0274 122.433 21.0847 121.92 21.2828 121.456C21.481 120.991 21.8112 120.595 22.2325 120.316C22.6538 120.037 23.1476 119.889 23.6528 119.888C24.3513 119.905 25.0146 120.198 25.4979 120.703C25.9812 121.208 26.245 121.883 26.2319 122.582Z" fill="white"/>
<path d="M36.7036 122.582C36.6828 123.089 36.5134 123.578 36.2164 123.99C35.9194 124.401 35.5079 124.716 35.0332 124.896C34.5586 125.075 34.0416 125.111 33.5467 124.999C33.0518 124.887 32.6008 124.631 32.2498 124.265C31.8989 123.898 31.6634 123.437 31.5728 122.937C31.4822 122.438 31.5404 121.923 31.7402 121.457C31.94 120.99 32.2726 120.593 32.6965 120.314C33.1205 120.035 33.6171 119.887 34.1245 119.888C34.823 119.905 35.4864 120.198 35.9697 120.703C36.4529 121.208 36.7168 121.883 36.7036 122.582Z" fill="white"/>
<path d="M47.1751 122.582C47.1543 123.089 46.9848 123.578 46.6878 123.99C46.3908 124.401 45.9794 124.716 45.5047 124.896C45.03 125.075 44.513 125.111 44.0181 124.999C43.5232 124.887 43.0722 124.631 42.7213 124.265C42.3703 123.898 42.1349 123.437 42.0443 122.937C41.9537 122.438 42.0119 121.923 42.2117 121.457C42.4115 120.99 42.744 120.593 43.168 120.314C43.5919 120.035 44.0885 119.887 44.596 119.888C45.2945 119.905 45.9578 120.198 46.4411 120.703C46.9243 121.208 47.1882 121.883 47.1751 122.582Z" fill="white"/>
<path d="M331.123 27.938H174.172V184.367H331.123V27.938Z" fill="#F0F0F0"/>
<path d="M331.123 27.938H174.172V46.2612H331.123V27.938Z" fill="#E0E0E0"/>
<path d="M187.541 36.9156C187.513 37.5817 187.289 38.2247 186.898 38.7648C186.507 39.3048 185.966 39.7181 185.342 39.9533C184.718 40.1885 184.039 40.2353 183.388 40.0879C182.738 39.9404 182.146 39.6052 181.684 39.1239C181.223 38.6426 180.913 38.0364 180.793 37.3805C180.673 36.7246 180.749 36.048 181.01 35.4346C181.271 34.8212 181.707 34.2981 182.263 33.9302C182.819 33.5623 183.471 33.3659 184.138 33.3652C185.059 33.3867 185.935 33.7723 186.573 34.4377C187.211 35.103 187.559 35.994 187.541 36.9156Z" fill="white"/>
<path d="M200.331 34.516C200.783 35.0074 201.081 35.621 201.187 36.2805C201.293 36.94 201.203 37.6161 200.928 38.2247C200.652 38.8332 200.204 39.3473 199.639 39.7028C199.073 40.0583 198.415 40.2396 197.748 40.224C197.08 40.2084 196.431 39.9967 195.883 39.6152C195.335 39.2337 194.911 38.6992 194.664 38.0785C194.418 37.4578 194.359 36.7782 194.496 36.1244C194.633 35.4706 194.959 34.8715 195.434 34.4017C196.099 33.7687 196.988 33.4253 197.906 33.4467C198.824 33.4682 199.696 33.8527 200.331 34.516Z" fill="white"/>
<path d="M215.112 36.9156C215.083 37.5817 214.859 38.2247 214.468 38.7648C214.077 39.3048 213.536 39.7181 212.912 39.9533C212.288 40.1885 211.609 40.2353 210.959 40.0879C210.309 39.9404 209.716 39.6052 209.255 39.1239C208.793 38.6426 208.483 38.0364 208.363 37.3805C208.244 36.7246 208.319 36.048 208.58 35.4346C208.842 34.8212 209.278 34.2981 209.834 33.9302C210.39 33.5623 211.042 33.3659 211.708 33.3652C212.63 33.3867 213.505 33.7723 214.143 34.4377C214.781 35.103 215.129 35.994 215.112 36.9156Z" fill="white"/>
<path d="M297.219 342.044C297.219 342.158 240.544 342.256 170.655 342.256C100.765 342.256 44.0654 342.158 44.0654 342.044C44.0654 341.929 100.733 341.832 170.655 341.832C240.576 341.832 297.219 341.938 297.219 342.044Z" fill="#263238"/>
<path d="M241.997 242.127C229.387 233.321 226.53 216.973 227.028 202.273C227.11 199.825 226.84 197.229 228.007 195.083C229.174 192.936 231.9 191.459 234.096 192.487C235.916 193.344 236.708 195.466 237.728 197.221C239.089 199.558 241.084 201.463 243.482 202.714C245.041 203.53 246.975 204.02 248.518 203.171C250.64 202.004 250.885 199.09 250.868 196.642C250.868 192.087 250.841 187.539 250.787 182.995C250.64 180.556 250.888 178.108 251.521 175.748C252.28 173.43 253.97 171.283 256.28 170.63C258.589 169.977 261.471 171.324 261.993 173.707C262.083 174.717 262.107 175.731 262.066 176.743C262.132 177.764 262.605 178.882 263.56 179.192C264.515 179.502 265.511 178.792 266.245 178.074C268.759 175.625 270.473 172.434 272.065 169.283C273.656 166.133 275.215 162.893 277.5 160.208C279.786 157.522 282.944 155.392 286.478 155.188C290.012 154.984 293.693 157.155 294.575 160.583C295.456 164.011 293.457 167.512 291.31 170.295C288.071 174.427 284.253 178.069 279.973 181.11C279.138 181.566 278.471 182.278 278.072 183.142C277.541 184.774 279.084 186.407 280.692 186.921C282.512 187.525 284.487 187.337 286.405 187.566C288.323 187.794 290.363 188.627 291.09 190.422C292.085 192.92 289.996 195.532 287.947 197.246C283.834 200.674 279.163 203.371 274.138 205.22C272.342 205.873 270.457 206.452 269.004 207.709C267.551 208.966 266.686 211.161 267.559 212.884C268.433 214.606 270.677 215.153 272.562 214.802C274.448 214.451 276.121 213.439 277.917 212.761C281.271 211.496 285.597 211.725 287.711 214.622C288.366 215.62 288.78 216.757 288.922 217.942C289.063 219.127 288.928 220.329 288.527 221.453C287.71 223.691 286.453 225.742 284.83 227.485C279.484 233.872 272.538 238.725 264.703 241.548C256.924 244.241 249.718 244.976 241.988 242.144" fill="#BF3939"/>
<path d="M290.984 157.204C290.984 157.204 290.91 157.286 290.747 157.433L290.021 158.077C289.384 158.649 288.445 159.481 287.262 160.583C283.906 163.699 280.791 167.063 277.941 170.647C276.121 172.907 274.236 175.47 272.228 178.253C270.22 181.036 268.147 184.04 266.09 187.231C263.897 190.597 261.889 194.079 260.075 197.662C259.128 199.531 258.296 201.482 257.439 203.473L254.909 209.554C251.573 217.213 248.669 225.052 246.208 233.035C244.226 239.567 242.86 246.27 242.127 253.056C241.653 257.636 241.576 262.248 241.899 266.841C242.029 268.474 242.152 269.722 242.266 270.571C242.315 270.979 242.348 271.306 242.38 271.542V271.877C242.345 271.771 242.321 271.662 242.307 271.551C242.266 271.314 242.217 270.996 242.152 270.587C242.005 269.771 241.85 268.482 241.703 266.849C241.309 262.248 241.336 257.62 241.784 253.023C242.472 246.208 243.808 239.474 245.776 232.913C248.216 224.907 251.112 217.048 254.452 209.374L257.047 203.318C257.904 201.335 258.745 199.368 259.7 197.491C261.527 193.896 263.551 190.406 265.764 187.035C267.853 183.771 269.959 180.816 271.942 178.057C273.926 175.299 275.844 172.72 277.655 170.467C280.534 166.892 283.692 163.552 287.099 160.477C288.307 159.391 289.27 158.575 289.923 158.028L290.682 157.416C290.775 157.335 290.876 157.264 290.984 157.204Z" fill="#263238"/>
<path d="M259.806 197.474C259.69 197.138 259.611 196.79 259.569 196.437C259.438 195.76 259.291 194.805 259.12 193.564C258.769 191.116 258.41 187.761 258.026 184.048C257.643 180.334 257.21 176.972 256.851 174.548C256.663 173.34 256.5 172.368 256.386 171.691C256.297 171.344 256.25 170.988 256.247 170.63C256.388 170.957 256.489 171.299 256.549 171.65C256.729 172.319 256.933 173.282 257.161 174.499C257.626 176.947 258.083 180.277 258.467 183.999C258.851 187.721 259.177 190.985 259.43 193.524C259.553 194.666 259.659 195.638 259.74 196.413C259.804 196.763 259.826 197.119 259.806 197.474Z" fill="#263238"/>
<path d="M291.212 191.614C290.815 191.7 290.411 191.75 290.004 191.761C289.188 191.834 288.029 191.932 286.593 192.095C283.72 192.406 279.769 192.977 275.435 193.793C271.102 194.609 267.208 195.532 264.409 196.242C263.013 196.601 261.887 196.927 261.144 197.148C260.748 197.288 260.337 197.387 259.92 197.441C260.297 197.252 260.69 197.096 261.095 196.976C261.862 196.707 262.972 196.331 264.36 195.931C267.143 195.115 271.036 194.144 275.386 193.312C279.072 192.607 282.79 192.089 286.527 191.761C287.972 191.638 289.139 191.589 289.955 191.573C290.375 191.545 290.796 191.558 291.212 191.614Z" fill="#263238"/>
<path d="M246.175 232.341C246.088 232.223 246.017 232.094 245.963 231.958L245.425 230.823C244.959 229.836 244.331 228.375 243.58 226.587C242.062 222.996 240.128 217.969 238.071 212.386C236.014 206.803 234.121 201.776 232.684 198.144C231.982 196.381 231.403 194.936 230.97 193.859L230.513 192.692C230.45 192.557 230.406 192.414 230.382 192.267C230.469 192.385 230.541 192.514 230.595 192.651L231.133 193.785C231.59 194.773 232.227 196.234 232.978 198.021C234.496 201.612 236.43 206.64 238.487 212.223C240.544 217.805 242.437 222.833 243.874 226.465C244.576 228.228 245.155 229.672 245.58 230.75C245.767 231.215 245.922 231.566 246.045 231.917C246.108 232.052 246.152 232.194 246.175 232.341Z" fill="#263238"/>
<path d="M287.866 218.899C287.735 218.974 287.595 219.032 287.449 219.07L286.242 219.478L281.777 220.923C278.006 222.147 272.799 223.894 267.086 225.82C261.373 227.746 256.141 229.46 252.346 230.603C250.452 231.182 248.91 231.623 247.84 231.917L246.608 232.235C246.465 232.281 246.317 232.311 246.167 232.325C246.298 232.25 246.438 232.192 246.583 232.154L247.791 231.746L252.256 230.301C256.027 229.077 261.234 227.33 266.947 225.404C272.66 223.478 277.884 221.764 281.679 220.621C283.581 220.042 285.115 219.601 286.193 219.307L287.425 218.989C287.568 218.943 287.716 218.913 287.866 218.899Z" fill="#263238"/>
<path d="M270.857 20.9185L266.653 22.4203L264.85 16.9274C261.536 6.79868 250.975 1.42007 241.27 4.83985C231.566 8.25963 226.399 19.3678 229.713 29.4966L231.517 34.9894L227.297 36.4994C225.688 37.1235 224.382 38.3436 223.649 39.9062C222.916 41.4688 222.814 43.2536 223.363 44.8897L235.059 80.6301C235.302 81.44 235.705 82.1929 236.244 82.8439C236.784 83.495 237.449 84.0309 238.199 84.42C238.95 84.809 239.771 85.0432 240.614 85.1086C241.457 85.174 242.305 85.0694 243.107 84.8008L286.666 69.2199C288.296 68.5969 289.621 67.366 290.363 65.7859C291.104 64.2059 291.204 62.4 290.641 60.748L278.937 25.0076C278.688 24.2 278.279 23.4508 277.734 22.8047C277.189 22.1587 276.519 21.6291 275.765 21.2474C275.011 20.8658 274.188 20.64 273.344 20.5835C272.501 20.527 271.655 20.6409 270.857 20.9185ZM237.655 26.6318C236.761 23.9982 236.921 21.1209 238.102 18.6029C239.283 16.0849 241.392 14.1215 243.988 13.1241C245.27 12.6855 246.627 12.5096 247.978 12.6069C249.33 12.7042 250.648 13.0728 251.853 13.6905C253.059 14.3083 254.128 15.1626 254.997 16.2025C255.865 17.2424 256.515 18.4466 256.908 19.7433L258.704 25.2361L239.45 32.1247L237.655 26.6318ZM262.14 58.3484L265.127 67.4733C265.182 67.6563 265.164 67.8533 265.078 68.0236C264.991 68.1938 264.842 68.3241 264.662 68.3874L260.475 69.881C260.308 69.9272 260.13 69.9072 259.978 69.825C259.826 69.7428 259.711 69.605 259.659 69.4403L256.647 60.3562C254.986 60.2658 253.393 59.6701 252.08 58.6491C250.767 57.628 249.798 56.2303 249.301 54.643C248.592 52.5446 248.721 50.2529 249.663 48.2477C250.604 46.2426 252.285 44.6795 254.354 43.8858C255.375 43.5369 256.456 43.3972 257.532 43.4749C258.608 43.5526 259.658 43.8463 260.618 44.3383C261.579 44.8303 262.43 45.5106 263.122 46.3387C263.814 47.1668 264.332 48.1257 264.646 49.1583C265.171 50.7707 265.214 52.5012 264.771 54.1379C264.327 55.7746 263.416 57.2464 262.148 58.3729L262.14 58.3484Z" fill="#BF3939"/>
<path d="M266.466 22.3222C266.466 22.4365 258.671 25.3666 248.975 28.8517C239.279 32.3367 231.37 35.1362 231.329 35.0546C231.288 34.973 239.124 32.0184 248.828 28.5252C258.532 25.0319 266.425 22.2161 266.466 22.3222Z" fill="#263238"/>
<path d="M275.721 23.8242C275.757 23.895 275.787 23.9688 275.811 24.0446C275.876 24.2078 275.95 24.42 276.048 24.6812C276.26 25.277 276.554 26.1014 276.921 27.1297L280.055 36.2546C281.361 40.1233 282.92 44.7102 284.65 49.8031C285.466 52.3578 286.429 55.0185 287.327 57.818C287.808 59.2606 288.015 60.7802 287.939 62.2988C287.87 63.0886 287.645 63.857 287.278 64.5596C286.886 65.26 286.362 65.878 285.736 66.3797C284.475 67.3002 283.075 68.0138 281.589 68.4936L277.386 70.0035L269.428 72.852L255.953 77.6511L246.853 80.8505L244.404 81.6667L243.751 81.8789C243.682 81.91 243.607 81.9293 243.531 81.9361C243.531 81.9361 243.596 81.9361 243.735 81.8381L244.372 81.5851L246.82 80.6628L255.872 77.3328L269.322 72.4358L277.264 69.5628L281.467 68.0447C282.91 67.5844 284.269 66.8925 285.491 65.9961C286.074 65.5305 286.561 64.9569 286.927 64.3066C287.273 63.6568 287.481 62.9428 287.539 62.209C287.614 60.7458 287.415 59.2814 286.952 57.8915C286.07 55.1165 285.14 52.4312 284.299 49.8766C282.601 44.7755 281.034 40.1723 279.794 36.3036C278.553 32.4349 277.508 29.3253 276.79 27.1379C276.447 26.0687 276.186 25.2362 275.974 24.6322L275.778 23.9793C275.754 23.9298 275.734 23.8778 275.721 23.8242Z" fill="#263238"/>
<path d="M252.737 12.5689C252.737 12.5689 252.305 12.3567 251.505 12.0302C250.365 11.5921 249.159 11.3493 247.938 11.312C246.129 11.2499 244.328 11.59 242.666 12.3077C240.645 13.2014 238.916 14.6469 237.679 16.4784C236.434 18.3046 235.765 20.4627 235.761 22.6732C235.778 24.4849 236.053 26.2849 236.577 28.0191C237.002 29.5046 237.442 30.688 237.736 31.5124C237.909 31.9311 238.051 32.3621 238.161 32.8019C237.929 32.4104 237.735 31.9978 237.581 31.5695C237.246 30.7533 236.765 29.5944 236.292 28.1007C235.71 26.3483 235.394 24.519 235.353 22.6732C235.331 20.3792 236.015 18.134 237.312 16.2417C238.592 14.3433 240.391 12.8531 242.494 11.9486C244.209 11.227 246.065 10.9086 247.922 11.0181C249.169 11.0817 250.395 11.3721 251.538 11.8751C251.843 12.0161 252.138 12.1798 252.419 12.3648C252.535 12.4158 252.643 12.4847 252.737 12.5689Z" fill="#263238"/>
<path d="M253.113 44.5063C253.243 44.4273 253.38 44.3591 253.521 44.3022C253.93 44.1179 254.353 43.9677 254.786 43.8533C255.474 43.6503 256.184 43.5297 256.9 43.4942C257.874 43.4418 258.849 43.5891 259.765 43.9268C261.854 44.6614 263.772 46.7916 264.719 49.64C265.173 51.1687 265.173 52.7963 264.719 54.3249C264.216 55.984 263.313 57.4944 262.091 58.7241L262.14 58.5037C263.225 61.4828 264.409 64.7148 265.633 68.0856L265.707 68.2897L265.503 68.3631L263.633 68.9834L259.553 70.3465L259.349 70.4118L259.283 70.2077C258.165 66.8287 256.941 63.6783 256.018 60.585L256.198 60.7237C254.602 60.5912 253.081 59.9923 251.823 59.0016C250.685 58.1251 249.752 57.011 249.089 55.7369C248.491 54.607 248.193 53.3423 248.224 52.0641C248.262 50.7577 248.588 49.4759 249.179 48.3104C249.77 47.1449 250.612 46.1246 251.644 45.3225C252.069 44.9777 252.545 44.7022 253.056 44.5063C252.595 44.7798 252.148 45.0767 251.717 45.3959C250.584 46.3548 249.716 47.5885 249.195 48.9789C248.749 50.0274 248.54 51.1618 248.584 52.3006C248.627 53.4393 248.923 54.5543 249.448 55.5655C250.1 56.7912 251.011 57.8606 252.117 58.6996C253.317 59.6413 254.768 60.209 256.288 60.332H256.427L256.467 60.4544C257.365 63.4906 258.598 66.6655 259.732 70.0608L259.463 69.9302L263.544 68.5672L265.405 67.9387L265.274 68.2162C264.058 64.8454 262.883 61.6052 261.805 58.6261V58.5037L261.903 58.4058C263.09 57.2271 263.974 55.7796 264.482 54.1861C264.915 52.7239 264.915 51.1676 264.482 49.7053C263.593 46.963 261.756 44.8817 259.765 44.1472C258.883 43.8072 257.942 43.649 256.998 43.6819C256.293 43.6981 255.592 43.7939 254.909 43.9676C253.692 44.2696 253.121 44.5471 253.113 44.5063Z" fill="#263238"/>
<path d="M227.885 280.169L146.357 279.794C141.649 279.768 137.143 277.874 133.83 274.529C130.517 271.184 128.667 266.66 128.687 261.952L129.552 57.5732C129.561 55.2406 130.031 52.9327 130.933 50.7816C131.835 48.6305 133.152 46.6782 134.809 45.0364C136.466 43.3946 138.43 42.0954 140.589 41.2132C142.749 40.331 145.061 39.8829 147.393 39.8948L228.913 40.2702C233.621 40.294 238.128 42.1854 241.442 45.5291C244.757 48.8729 246.609 53.3955 246.592 58.1037L245.727 262.475C245.717 264.808 245.248 267.117 244.346 269.269C243.444 271.421 242.127 273.374 240.47 275.017C238.814 276.66 236.85 277.961 234.69 278.845C232.531 279.729 230.218 280.179 227.885 280.169Z" fill="#455A64"/>
<path d="M228.791 47.2972H212.99C212.474 47.3068 211.965 47.4178 211.493 47.624C211.02 47.8302 210.593 48.1275 210.235 48.4988C209.877 48.8702 209.596 49.3084 209.408 49.7885C209.219 50.2685 209.128 50.781 209.137 51.2965V54.1613C209.147 54.6765 209.055 55.1885 208.867 55.6681C208.678 56.1476 208.397 56.5853 208.039 56.9561C207.681 57.3268 207.254 57.6233 206.781 57.8286C206.309 58.0339 205.8 58.1439 205.285 58.1524L174.482 58.0137C173.44 57.9859 172.452 57.5457 171.734 56.7897C171.017 56.0337 170.628 55.0238 170.655 53.9817V51.117C170.681 50.0763 170.294 49.0676 169.578 48.3118C168.862 47.5561 167.875 47.1149 166.835 47.085H161.277L147.442 47.0198C144.152 47.0002 140.988 48.2852 138.643 50.5936C136.298 52.9019 134.963 56.0455 134.93 59.3359L134.114 258.826C134.107 260.458 134.421 262.076 135.039 263.587C135.656 265.098 136.566 266.473 137.715 267.632C138.864 268.792 140.23 269.714 141.735 270.345C143.24 270.977 144.855 271.306 146.488 271.313L227.844 271.689C229.478 271.696 231.096 271.382 232.608 270.764C234.12 270.146 235.496 269.236 236.656 268.086C237.817 266.936 238.739 265.569 239.371 264.063C240.003 262.557 240.332 260.941 240.34 259.308L241.156 59.8174C241.175 56.5177 239.884 53.3453 237.565 50.9976C235.247 48.6498 232.091 47.3188 228.791 47.2972Z" fill="white"/>
<path d="M217.846 245.074L157.351 244.813C156.722 244.813 156.216 244.127 156.224 243.294L156.29 227.469C156.29 226.653 156.804 225.951 157.432 225.951L217.927 226.228C218.276 226.288 218.587 226.481 218.797 226.765C219.007 227.049 219.099 227.404 219.054 227.754L218.997 243.564C218.997 244.404 218.474 245.082 217.846 245.074Z" fill="#BF3939"/>
<path d="M176.269 238.701C175.846 238.701 175.439 238.633 175.049 238.498C174.664 238.362 174.366 238.183 174.155 237.961L174.39 237.498C174.596 237.704 174.87 237.872 175.212 238.002C175.553 238.127 175.905 238.189 176.269 238.189C176.778 238.189 177.16 238.097 177.415 237.912C177.67 237.723 177.797 237.479 177.797 237.181C177.797 236.953 177.727 236.771 177.586 236.636C177.45 236.5 177.282 236.397 177.082 236.327C176.881 236.251 176.602 236.17 176.244 236.083C175.816 235.974 175.474 235.871 175.22 235.774C174.965 235.671 174.745 235.516 174.561 235.31C174.382 235.104 174.293 234.825 174.293 234.473C174.293 234.186 174.369 233.925 174.52 233.692C174.672 233.454 174.905 233.264 175.22 233.123C175.534 232.982 175.924 232.912 176.391 232.912C176.716 232.912 177.033 232.958 177.342 233.05C177.656 233.137 177.927 233.259 178.155 233.416L177.952 233.896C177.713 233.738 177.459 233.622 177.187 233.546C176.916 233.465 176.651 233.424 176.391 233.424C175.892 233.424 175.515 233.522 175.26 233.717C175.011 233.906 174.886 234.153 174.886 234.457C174.886 234.684 174.954 234.869 175.09 235.01C175.231 235.145 175.404 235.251 175.61 235.327C175.821 235.397 176.103 235.476 176.456 235.562C176.873 235.665 177.209 235.768 177.464 235.871C177.724 235.969 177.944 236.121 178.123 236.327C178.301 236.527 178.391 236.801 178.391 237.148C178.391 237.435 178.312 237.698 178.155 237.937C178.003 238.17 177.768 238.357 177.448 238.498C177.128 238.633 176.735 238.701 176.269 238.701ZM179.702 232.96H180.304V238.652H179.702V232.96ZM186.912 232.96V238.652H186.416L182.757 234.034V238.652H182.156V232.96H182.652L186.319 237.579V232.96H186.912ZM192.779 235.806H193.356V237.977C193.091 238.211 192.776 238.389 192.413 238.514C192.05 238.639 191.668 238.701 191.267 238.701C190.697 238.701 190.185 238.576 189.73 238.327C189.274 238.078 188.917 237.734 188.656 237.294C188.396 236.85 188.266 236.354 188.266 235.806C188.266 235.259 188.396 234.766 188.656 234.326C188.917 233.882 189.274 233.535 189.73 233.286C190.185 233.036 190.7 232.912 191.275 232.912C191.708 232.912 192.107 232.982 192.47 233.123C192.833 233.259 193.139 233.462 193.389 233.733L193.015 234.115C192.565 233.671 191.993 233.448 191.299 233.448C190.838 233.448 190.421 233.551 190.047 233.757C189.678 233.958 189.388 234.24 189.177 234.603C188.965 234.961 188.86 235.362 188.86 235.806C188.86 236.251 188.965 236.652 189.177 237.01C189.388 237.368 189.678 237.649 190.047 237.855C190.415 238.061 190.83 238.164 191.291 238.164C191.876 238.164 192.372 238.018 192.779 237.725V235.806ZM199.48 238.701C198.743 238.701 198.169 238.49 197.757 238.067C197.345 237.644 197.139 237.029 197.139 236.221V232.96H197.74V236.197C197.74 236.858 197.889 237.351 198.188 237.677C198.486 238.002 198.917 238.164 199.48 238.164C200.05 238.164 200.483 238.002 200.781 237.677C201.08 237.351 201.229 236.858 201.229 236.197V232.96H201.814V236.221C201.814 237.029 201.608 237.644 201.196 238.067C200.79 238.49 200.218 238.701 199.48 238.701ZM205.758 232.96C206.484 232.96 207.053 233.134 207.465 233.481C207.877 233.828 208.083 234.305 208.083 234.912C208.083 235.519 207.877 235.996 207.465 236.343C207.053 236.685 206.484 236.855 205.758 236.855H204.229V238.652H203.627V232.96H205.758ZM205.741 236.327C206.305 236.327 206.736 236.205 207.034 235.961C207.332 235.712 207.482 235.362 207.482 234.912C207.482 234.451 207.332 234.099 207.034 233.855C206.736 233.606 206.305 233.481 205.741 233.481H204.229V236.327H205.741Z" fill="#E8E8E3"/>
<path d="M169.417 105.94L148.425 105.845L148.408 109.697L169.4 109.792L169.417 105.94Z" fill="#BF3939"/>
<path opacity="0.1" d="M169.417 105.94L148.425 105.845L148.408 109.697L169.4 109.792L169.417 105.94Z" fill="black"/>
<path d="M230.954 129.593C231.119 129.576 231.281 129.537 231.435 129.478C231.661 129.39 231.858 129.24 232.002 129.045C232.146 128.85 232.233 128.618 232.251 128.376C232.251 127.079 232.251 125.185 232.251 122.753C232.251 121.537 232.251 120.174 232.251 118.672C232.251 118.305 232.251 117.921 232.251 117.538C232.305 117.165 232.224 116.786 232.023 116.468C231.911 116.316 231.764 116.192 231.596 116.105C231.427 116.019 231.241 115.973 231.052 115.971H229.778H217.985L149.72 115.718C149.545 115.715 149.372 115.754 149.216 115.832C149.059 115.91 148.924 116.025 148.822 116.166C148.625 116.486 148.549 116.865 148.61 117.236C148.61 118.052 148.61 118.868 148.61 119.684C148.61 121.317 148.61 122.949 148.61 124.581C148.61 125.397 148.61 126.214 148.61 127.03C148.576 127.41 148.576 127.792 148.61 128.172C148.652 128.335 148.732 128.486 148.843 128.614C148.953 128.741 149.091 128.841 149.246 128.907C149.407 128.971 149.579 129.002 149.752 128.997H153.907L172.034 129.095L202.722 129.282L223.412 129.446L229.036 129.511H230.497C230.831 129.511 230.995 129.511 230.995 129.511H230.497H229.036H223.412H202.722L172.034 129.413L153.907 129.34H149.752C149.524 129.349 149.296 129.31 149.083 129.225C148.868 129.134 148.677 128.994 148.524 128.817C148.371 128.64 148.261 128.431 148.202 128.205C148.154 127.991 148.138 127.771 148.153 127.552V126.948C148.153 126.132 148.153 125.316 148.153 124.5C148.153 122.867 148.153 121.235 148.153 119.603C148.153 118.786 148.153 117.97 148.153 117.154C148.137 116.937 148.137 116.718 148.153 116.501C148.183 116.261 148.276 116.033 148.422 115.84C148.563 115.643 148.749 115.483 148.965 115.374C149.181 115.264 149.42 115.209 149.662 115.212L217.928 115.587L229.721 115.669H230.995C231.219 115.669 231.44 115.723 231.639 115.827C231.838 115.93 232.009 116.081 232.137 116.264C232.367 116.619 232.46 117.046 232.398 117.464C232.398 117.848 232.398 118.231 232.398 118.599C232.398 120.084 232.398 121.447 232.398 122.68C232.398 125.128 232.341 127.005 232.325 128.311C232.305 128.562 232.214 128.802 232.062 129.003C231.91 129.204 231.704 129.358 231.468 129.446C231.313 129.541 231.135 129.592 230.954 129.593Z" fill="#E0E0E0"/>
<path d="M193.124 119.815H154.731V123.414H193.124V119.815Z" fill="#BF3939"/>
<path opacity="0.2" d="M193.124 119.815H154.731V123.414H193.124V119.815Z" fill="white"/>
<path d="M169.274 141.084L148.282 140.988L148.265 144.841L169.257 144.936L169.274 141.084Z" fill="#BF3939"/>
<path opacity="0.1" d="M169.274 141.084L148.282 140.988L148.265 144.841L169.257 144.936L169.274 141.084Z" fill="black"/>
<path d="M230.423 164.737C230.588 164.717 230.752 164.687 230.913 164.647C231.141 164.575 231.351 164.454 231.528 164.294C231.705 164.133 231.846 163.936 231.941 163.717C232.07 163.387 232.12 163.033 232.088 162.68C232.088 162.289 232.088 161.864 232.088 161.391C232.088 160.444 232.088 159.367 232.088 158.126V152.943C232.127 152.568 232.044 152.19 231.852 151.866C231.65 151.533 231.334 151.286 230.962 151.172C230.555 151.1 230.141 151.078 229.729 151.107H217.985L149.956 150.854C149.59 150.855 149.237 150.988 148.962 151.23C148.688 151.472 148.51 151.805 148.463 152.168C148.463 152.943 148.463 153.8 148.463 154.616C148.463 156.249 148.463 157.881 148.463 159.514C148.463 160.33 148.463 161.146 148.463 161.962C148.432 162.344 148.449 162.727 148.512 163.105C148.614 163.436 148.823 163.723 149.107 163.921C149.409 164.112 149.763 164.204 150.119 164.182H151.254H153.613L171.675 164.272L202.257 164.46L222.874 164.623L228.481 164.688H229.942H230.431H229.942H228.481H222.874H202.257L171.658 164.655L153.596 164.59H150.046C149.605 164.616 149.167 164.499 148.797 164.256C148.426 163.998 148.155 163.621 148.03 163.186C147.957 162.772 147.935 162.349 147.965 161.929C147.965 161.113 147.965 160.297 147.965 159.481C147.965 157.849 147.965 156.216 147.965 154.584C147.965 153.768 147.965 152.951 147.965 152.135C148.024 151.669 148.252 151.24 148.605 150.929C148.958 150.618 149.412 150.446 149.883 150.446L217.911 150.821L229.656 150.911C230.093 150.884 230.532 150.914 230.962 151.001C231.386 151.139 231.744 151.43 231.966 151.817C232.177 152.176 232.268 152.594 232.227 153.009C232.227 153.392 232.227 153.768 232.227 154.143C232.227 155.62 232.227 156.975 232.227 158.224C232.227 159.473 232.227 160.526 232.227 161.489C232.227 161.954 232.227 162.386 232.227 162.786C232.257 163.151 232.198 163.518 232.056 163.856C231.95 164.081 231.796 164.281 231.606 164.441C231.416 164.602 231.193 164.719 230.954 164.786C230.775 164.801 230.596 164.784 230.423 164.737Z" fill="#E0E0E0"/>
<path d="M169.116 177.753L148.124 177.658L148.107 181.511L169.098 181.606L169.116 177.753Z" fill="#BF3939"/>
<path opacity="0.1" d="M169.116 177.753L148.124 177.658L148.107 181.511L169.098 181.606L169.116 177.753Z" fill="black"/>
<path d="M230.26 201.392C230.425 201.373 230.588 201.343 230.75 201.302C230.977 201.23 231.186 201.111 231.363 200.952C231.54 200.793 231.682 200.598 231.778 200.38C231.906 200.05 231.956 199.696 231.925 199.343C231.925 198.943 231.925 198.527 231.925 198.046C231.925 197.107 231.925 196.022 231.925 194.781V189.598C231.964 189.223 231.881 188.845 231.688 188.521C231.482 188.194 231.167 187.951 230.799 187.835C230.392 187.76 229.978 187.735 229.566 187.762H217.821L149.793 187.509C149.427 187.51 149.074 187.643 148.799 187.885C148.524 188.127 148.347 188.46 148.299 188.823C148.299 189.639 148.299 190.455 148.299 191.271C148.299 192.904 148.299 194.536 148.299 196.168C148.299 196.985 148.299 197.801 148.299 198.617C148.269 198.996 148.285 199.377 148.348 199.751C148.446 200.085 148.657 200.373 148.944 200.568C149.244 200.763 149.599 200.855 149.956 200.829H153.507L171.569 200.927L202.151 201.114L222.767 201.278L228.375 201.343H229.835C230.162 201.343 230.325 201.343 230.325 201.343C230.325 201.343 230.162 201.343 229.835 201.343H228.375H222.767H202.151L171.569 201.253L153.507 201.18H149.956C149.514 201.21 149.075 201.092 148.707 200.845C148.336 200.588 148.065 200.21 147.94 199.776C147.867 199.361 147.845 198.939 147.875 198.519C147.875 197.703 147.875 196.887 147.875 196.071C147.875 194.438 147.875 192.806 147.875 191.173C147.875 190.357 147.875 189.541 147.875 188.684C147.933 188.218 148.159 187.789 148.51 187.478C148.862 187.167 149.315 186.995 149.785 186.995L217.813 187.37L229.558 187.46C229.995 187.433 230.434 187.463 230.864 187.55C231.288 187.688 231.646 187.979 231.868 188.366C232.079 188.725 232.17 189.143 232.129 189.557C232.129 189.941 232.129 190.325 232.129 190.692C232.129 192.169 232.129 193.524 232.129 194.773C232.129 196.022 232.129 197.074 232.129 198.038C232.129 198.503 232.129 198.935 232.129 199.335C232.16 199.7 232.101 200.067 231.958 200.404C231.852 200.63 231.698 200.829 231.508 200.99C231.318 201.15 231.095 201.268 230.856 201.335C230.664 201.4 230.46 201.42 230.26 201.392Z" fill="#E0E0E0"/>
<path d="M192.304 155.977L153.912 155.803L153.895 159.402L192.288 159.576L192.304 155.977Z" fill="#BF3939"/>
<path opacity="0.2" d="M192.304 155.977L153.912 155.803L153.895 159.402L192.288 159.576L192.304 155.977Z" fill="white"/>
<path d="M157.383 194.732C157.359 195.06 157.239 195.374 157.038 195.635C156.838 195.895 156.565 196.092 156.253 196.199C155.942 196.306 155.606 196.319 155.287 196.237C154.969 196.155 154.681 195.981 154.46 195.737C154.239 195.493 154.095 195.189 154.045 194.864C153.995 194.538 154.041 194.205 154.179 193.906C154.316 193.607 154.539 193.355 154.818 193.181C155.098 193.007 155.422 192.919 155.751 192.928C156.206 192.953 156.632 193.157 156.938 193.494C157.243 193.832 157.403 194.277 157.383 194.732Z" fill="#BF3939"/>
<path d="M162.582 194.756C162.599 194.987 162.567 195.217 162.49 195.435C162.413 195.652 162.292 195.852 162.135 196.02C161.977 196.189 161.787 196.323 161.576 196.415C161.364 196.507 161.136 196.555 160.905 196.555C160.675 196.555 160.446 196.507 160.235 196.415C160.023 196.323 159.833 196.189 159.676 196.02C159.518 195.852 159.397 195.652 159.32 195.435C159.243 195.217 159.212 194.987 159.228 194.756C159.212 194.526 159.243 194.295 159.32 194.078C159.397 193.861 159.518 193.661 159.676 193.493C159.833 193.324 160.023 193.189 160.235 193.097C160.446 193.005 160.675 192.958 160.905 192.958C161.136 192.958 161.364 193.005 161.576 193.097C161.787 193.189 161.977 193.324 162.135 193.493C162.292 193.661 162.413 193.861 162.49 194.078C162.567 194.295 162.599 194.526 162.582 194.756Z" fill="#BF3939"/>
<path d="M167.79 194.781C167.766 195.109 167.646 195.423 167.445 195.684C167.244 195.945 166.971 196.141 166.66 196.248C166.348 196.355 166.012 196.368 165.694 196.286C165.375 196.204 165.087 196.03 164.866 195.786C164.645 195.542 164.501 195.238 164.451 194.913C164.401 194.588 164.448 194.255 164.585 193.956C164.723 193.657 164.945 193.404 165.225 193.23C165.504 193.057 165.828 192.968 166.157 192.977C166.611 193.005 167.037 193.209 167.342 193.546C167.647 193.883 167.808 194.327 167.79 194.781Z" fill="#BF3939"/>
<path d="M172.989 194.805C172.965 195.134 172.845 195.448 172.644 195.708C172.443 195.969 172.17 196.165 171.859 196.272C171.547 196.379 171.211 196.393 170.893 196.311C170.574 196.228 170.286 196.055 170.065 195.81C169.844 195.566 169.7 195.263 169.65 194.937C169.6 194.612 169.647 194.279 169.784 193.98C169.922 193.681 170.144 193.429 170.423 193.255C170.703 193.081 171.027 192.993 171.356 193.002C171.81 193.029 172.235 193.233 172.541 193.57C172.846 193.908 173.007 194.351 172.989 194.805Z" fill="#BF3939"/>
<path d="M178.188 194.822C178.165 195.15 178.047 195.465 177.847 195.727C177.647 195.989 177.374 196.186 177.063 196.295C176.751 196.403 176.415 196.417 176.096 196.336C175.777 196.255 175.488 196.082 175.266 195.838C175.045 195.594 174.9 195.29 174.849 194.965C174.798 194.639 174.845 194.306 174.982 194.006C175.119 193.706 175.342 193.454 175.622 193.28C175.901 193.105 176.226 193.017 176.555 193.026C177.008 193.053 177.432 193.256 177.737 193.592C178.042 193.927 178.204 194.369 178.188 194.822Z" fill="#BF3939"/>
<path d="M183.395 194.846C183.373 195.173 183.255 195.486 183.057 195.748C182.859 196.009 182.589 196.206 182.28 196.316C181.971 196.426 181.637 196.443 181.318 196.365C181 196.287 180.711 196.118 180.488 195.878C180.264 195.638 180.116 195.338 180.06 195.015C180.005 194.692 180.046 194.359 180.177 194.059C180.308 193.758 180.524 193.503 180.799 193.324C181.073 193.145 181.394 193.049 181.722 193.05C182.182 193.067 182.616 193.266 182.929 193.602C183.243 193.939 183.41 194.386 183.395 194.846Z" fill="#BF3939"/>
<path d="M188.594 194.871C188.61 195.101 188.579 195.332 188.502 195.549C188.425 195.767 188.304 195.966 188.146 196.134C187.989 196.303 187.799 196.438 187.587 196.53C187.376 196.622 187.147 196.669 186.917 196.669C186.686 196.669 186.458 196.622 186.246 196.53C186.035 196.438 185.845 196.303 185.687 196.134C185.53 195.966 185.409 195.767 185.332 195.549C185.255 195.332 185.223 195.101 185.24 194.871C185.223 194.641 185.255 194.41 185.332 194.192C185.409 193.975 185.53 193.776 185.687 193.607C185.845 193.438 186.035 193.304 186.246 193.212C186.458 193.12 186.686 193.072 186.917 193.072C187.147 193.072 187.376 193.12 187.587 193.212C187.799 193.304 187.989 193.438 188.146 193.607C188.304 193.776 188.425 193.975 188.502 194.192C188.579 194.41 188.61 194.641 188.594 194.871Z" fill="#BF3939"/>
<path d="M193.793 194.895C193.771 195.222 193.653 195.536 193.455 195.797C193.257 196.058 192.987 196.256 192.678 196.365C192.369 196.475 192.035 196.492 191.716 196.414C191.398 196.336 191.109 196.167 190.886 195.927C190.662 195.687 190.514 195.387 190.458 195.064C190.403 194.741 190.444 194.409 190.575 194.108C190.706 193.808 190.922 193.552 191.197 193.373C191.471 193.194 191.792 193.099 192.12 193.1C192.58 193.117 193.014 193.315 193.327 193.652C193.641 193.988 193.809 194.435 193.793 194.895Z" fill="#BF3939"/>
<path d="M198.992 194.92C198.97 195.249 198.851 195.563 198.651 195.825C198.451 196.087 198.178 196.285 197.867 196.393C197.556 196.501 197.22 196.516 196.9 196.434C196.581 196.353 196.292 196.18 196.071 195.936C195.849 195.692 195.704 195.388 195.653 195.063C195.603 194.737 195.649 194.404 195.786 194.104C195.924 193.805 196.146 193.552 196.426 193.378C196.706 193.203 197.03 193.115 197.36 193.124C197.812 193.152 198.236 193.355 198.541 193.69C198.846 194.025 199.008 194.467 198.992 194.92Z" fill="#BF3939"/>
<g opacity="0.2">
<path opacity="0.2" d="M157.383 194.732C157.359 195.06 157.239 195.374 157.038 195.635C156.838 195.895 156.565 196.092 156.253 196.199C155.942 196.306 155.606 196.319 155.287 196.237C154.969 196.155 154.681 195.981 154.46 195.737C154.239 195.493 154.095 195.189 154.045 194.864C153.995 194.538 154.041 194.205 154.179 193.906C154.316 193.607 154.539 193.355 154.818 193.181C155.098 193.007 155.422 192.919 155.751 192.928C156.206 192.953 156.632 193.157 156.938 193.494C157.243 193.832 157.403 194.277 157.383 194.732Z" fill="white"/>
<path opacity="0.2" d="M162.582 194.756C162.599 194.986 162.567 195.217 162.49 195.434C162.413 195.652 162.292 195.851 162.135 196.02C161.977 196.188 161.787 196.323 161.576 196.415C161.364 196.507 161.136 196.554 160.905 196.554C160.675 196.554 160.446 196.507 160.235 196.415C160.023 196.323 159.833 196.188 159.676 196.02C159.518 195.851 159.397 195.652 159.32 195.434C159.243 195.217 159.212 194.986 159.228 194.756C159.212 194.526 159.243 194.295 159.32 194.077C159.397 193.86 159.518 193.661 159.676 193.492C159.833 193.323 160.023 193.189 160.235 193.097C160.446 193.005 160.675 192.958 160.905 192.958C161.136 192.958 161.364 193.005 161.576 193.097C161.787 193.189 161.977 193.323 162.135 193.492C162.292 193.661 162.413 193.86 162.49 194.077C162.567 194.295 162.599 194.526 162.582 194.756Z" fill="white"/>
<path opacity="0.2" d="M167.79 194.78C167.766 195.109 167.646 195.423 167.445 195.684C167.244 195.944 166.971 196.14 166.66 196.247C166.348 196.354 166.012 196.368 165.694 196.286C165.375 196.204 165.087 196.03 164.866 195.786C164.645 195.542 164.501 195.238 164.451 194.913C164.401 194.587 164.448 194.254 164.585 193.955C164.723 193.656 164.945 193.404 165.224 193.23C165.504 193.056 165.828 192.968 166.157 192.977C166.611 193.004 167.036 193.208 167.342 193.545C167.647 193.883 167.808 194.326 167.79 194.78Z" fill="white"/>
<path opacity="0.2" d="M172.989 194.805C172.965 195.133 172.845 195.447 172.644 195.708C172.443 195.969 172.17 196.165 171.859 196.272C171.547 196.379 171.211 196.392 170.893 196.31C170.574 196.228 170.286 196.054 170.065 195.81C169.844 195.566 169.7 195.262 169.65 194.937C169.6 194.612 169.647 194.279 169.784 193.98C169.922 193.681 170.144 193.428 170.423 193.254C170.703 193.08 171.027 192.992 171.356 193.001C171.81 193.028 172.235 193.233 172.541 193.57C172.846 193.907 173.007 194.35 172.989 194.805Z" fill="white"/>
<path opacity="0.2" d="M178.188 194.822C178.165 195.15 178.047 195.465 177.847 195.727C177.647 195.989 177.374 196.186 177.063 196.295C176.751 196.403 176.415 196.417 176.096 196.336C175.777 196.255 175.488 196.082 175.266 195.838C175.045 195.594 174.9 195.29 174.849 194.965C174.798 194.639 174.845 194.306 174.982 194.006C175.119 193.706 175.342 193.454 175.622 193.28C175.901 193.105 176.226 193.017 176.555 193.026C177.008 193.053 177.432 193.256 177.737 193.592C178.042 193.927 178.204 194.369 178.188 194.822Z" fill="white"/>
<path opacity="0.2" d="M183.395 194.846C183.373 195.173 183.255 195.486 183.057 195.748C182.859 196.009 182.589 196.206 182.28 196.316C181.971 196.426 181.637 196.443 181.318 196.365C181 196.287 180.711 196.118 180.488 195.878C180.264 195.638 180.116 195.338 180.06 195.015C180.005 194.692 180.046 194.359 180.177 194.059C180.308 193.758 180.524 193.503 180.799 193.324C181.073 193.145 181.394 193.049 181.722 193.05C182.182 193.067 182.616 193.266 182.929 193.602C183.243 193.939 183.41 194.386 183.395 194.846Z" fill="white"/>
<path opacity="0.2" d="M188.594 194.87C188.61 195.1 188.579 195.331 188.502 195.549C188.425 195.766 188.304 195.965 188.146 196.134C187.989 196.303 187.799 196.437 187.587 196.529C187.376 196.621 187.147 196.669 186.917 196.669C186.686 196.669 186.458 196.621 186.246 196.529C186.035 196.437 185.845 196.303 185.687 196.134C185.53 195.965 185.409 195.766 185.332 195.549C185.255 195.331 185.223 195.1 185.24 194.87C185.223 194.64 185.255 194.409 185.332 194.192C185.409 193.974 185.53 193.775 185.687 193.606C185.845 193.438 186.035 193.303 186.246 193.211C186.458 193.119 186.686 193.072 186.917 193.072C187.147 193.072 187.376 193.119 187.587 193.211C187.799 193.303 187.989 193.438 188.146 193.606C188.304 193.775 188.425 193.974 188.502 194.192C188.579 194.409 188.61 194.64 188.594 194.87Z" fill="white"/>
<path opacity="0.2" d="M193.793 194.895C193.771 195.222 193.653 195.535 193.455 195.796C193.257 196.058 192.987 196.255 192.678 196.365C192.369 196.475 192.035 196.492 191.716 196.414C191.398 196.336 191.109 196.166 190.886 195.927C190.662 195.687 190.514 195.387 190.458 195.064C190.403 194.74 190.444 194.408 190.575 194.108C190.706 193.807 190.922 193.552 191.197 193.373C191.471 193.193 191.792 193.098 192.12 193.099C192.58 193.116 193.014 193.315 193.327 193.651C193.641 193.988 193.809 194.435 193.793 194.895Z" fill="white"/>
<path opacity="0.2" d="M198.992 194.919C198.97 195.248 198.851 195.563 198.651 195.825C198.451 196.087 198.178 196.284 197.867 196.392C197.556 196.501 197.22 196.515 196.9 196.434C196.581 196.353 196.292 196.179 196.071 195.935C195.849 195.691 195.704 195.388 195.653 195.062C195.603 194.737 195.649 194.403 195.786 194.104C195.924 193.804 196.146 193.551 196.426 193.377C196.706 193.203 197.03 193.115 197.36 193.124C197.812 193.151 198.236 193.354 198.541 193.69C198.846 194.025 199.008 194.466 198.992 194.919Z" fill="white"/>
</g>
<path d="M191.606 77.0962C192.173 76.8465 192.654 76.4356 192.989 75.9146C193.324 75.3936 193.499 74.7856 193.491 74.1661C193.512 73.7634 193.451 73.3606 193.312 72.9823C193.172 72.604 192.957 72.258 192.679 71.9655C192.402 71.673 192.068 71.44 191.697 71.2808C191.327 71.1216 190.928 71.0396 190.524 71.0396C190.121 71.0396 189.722 71.1216 189.352 71.2808C188.981 71.44 188.647 71.673 188.369 71.9655C188.092 72.258 187.877 72.604 187.737 72.9823C187.597 73.3606 187.536 73.7634 187.558 74.1661C187.545 74.7918 187.718 75.4071 188.055 75.9344C188.392 76.4617 188.878 76.8773 189.451 77.1288C184.88 77.8144 185.085 82.7768 185.085 82.7768L195.891 82.8257C195.891 82.8257 196.144 77.7736 191.606 77.0962Z" fill="#BF3939"/>
<path opacity="0.1" d="M191.606 77.0962C192.173 76.8465 192.654 76.4356 192.989 75.9146C193.324 75.3936 193.499 74.7856 193.491 74.1661C193.512 73.7634 193.451 73.3606 193.312 72.9823C193.172 72.604 192.957 72.258 192.679 71.9655C192.402 71.673 192.068 71.44 191.697 71.2808C191.327 71.1216 190.928 71.0396 190.524 71.0396C190.121 71.0396 189.722 71.1216 189.352 71.2808C188.981 71.44 188.647 71.673 188.369 71.9655C188.092 72.258 187.877 72.604 187.737 72.9823C187.597 73.3606 187.536 73.7634 187.558 74.1661C187.545 74.7918 187.718 75.4071 188.055 75.9344C188.392 76.4617 188.878 76.8773 189.451 77.1288C184.88 77.8144 185.085 82.7768 185.085 82.7768L195.891 82.8257C195.891 82.8257 196.144 77.7736 191.606 77.0962Z" fill="black"/>
<path d="M209.165 86.0263L170.65 85.8516L170.63 90.4548L209.145 90.6295L209.165 86.0263Z" fill="#BF3939"/>
<path opacity="0.2" d="M209.165 86.0263L170.65 85.8516L170.63 90.4548L209.145 90.6295L209.165 86.0263Z" fill="white"/>
<path d="M67.5715 109.882H67.1878L66.0778 109.964C65.4771 110 64.8798 110.079 64.2904 110.2C63.9087 110.254 63.53 110.327 63.1559 110.421L61.8909 110.772C59.7376 111.432 57.7061 112.438 55.8756 113.751C53.4572 115.506 51.4378 117.754 49.9502 120.345C49.0758 121.839 48.38 123.431 47.8771 125.087C47.3486 126.888 47.0443 128.746 46.9711 130.621C46.9225 131.606 46.9388 132.593 47.0201 133.576C47.0201 134.073 47.1589 134.571 47.2241 135.077C47.2791 135.587 47.3746 136.092 47.5098 136.587C48.2437 139.862 49.7329 142.921 51.8585 145.518C53.9841 148.116 56.6873 150.18 59.7525 151.548C61.9709 152.505 64.3487 153.039 66.7634 153.123C69.2575 153.26 71.754 152.902 74.109 152.07L74.8273 151.801H74.9252L75.0068 151.85L85.2988 157.073L84.9968 157.334C83.895 153.923 82.834 150.617 81.8056 147.442V147.32L81.8954 147.23C84.3921 144.715 86.2455 141.636 87.2985 138.252C88.2522 135.159 88.5305 131.897 88.1146 128.687C87.7447 125.834 86.8274 123.079 85.4131 120.574C84.194 118.422 82.6213 116.49 80.7609 114.861C79.226 113.571 77.5272 112.489 75.7087 111.645C74.3328 111.051 72.8997 110.6 71.432 110.298L69.7996 110.029L68.6162 109.939L67.8979 109.89H67.6531C67.7344 109.881 67.8166 109.881 67.8979 109.89H68.6243L69.8078 109.939L71.4401 110.176C72.9262 110.456 74.3787 110.891 75.774 111.473C77.6238 112.308 79.3532 113.387 80.916 114.681C82.8105 116.304 84.4166 118.235 85.6661 120.394C87.1206 122.926 88.066 125.718 88.4493 128.613C88.8997 131.873 88.6407 135.192 87.6902 138.342C86.6304 141.796 84.7483 144.941 82.2055 147.508L82.2545 147.295C83.2829 150.47 84.3521 153.776 85.4621 157.179L85.6171 157.677L85.1519 157.441L74.8599 152.225H75.0395L74.3049 152.495C71.9045 153.339 69.3618 153.705 66.8206 153.572C64.3538 153.478 61.9263 152.924 59.6627 151.94C55.3449 150.09 51.7525 146.876 49.436 142.79C48.37 140.903 47.5915 138.867 47.1262 136.75C46.9988 136.243 46.9034 135.728 46.8405 135.208C46.7752 134.694 46.6691 134.188 46.6447 133.682C46.4238 130.778 46.7307 127.857 47.5506 125.063C48.0661 123.384 48.7813 121.772 49.6808 120.264C51.2039 117.648 53.2654 115.387 55.7287 113.628C57.5893 112.312 59.655 111.314 61.8419 110.674L63.1233 110.347C63.5004 110.26 63.8818 110.192 64.2659 110.143C64.8614 110.033 65.4644 109.967 66.0697 109.947L67.1878 109.906C67.315 109.889 67.4432 109.881 67.5715 109.882Z" fill="#BF3939"/>
<path d="M72.2237 128.915H70.7137L67.449 124.328V121.317C67.449 121.317 65.1148 121.17 65.3923 125.112C65.6698 129.054 65.3923 128.05 65.3923 128.05C65.3923 128.05 60.4381 128.05 60.03 128.499C59.6219 128.948 59.5974 133.731 59.5403 136.4C59.509 137.043 59.6936 137.678 60.0648 138.205C60.4359 138.731 60.9724 139.119 61.5889 139.305C61.7617 139.353 61.9401 139.378 62.1194 139.379C63.36 139.379 69.669 138.375 69.669 138.375H72.2726L72.2237 128.915Z" fill="#BF3939"/>
<path d="M76.5413 128.107L75.6109 138.423H73.0317V128.319L76.5413 128.107Z" fill="#BF3939"/>
<path d="M107.303 338.134V331.156L94.7908 331.066L94.6847 341.619L95.4601 341.676C98.9125 341.897 113.024 342.223 115.342 341.505C117.921 340.705 107.303 338.134 107.303 338.134Z" fill="#BF3939"/>
<path d="M115.636 340.852C115.636 340.966 110.951 341.064 105.181 341.064C99.4103 341.064 94.7255 340.966 94.7255 340.852C94.7255 340.738 99.4103 340.64 105.181 340.64C110.951 340.64 115.636 340.738 115.636 340.852Z" fill="#263238"/>
<path d="M107.523 339.562C107.417 339.505 107.523 339.138 107.776 338.746C108.029 338.355 108.372 338.191 108.454 338.273C108.535 338.355 108.364 338.665 108.119 338.999C107.874 339.334 107.629 339.62 107.523 339.562Z" fill="#263238"/>
<path d="M108.323 340.019C108.209 340.019 108.266 339.562 108.511 339.13C108.756 338.697 109.082 338.436 109.172 338.501C109.262 338.566 109.115 338.934 108.886 339.317C108.658 339.701 108.429 340.06 108.323 340.019Z" fill="#263238"/>
<path d="M98.4962 340.819C98.4472 340.819 98.2595 340.672 97.9902 340.362C97.6614 339.963 97.2951 339.597 96.8965 339.268C96.5044 338.955 96.0374 338.75 95.5416 338.673C95.158 338.624 94.9132 338.673 94.8887 338.624C94.8642 338.575 95.1009 338.403 95.5498 338.371C96.1422 338.358 96.7201 338.555 97.1821 338.926C97.615 339.279 97.9801 339.707 98.2595 340.191C98.4472 340.55 98.5452 340.787 98.4962 340.819Z" fill="#263238"/>
<path d="M107.564 338.248C107.621 338.346 107.409 338.591 107.05 338.722C106.691 338.852 106.372 338.803 106.356 338.722C106.34 338.64 106.593 338.469 106.903 338.354C107.213 338.24 107.499 338.15 107.564 338.248Z" fill="#263238"/>
<path d="M107.368 337.571C107.368 337.693 107.042 337.791 106.617 337.799C106.193 337.807 105.858 337.709 105.866 337.595C105.874 337.481 106.209 337.375 106.617 337.367C107.025 337.359 107.352 337.456 107.368 337.571Z" fill="#263238"/>
<path d="M138.113 338.134V331.156L125.601 331.066L125.495 341.513L126.271 341.57C129.723 341.79 143.843 342.223 146.153 341.505C148.732 340.705 138.113 338.134 138.113 338.134Z" fill="#BF3939"/>
<path d="M146.447 340.868C146.447 340.983 141.77 341.081 135.991 341.081C130.213 341.081 125.544 340.983 125.544 340.868C125.544 340.754 130.221 340.656 135.991 340.656C141.762 340.656 146.447 340.754 146.447 340.868Z" fill="#263238"/>
<path d="M138.334 339.562C138.236 339.505 138.334 339.138 138.587 338.746C138.84 338.355 139.183 338.191 139.264 338.273C139.346 338.355 139.175 338.665 138.93 338.999C138.685 339.334 138.44 339.62 138.334 339.562Z" fill="#263238"/>
<path d="M139.134 340.019C139.028 340.019 139.077 339.562 139.33 339.13C139.583 338.697 139.901 338.436 139.991 338.501C140.08 338.566 139.925 338.934 139.697 339.317C139.468 339.701 139.248 340.06 139.134 340.019Z" fill="#263238"/>
<path d="M129.307 340.819C129.258 340.819 129.078 340.672 128.801 340.362C128.472 339.963 128.106 339.597 127.707 339.268C127.315 338.955 126.848 338.75 126.352 338.673C125.977 338.624 125.724 338.673 125.699 338.624C125.675 338.575 125.912 338.403 126.36 338.371C126.953 338.358 127.531 338.555 127.993 338.926C128.428 339.276 128.793 339.705 129.07 340.191C129.258 340.55 129.356 340.787 129.307 340.819Z" fill="#263238"/>
<path d="M138.375 338.248C138.432 338.346 138.22 338.591 137.861 338.722C137.501 338.852 137.183 338.803 137.167 338.722C137.15 338.64 137.403 338.469 137.714 338.354C138.024 338.24 138.309 338.15 138.375 338.248Z" fill="#263238"/>
<path d="M138.195 337.571C138.195 337.693 137.869 337.791 137.444 337.799C137.02 337.807 136.693 337.709 136.701 337.595C136.71 337.481 137.036 337.375 137.444 337.367C137.852 337.359 138.195 337.456 138.195 337.571Z" fill="#263238"/>
<path d="M184.211 130.907C183.885 130.572 183.077 130.735 183.077 130.735C183.158 130.266 183.158 129.785 183.077 129.315C182.93 128.858 181.901 128.948 181.901 128.948C181.854 128.563 181.854 128.174 181.901 127.789C181.91 127.704 181.891 127.618 181.849 127.543C181.807 127.469 181.742 127.409 181.665 127.373C181.178 127.174 180.656 127.08 180.13 127.095C179.502 126.646 182.048 123.08 182.995 121.937C183.942 120.794 183.77 119.905 182.93 119.905C182.35 119.905 179.379 123.333 178.465 124.484C177.551 125.634 175.127 128.834 175.046 126.279C174.964 123.724 173.936 121.798 173.291 121.472C172.646 121.145 171.96 121.913 172.311 122.623C172.62 123.429 172.812 124.276 172.883 125.136C172.971 125.822 172.941 126.518 172.793 127.193C172.522 128.45 172.154 129.683 171.691 130.882H171.626C171.626 130.882 153.817 147.965 152.527 149.181C151.376 150.275 128.23 147.883 123.586 147.394C122.007 147.163 120.414 147.054 118.819 147.067C116.803 147.157 116.444 147.443 114.436 147.467C109.366 147.523 104.307 147.968 99.3042 148.797C97.0391 149.183 94.9232 150.182 93.1874 151.688C91.4516 153.193 90.1626 155.147 89.4611 157.335C84.7844 171.944 74.1905 206.526 72.3214 225.951C70.9091 228.512 69.634 231.146 68.5017 233.843C67.1877 237.418 67.506 237.54 67.9467 237.622C69.1383 237.842 70.4932 231.427 70.9992 232.978C71.5052 234.529 68.4283 240.626 69.677 240.805C71.3094 241.034 72.6071 234.276 72.7622 233.737C72.9172 233.198 73.7252 233.37 73.5783 233.876C73.3416 234.594 71.0482 242.209 72.6479 242.454C73.5294 242.584 73.6273 240.977 73.6273 240.977C73.6273 240.977 75.2597 233.688 76.0024 233.835C76.7451 233.982 75.9534 238.283 75.578 239.72C75.2025 241.156 75.7249 241.883 76.4921 241.532C77.0144 241.287 78.2632 236.92 78.606 235.5C78.9488 234.08 79.8058 230.146 80.9566 232.423C82.1074 234.7 83.854 236.022 84.5722 236.055C84.7341 236.036 84.8866 235.97 85.0103 235.864C85.1339 235.757 85.223 235.617 85.266 235.46C85.309 235.303 85.304 235.136 85.2516 234.982C85.1993 234.828 85.1019 234.693 84.9722 234.594C84.3544 233.991 83.8242 233.304 83.3969 232.554C83.0162 231.969 82.74 231.323 82.5808 230.644C82.2519 229.29 82.0605 227.906 82.0094 226.514L81.8789 225.698C83.7071 216.646 88.9714 190.08 96.57 173.111L99.6879 179.527L101.043 184.277L92.734 204.787L128.172 204.322L122.884 183.967L129.307 162.746C136.253 162.901 154.086 163.162 157.057 161.815C160.795 160.183 180.13 135.763 180.13 135.763C181.391 134.784 182.598 133.738 183.746 132.629C183.746 132.629 184.921 131.641 184.211 130.907Z" fill="#FFBE9D"/>
<path d="M91.1751 189.631C92.2035 186.121 97.4842 168.769 97.4842 168.769C97.4842 168.769 100.08 182.914 99.394 184.619C98.7634 186.08 98.0183 187.488 97.1658 188.831C91.1751 197.948 91.9586 202.51 91.9586 202.51L128.156 201.408C128.238 196.348 125.242 184.579 124.622 182.701C124.002 180.824 126.067 174.678 126.067 174.678C126.067 174.678 130.148 170.524 130.001 168.386C129.923 166.465 129.686 164.554 129.291 162.672L151.327 163.489L150.634 148.553L118.982 145.386C117.88 148.495 107.915 146.969 107.915 146.969C97.1577 147.328 96.4884 149.303 92.0158 152.78C87.5431 156.257 80.1404 186.097 80.1404 186.097L91.1751 189.631Z" fill="#BF3939"/>
<path d="M112.575 186.097C111.948 186.209 111.309 186.242 110.674 186.194C109.49 186.194 107.866 186.113 106.078 185.933C104.291 185.754 102.675 185.501 101.524 185.272C100.89 185.19 100.267 185.032 99.6715 184.799C100.31 184.799 100.946 184.859 101.573 184.978C102.732 185.125 104.34 185.329 106.119 185.509C107.899 185.688 109.515 185.811 110.682 185.893C111.318 185.901 111.952 185.969 112.575 186.097Z" fill="#263238"/>
<path d="M115.056 183.02C114.429 183.327 113.765 183.555 113.081 183.697C109.825 184.553 106.466 184.951 103.099 184.88C102.403 184.903 101.706 184.837 101.026 184.685C101.714 184.598 102.407 184.562 103.099 184.578C104.381 184.538 106.144 184.448 108.086 184.219C110.029 183.991 111.759 183.664 112.983 183.403C113.663 183.222 114.356 183.093 115.056 183.02Z" fill="#263238"/>
<path d="M127.234 169.292C127.217 169.914 127.132 170.532 126.981 171.136C126.769 172.271 126.442 173.821 126.026 175.519C125.61 177.217 125.21 178.784 124.851 179.845C124.706 180.452 124.493 181.041 124.214 181.599C124.259 180.979 124.374 180.366 124.557 179.771C124.867 178.498 125.218 177.029 125.61 175.421C126.001 173.813 126.377 172.344 126.687 171.071C126.797 170.458 126.981 169.861 127.234 169.292Z" fill="#263238"/>
<path d="M91.5587 187.549C89.6706 187.258 87.8071 186.824 85.9843 186.252C84.1216 185.816 82.2938 185.243 80.5159 184.538C82.4031 184.834 84.2663 185.268 86.0904 185.835C87.9534 186.269 89.7813 186.842 91.5587 187.549Z" fill="#263238"/>
<path d="M129.682 162.493C129.375 162.546 129.06 162.546 128.752 162.493C127.899 162.406 127.062 162.205 126.263 161.897C124.927 161.395 123.712 160.62 122.694 159.621C121.677 158.621 120.879 157.42 120.353 156.094C119.772 154.636 119.524 153.066 119.627 151.499C119.663 150.207 120.05 148.949 120.745 147.859C121.234 147.125 121.965 146.585 122.81 146.333C123.036 146.27 123.27 146.24 123.504 146.243C123.667 146.243 123.749 146.243 123.749 146.243C123.749 146.243 123.406 146.243 122.859 146.463C122.084 146.75 121.426 147.287 120.99 147.989C119.88 149.736 119.57 152.927 120.753 155.906C121.304 157.311 122.167 158.572 123.275 159.596C124.184 160.433 125.231 161.106 126.369 161.587C127.437 162.009 128.548 162.313 129.682 162.493Z" fill="#263238"/>
<path d="M148.707 163.194C148.503 160.692 148.438 158.179 148.512 155.669C148.448 153.161 148.524 150.652 148.74 148.152C148.944 150.652 149.01 153.162 148.936 155.669C149.005 158.18 148.928 160.693 148.707 163.194Z" fill="#263238"/>
<path d="M118.77 146.3C118.86 144.48 119.048 142.423 119.048 142.423C119.048 142.423 123.553 141.925 123.822 137.273C124.092 132.621 123.822 121.888 123.822 121.888L115.66 117.709L106.601 124.834L107.996 148.095L116.305 148.626C116.94 148.643 117.556 148.408 118.018 147.972C118.481 147.536 118.751 146.935 118.77 146.3Z" fill="#FFBE9D"/>
<path d="M119.578 133.592C119.578 133.592 119.578 133.682 119.505 133.788C119.444 133.865 119.365 133.926 119.276 133.966C119.186 134.005 119.088 134.023 118.99 134.016C118.468 134.016 117.962 133.412 117.783 132.71C117.697 132.37 117.697 132.014 117.783 131.674C117.799 131.525 117.853 131.383 117.938 131.261C118.024 131.138 118.139 131.039 118.272 130.972C118.382 130.927 118.505 130.927 118.615 130.972C118.696 131.012 118.762 131.078 118.803 131.16C118.86 131.298 118.803 131.388 118.803 131.38C118.803 131.372 118.803 131.298 118.721 131.217C118.678 131.158 118.616 131.118 118.545 131.103C118.474 131.088 118.4 131.099 118.338 131.135C118.237 131.196 118.154 131.281 118.096 131.382C118.037 131.483 118.005 131.598 118.003 131.715C117.934 132.018 117.934 132.333 118.003 132.637C118.166 133.274 118.607 133.788 118.999 133.837C119.075 133.847 119.153 133.842 119.228 133.821C119.302 133.8 119.371 133.763 119.431 133.714C119.529 133.649 119.562 133.584 119.578 133.592Z" fill="#EB996E"/>
<path d="M126.622 119.374C125.993 117.236 123.716 116.175 121.643 115.587C118.484 114.689 115.073 114.297 111.988 115.432C108.902 116.566 105.197 118.558 105.197 121.961C103.377 121.814 102.332 123.406 101.614 125.381C101.155 126.585 100.88 127.85 100.798 129.136C100.569 133.592 99.3205 139.746 96.4312 143.011C94.7989 144.831 92.5381 146.088 91.6076 148.357C90.7915 150.324 91.2159 152.658 90.4568 154.649C89.7794 156.404 88.2858 157.653 87.1921 159.179C86.0779 160.91 85.4221 162.897 85.2865 164.951C85.1509 167.006 85.5398 169.061 86.4167 170.924C87.3 172.739 88.5435 174.355 90.0716 175.674C91.5996 176.993 93.3802 177.987 95.3049 178.596C99.1173 179.756 103.183 179.795 107.017 178.71C109.895 178.022 112.579 176.691 114.869 174.817C117.211 172.904 118.82 170.24 119.423 167.276C120.002 163.946 119.072 160.558 118.378 157.245C116.207 146.773 116.828 146.226 119.57 136.506C119.635 136.334 119.668 136.155 119.717 135.983C119.766 135.812 119.79 135.73 119.823 135.6C119.901 135.215 119.942 134.825 119.945 134.433C119.545 134.582 119.11 134.613 118.692 134.523C118.274 134.434 117.891 134.227 117.587 133.927C117.282 133.607 117.069 133.21 116.971 132.779C116.874 132.348 116.894 131.898 117.032 131.478C117.224 131.018 117.511 130.604 117.874 130.263C118.237 129.921 118.667 129.659 119.137 129.495C120.043 129.119 121.015 128.923 121.904 128.507C123.79 127.609 125.095 125.748 125.985 123.798C126.716 122.446 126.942 120.877 126.622 119.374Z" fill="#263238"/>
<path d="M119.905 133.812C120.077 134.067 120.219 134.341 120.329 134.629C120.574 135.143 120.9 135.869 121.259 136.71L121.325 136.865H121.153L120.337 136.938C119.774 136.938 119.301 137.045 118.746 137.036C118.697 137.026 118.652 137.003 118.615 136.97C118.578 136.937 118.55 136.895 118.533 136.849C118.509 136.774 118.509 136.694 118.533 136.62C118.552 136.51 118.577 136.401 118.607 136.294L118.754 135.714C118.828 135.328 118.942 134.95 119.097 134.588C119.081 134.982 119.024 135.373 118.925 135.755L118.811 136.334C118.77 136.53 118.697 136.832 118.811 136.808C119.219 136.808 119.798 136.718 120.337 136.685L121.153 136.612L121.047 136.792C120.696 135.975 120.402 135.208 120.231 134.678C120.081 134.407 119.971 134.115 119.905 133.812Z" fill="#BF3939"/>
<path d="M91.9586 202.51L128.156 201.408L143.908 262.899L141.011 333.433H121.872L124.214 264.401L110.217 221.592L112.371 336.167L93.0278 336.453L90.9955 228.758C90.9057 225.763 89.9263 219.013 90.2936 216.042L91.9586 202.51Z" fill="#263238"/>
<path d="M115.032 222.465C114.44 222.503 113.845 222.467 113.261 222.359C112.167 222.229 110.674 222 109.033 221.674C107.393 221.347 105.923 220.972 104.862 220.67C104.295 220.545 103.747 220.348 103.23 220.082C103.23 219.96 105.891 220.596 109.156 221.257C112.42 221.919 115.048 222.343 115.032 222.465Z" fill="#455A64"/>
<path d="M140.815 329.564C140.815 329.679 136.481 329.776 131.135 329.776C125.789 329.776 121.447 329.679 121.447 329.564C121.447 329.45 125.781 329.352 131.135 329.352C136.489 329.352 140.815 329.442 140.815 329.564Z" fill="#455A64"/>
<path d="M112.2 333.188C112.2 333.311 107.988 333.401 102.798 333.401C97.6066 333.401 93.4033 333.311 93.4033 333.188C93.4033 333.066 97.6148 332.976 102.798 332.976C107.98 332.976 112.2 333.074 112.2 333.188Z" fill="#455A64"/>
<path d="M109.702 332.894C109.588 332.894 109.082 307.862 108.568 276.986C108.054 246.11 107.752 221.062 107.858 221.062C107.964 221.062 108.486 246.086 108.992 276.978C109.498 307.87 109.825 332.894 109.702 332.894Z" fill="#455A64"/>
<path d="M138.244 329.564C138.235 329.453 138.235 329.341 138.244 329.229V328.25C138.244 327.369 138.309 326.104 138.358 324.496C138.473 321.231 138.636 316.489 138.84 310.678C139.281 298.99 139.901 282.879 140.578 265.094C140.578 264.923 140.578 264.76 140.578 264.613V264.67C136.293 247.53 132.417 231.974 129.601 220.719L126.336 207.407C125.961 205.848 125.675 204.632 125.471 203.783C125.373 203.383 125.308 203.073 125.25 202.836C125.219 202.73 125.2 202.62 125.193 202.51C125.236 202.613 125.269 202.719 125.291 202.828C125.357 203.057 125.438 203.367 125.552 203.759C125.773 204.575 126.091 205.815 126.499 207.366C127.315 210.516 128.466 215.054 129.903 220.645C132.743 231.892 136.661 247.408 141.003 264.572V264.629C141.003 264.776 141.003 264.947 141.003 265.111C140.276 282.895 139.615 298.998 139.134 310.686C138.881 316.505 138.668 321.215 138.522 324.496C138.44 326.128 138.375 327.369 138.334 328.25C138.334 328.666 138.285 328.993 138.277 329.229C138.278 329.342 138.267 329.454 138.244 329.564Z" fill="#455A64"/>
<path d="M132 263.176C130.626 263.628 129.209 263.943 127.772 264.115C126.01 264.417 124.508 264.629 123.83 264.662V264.498C124.051 264.564 124.165 264.605 124.165 264.637C124.165 264.67 124.026 264.637 123.798 264.637H123.308L123.798 264.49C124.434 264.303 125.936 263.992 127.699 263.674C129.113 263.367 130.554 263.201 132 263.176Z" fill="#455A64"/>
<path d="M131.666 265.519C130.393 265.577 129.117 265.52 127.854 265.347C126.579 265.321 125.309 265.182 124.059 264.931C126.61 264.723 129.177 264.921 131.666 265.519Z" fill="#455A64"/>
<path opacity="0.2" d="M91.8036 203.808C92.2323 204.358 92.7722 204.812 93.3882 205.14C94.0042 205.467 94.6824 205.662 95.3784 205.709C96.8363 205.882 98.3109 205.855 99.7613 205.628C109.107 204.591 119.007 203.636 128.156 201.408C116.313 202.069 103.801 201.849 91.9587 202.51L91.8362 203.522" fill="black"/>
<g opacity="0.2">
<path opacity="0.2" d="M104.005 220.499L110.682 246.404L110.216 221.592L104.005 220.499Z" fill="black"/>
</g>
</svg>
