<svg width="180" height="31" viewBox="0 0 180 31" fill="none" xmlns="http://www.w3.org/2000/svg">
<path d="M76.792 8.176C79.288 8.176 81.2 8.624 82.528 9.52C83.856 10.4 84.52 11.776 84.52 13.648C84.52 14.816 84.248 15.768 83.704 16.504C83.176 17.224 82.408 17.792 81.4 18.208C81.736 18.624 82.088 19.104 82.456 19.648C82.824 20.176 83.184 20.736 83.536 21.328C83.904 21.904 84.256 22.512 84.592 23.152C84.928 23.776 85.24 24.392 85.528 25H81.328C81.024 24.456 80.712 23.904 80.392 23.344C80.088 22.784 79.768 22.24 79.432 21.712C79.112 21.184 78.792 20.688 78.472 20.224C78.152 19.744 77.832 19.312 77.512 18.928H75.664V25H71.92V8.608C72.736 8.448 73.576 8.336 74.44 8.272C75.32 8.208 76.104 8.176 76.792 8.176ZM77.008 11.368C76.736 11.368 76.488 11.376 76.264 11.392C76.056 11.408 75.856 11.424 75.664 11.44V15.952H76.72C78.128 15.952 79.136 15.776 79.744 15.424C80.352 15.072 80.656 14.472 80.656 13.624C80.656 12.808 80.344 12.232 79.72 11.896C79.112 11.544 78.208 11.368 77.008 11.368ZM86.4784 18.784C86.4784 17.664 86.6464 16.688 86.9824 15.856C87.3344 15.008 87.7904 14.304 88.3504 13.744C88.9104 13.184 89.5504 12.76 90.2704 12.472C91.0064 12.184 91.7584 12.04 92.5264 12.04C94.3184 12.04 95.7344 12.592 96.7744 13.696C97.8144 14.784 98.3344 16.392 98.3344 18.52C98.3344 18.728 98.3264 18.96 98.3104 19.216C98.2944 19.456 98.2784 19.672 98.2624 19.864H90.1504C90.2304 20.6 90.5744 21.184 91.1824 21.616C91.7904 22.048 92.6064 22.264 93.6304 22.264C94.2864 22.264 94.9264 22.208 95.5504 22.096C96.1904 21.968 96.7104 21.816 97.1104 21.64L97.5904 24.544C97.3984 24.64 97.1424 24.736 96.8224 24.832C96.5024 24.928 96.1424 25.008 95.7424 25.072C95.3584 25.152 94.9424 25.216 94.4944 25.264C94.0464 25.312 93.5984 25.336 93.1504 25.336C92.0144 25.336 91.0224 25.168 90.1744 24.832C89.3424 24.496 88.6464 24.04 88.0864 23.464C87.5424 22.872 87.1344 22.176 86.8624 21.376C86.6064 20.576 86.4784 19.712 86.4784 18.784ZM94.8784 17.416C94.8624 17.112 94.8064 16.816 94.7104 16.528C94.6304 16.24 94.4944 15.984 94.3024 15.76C94.1264 15.536 93.8944 15.352 93.6064 15.208C93.3344 15.064 92.9904 14.992 92.5744 14.992C92.1744 14.992 91.8304 15.064 91.5424 15.208C91.2544 15.336 91.0144 15.512 90.8224 15.736C90.6304 15.96 90.4784 16.224 90.3664 16.528C90.2704 16.816 90.1984 17.112 90.1504 17.416H94.8784ZM104.142 18.592C104.142 19.696 104.39 20.584 104.886 21.256C105.382 21.928 106.118 22.264 107.094 22.264C107.414 22.264 107.71 22.256 107.982 22.24C108.254 22.208 108.478 22.176 108.654 22.144V15.64C108.43 15.496 108.134 15.376 107.766 15.28C107.414 15.184 107.054 15.136 106.686 15.136C104.99 15.136 104.142 16.288 104.142 18.592ZM112.23 24.592C111.91 24.688 111.542 24.784 111.126 24.88C110.71 24.96 110.27 25.032 109.806 25.096C109.358 25.16 108.894 25.208 108.414 25.24C107.95 25.288 107.502 25.312 107.07 25.312C106.03 25.312 105.102 25.16 104.286 24.856C103.47 24.552 102.782 24.12 102.222 23.56C101.662 22.984 101.23 22.296 100.926 21.496C100.638 20.68 100.494 19.768 100.494 18.76C100.494 17.736 100.622 16.816 100.878 16C101.134 15.168 101.502 14.464 101.982 13.888C102.462 13.312 103.046 12.872 103.734 12.568C104.438 12.264 105.238 12.112 106.134 12.112C106.63 12.112 107.07 12.16 107.454 12.256C107.854 12.352 108.254 12.488 108.654 12.664V6.952L112.23 6.376V24.592ZM132.696 21.784V25H121.584V8.368H125.328V21.784H132.696ZM138.444 25H134.868V12.376H138.444V25ZM138.78 8.728C138.78 9.384 138.564 9.904 138.132 10.288C137.716 10.656 137.22 10.84 136.644 10.84C136.068 10.84 135.564 10.656 135.132 10.288C134.716 9.904 134.508 9.384 134.508 8.728C134.508 8.072 134.716 7.56 135.132 7.192C135.564 6.808 136.068 6.616 136.644 6.616C137.22 6.616 137.716 6.808 138.132 7.192C138.564 7.56 138.78 8.072 138.78 8.728ZM144.853 18.28C144.853 20.28 145.661 21.28 147.277 21.28C147.645 21.28 147.989 21.232 148.309 21.136C148.629 21.04 148.901 20.928 149.125 20.8V15.088C148.949 15.056 148.741 15.032 148.501 15.016C148.261 14.984 147.981 14.968 147.661 14.968C146.717 14.968 146.013 15.28 145.549 15.904C145.085 16.528 144.853 17.32 144.853 18.28ZM152.701 23.416C152.701 25.48 152.173 27.008 151.117 28C150.077 29.008 148.461 29.512 146.269 29.512C145.501 29.512 144.733 29.44 143.965 29.296C143.197 29.168 142.485 28.992 141.829 28.768L142.453 25.768C143.013 25.992 143.597 26.168 144.205 26.296C144.829 26.424 145.533 26.488 146.317 26.488C147.341 26.488 148.061 26.264 148.477 25.816C148.909 25.368 149.125 24.792 149.125 24.088V23.632C148.741 23.808 148.341 23.944 147.925 24.04C147.525 24.12 147.085 24.16 146.605 24.16C144.861 24.16 143.525 23.648 142.597 22.624C141.669 21.584 141.205 20.136 141.205 18.28C141.205 17.352 141.349 16.512 141.637 15.76C141.925 14.992 142.341 14.336 142.885 13.792C143.445 13.248 144.125 12.832 144.925 12.544C145.725 12.24 146.629 12.088 147.637 12.088C148.069 12.088 148.509 12.112 148.957 12.16C149.421 12.192 149.877 12.24 150.325 12.304C150.773 12.368 151.197 12.448 151.597 12.544C152.013 12.624 152.381 12.712 152.701 12.808V23.416ZM156.055 25V6.952L159.631 6.376V12.424C159.871 12.344 160.175 12.272 160.543 12.208C160.927 12.128 161.295 12.088 161.647 12.088C162.671 12.088 163.519 12.232 164.191 12.52C164.879 12.792 165.423 13.184 165.823 13.696C166.239 14.208 166.527 14.816 166.687 15.52C166.863 16.224 166.951 17.008 166.951 17.872V25H163.375V18.304C163.375 17.152 163.223 16.336 162.919 15.856C162.631 15.376 162.087 15.136 161.287 15.136C160.967 15.136 160.663 15.168 160.375 15.232C160.103 15.28 159.855 15.336 159.631 15.4V25H156.055ZM170.068 9.232L173.644 8.656V12.376H177.94V15.352H173.644V19.792C173.644 20.544 173.772 21.144 174.028 21.592C174.3 22.04 174.836 22.264 175.636 22.264C176.02 22.264 176.412 22.232 176.812 22.168C177.228 22.088 177.604 21.984 177.94 21.856L178.444 24.64C178.012 24.816 177.532 24.968 177.004 25.096C176.476 25.224 175.828 25.288 175.06 25.288C174.084 25.288 173.276 25.16 172.636 24.904C171.996 24.632 171.484 24.264 171.1 23.8C170.716 23.32 170.444 22.744 170.284 22.072C170.14 21.4 170.068 20.656 170.068 19.84V9.232Z" fill="#ED5353"/>
<path d="M4.3036 13.2706C1.92679 11.0806 1.77537 7.37839 3.96541 5.00158L8.57381 0.000156538L17.181 7.93098L12.5726 12.9324C10.3826 15.3092 6.68041 15.4606 4.3036 13.2706Z" fill="#ED5353"/>
<rect x="10" y="26" width="23" height="11" transform="rotate(-90 10 26)" fill="#ED5353"/>
<rect x="29" y="26" width="23" height="10" transform="rotate(-90 29 26)" fill="#ED5353"/>
<path d="M44.7214 13.1148C47.0531 10.9663 47.2017 7.33437 45.0532 5.00265L40.4438 0.000203168L31.9999 7.78058L36.6092 12.783C38.7577 15.1148 42.3897 15.2633 44.7214 13.1148Z" fill="#ED5353"/>
<rect width="33" height="11" rx="1" transform="matrix(-1 8.74228e-08 8.74228e-08 1 41 0)" fill="#ED5353"/>
<rect width="33" height="3" transform="matrix(-1 8.74228e-08 8.74228e-08 1 41 28)" fill="#ED5353"/>
</svg>
