<svg width="349" height="324" viewBox="0 0 349 324" fill="none" xmlns="http://www.w3.org/2000/svg">
<path d="M298.513 5.20471H192.318V195.982H298.513V5.20471Z" fill="#EBEBEB"/>
<path d="M293.18 10.7343H196.564V190.294H293.18V10.7343Z" fill="#FAFAFA"/>
<path d="M293.18 12.8494L196.564 135.746V10.7343H293.18V12.8494Z" fill="#F5F5F5"/>
<path d="M295.28 62.3888H196.564V64.3H295.28V62.3888Z" fill="#EBEBEB"/>
<path d="M295.28 105.145H196.564V107.056H295.28V105.145Z" fill="#EBEBEB"/>
<path d="M295.28 147.908H196.564V149.819H295.28V147.908Z" fill="#EBEBEB"/>
<path d="M242.432 63.3481V195.385H247.312V63.3481H242.432Z" fill="#EBEBEB"/>
<path d="M217.382 10.7343H215.169V63.3406H217.382V10.7343Z" fill="#EBEBEB"/>
<path d="M236.449 10.7343H234.236V63.3406H236.449V10.7343Z" fill="#EBEBEB"/>
<path d="M255.523 10.7343H253.31V63.3406H255.523V10.7343Z" fill="#EBEBEB"/>
<path d="M274.597 10.7343H272.383V63.3406H274.597V10.7343Z" fill="#EBEBEB"/>
<path d="M192.318 1.96405H187.824V197.153H192.318V1.96405Z" fill="#F5F5F5"/>
<path d="M303.008 197.697L298.513 195.974V1.96405H303.008V197.697Z" fill="#E0E0E0"/>
<path d="M303 0H187.824V5.20473H303V0Z" fill="#E0E0E0"/>
<path d="M306.052 198.339H184.643V203.188H306.052V198.339Z" fill="#E0E0E0"/>
<path d="M298.513 195.974L306.044 198.339H184.643L192.318 195.974H298.513Z" fill="#EBEBEB"/>
<path d="M192.673 321.462C205.341 313.855 209.171 298.369 209.67 284.243C209.753 281.886 210.183 279.424 209.209 277.286C208.235 275.148 205.719 273.554 203.543 274.4C201.738 275.095 200.839 277.074 199.766 278.691C198.307 280.841 196.27 282.535 193.889 283.579C192.333 284.251 190.445 284.598 189.025 283.677C187.076 282.423 187.03 279.598 187.204 277.263C187.536 272.907 187.866 268.549 188.194 264.187C188.497 261.859 188.421 259.496 187.967 257.192C187.393 254.926 185.935 252.743 183.752 251.965C181.569 251.187 178.728 252.282 178.094 254.541C177.941 255.503 177.853 256.475 177.83 257.449C177.694 258.416 177.172 259.458 176.228 259.662C175.284 259.866 174.385 259.149 173.735 258.416C171.469 255.885 170.056 252.728 168.734 249.593C167.413 246.458 166.136 243.263 164.127 240.528C162.117 237.794 159.224 235.542 155.885 235.119C152.546 234.696 148.837 236.524 147.764 239.75C146.692 242.976 148.376 246.473 150.288 249.283C153.117 253.463 156.537 257.211 160.44 260.41C161.211 260.906 161.802 261.637 162.125 262.495C162.525 264.089 160.939 265.517 159.367 265.94C157.577 266.401 155.704 266.091 153.861 266.174C152.017 266.257 149.993 266.929 149.185 268.606C148.059 270.933 149.887 273.577 151.738 275.36C155.451 278.92 159.749 281.815 164.444 283.918C166.128 284.674 167.896 285.346 169.203 286.645C170.51 287.945 171.197 290.113 170.245 291.707C169.293 293.301 167.103 293.671 165.32 293.217C163.537 292.764 161.996 291.669 160.327 290.898C157.192 289.463 153.03 289.388 150.779 292.031C150.085 292.944 149.611 294.004 149.395 295.13C149.178 296.255 149.225 297.416 149.532 298.52C150.164 300.727 151.235 302.782 152.682 304.564C157.351 311.041 163.657 316.161 170.955 319.4C178.23 322.497 185.097 323.675 192.696 321.477" fill="#F5F5F5"/>
<path d="M190.377 322.142C190.248 316.522 191.238 319.634 189.621 312.382C187.816 304.544 185.562 296.816 182.868 289.236C182.158 287.222 181.463 285.228 180.783 283.254C180.096 281.297 179.408 279.356 178.63 277.497C177.115 273.928 175.403 270.445 173.501 267.065C171.711 263.825 169.898 260.818 168.213 258.001C166.529 255.183 164.837 252.622 163.22 250.341C160.7 246.72 157.893 243.307 154.828 240.135C153.747 239.01 152.879 238.171 152.282 237.605L151.602 236.97C151.527 236.895 151.446 236.827 151.36 236.766C151.422 236.851 151.493 236.93 151.572 237L152.221 237.665C152.795 238.254 153.642 239.115 154.707 240.256C157.715 243.463 160.478 246.892 162.971 250.514C164.565 252.781 166.204 255.387 167.911 258.189C169.618 260.992 171.416 264.006 173.199 267.254C175.078 270.627 176.773 274.099 178.275 277.656C179.031 279.507 179.726 281.433 180.413 283.397L182.498 289.372C185.191 296.935 187.461 304.642 189.297 312.458C190.906 319.687 189.946 316.544 190.105 322.142" fill="#E0E0E0"/>
<path d="M178.525 277.467C178.663 277.153 178.764 276.823 178.827 276.485C178.993 275.851 179.204 274.922 179.446 273.766C179.945 271.454 180.511 268.251 181.131 264.701C181.75 261.151 182.362 257.97 182.883 255.674C183.148 254.533 183.367 253.604 183.525 252.962C183.627 252.635 183.695 252.298 183.729 251.957C183.571 252.262 183.45 252.584 183.367 252.917C183.155 253.544 182.891 254.427 182.611 255.606C182.007 257.872 181.342 261.083 180.73 264.625C180.118 268.168 179.59 271.281 179.174 273.69C178.978 274.778 178.812 275.7 178.683 276.432C178.592 276.77 178.539 277.118 178.525 277.467Z" fill="#E0E0E0"/>
<path d="M148.837 269.8C149.227 269.915 149.626 269.991 150.031 270.027C150.786 270.147 151.904 270.321 153.271 270.578C156.006 271.061 159.76 271.87 163.847 272.942C167.934 274.015 171.62 275.156 174.249 276.055C175.571 276.493 176.628 276.878 177.361 277.135C177.731 277.295 178.116 277.419 178.509 277.505C178.164 277.295 177.8 277.118 177.422 276.976C176.704 276.667 175.662 276.221 174.347 275.76C171.733 274.786 168.07 273.6 163.953 272.519C160.445 271.586 156.893 270.829 153.309 270.253C151.927 270.042 150.809 269.913 150.031 269.845C149.635 269.793 149.236 269.777 148.837 269.8Z" fill="#E0E0E0"/>
<path d="M189.312 311.8C189.406 311.694 189.485 311.574 189.546 311.445L190.135 310.395C190.641 309.481 191.344 308.129 192.19 306.46C193.874 303.113 196.065 298.422 198.414 293.21C200.764 287.998 202.901 283.284 204.518 279.907L206.444 275.919L206.965 274.831C207.036 274.706 207.087 274.571 207.117 274.431C207.031 274.543 206.956 274.661 206.89 274.786L206.301 275.836C205.787 276.757 205.092 278.102 204.246 279.771C202.554 283.118 200.363 287.816 198.021 293.029C195.68 298.241 193.534 302.947 191.918 306.324L189.984 310.32L189.47 311.408C189.4 311.531 189.347 311.663 189.312 311.8Z" fill="#E0E0E0"/>
<path d="M150.235 296.148C150.353 296.229 150.483 296.293 150.62 296.337L151.753 296.813L155.908 298.505C159.443 299.933 164.3 301.95 169.664 304.193C175.027 306.437 179.907 308.409 183.472 309.761C185.255 310.433 186.698 310.969 187.703 311.317L188.866 311.71C188.999 311.763 189.139 311.799 189.281 311.816C189.162 311.736 189.032 311.673 188.896 311.627L187.763 311.158L183.578 309.474C180.05 308.046 175.193 306.029 169.822 303.786C164.451 301.542 159.587 299.57 156.021 298.218C154.238 297.546 152.795 297.01 151.783 296.67L150.62 296.239C150.496 296.192 150.366 296.162 150.235 296.148Z" fill="#E0E0E0"/>
<path d="M133.412 28.9773H104.85V38.1706H133.412V28.9773Z" fill="#F5F5F5"/>
<path d="M160.198 47.3638H131.637V56.557H160.198V47.3638Z" fill="#FAFAFA"/>
<path d="M144.252 47.3638C144.246 47.306 144.246 47.2478 144.252 47.19V46.7141C144.252 46.2684 144.252 45.6641 144.252 44.8936C144.252 43.2921 144.214 41.0108 144.184 38.1705L144.312 38.2989L116.362 38.3669C116.445 38.2763 116.158 38.5633 116.551 38.1705V47.3638L116.355 47.1749L136.267 47.258L142.137 47.3109H143.716H144.282C144.111 47.3215 143.939 47.3215 143.768 47.3109H142.258L136.441 47.3638L116.34 47.4544H116.151V42.7709C116.151 42.0155 116.151 41.2601 116.151 40.4443V38.1856C116.544 37.7928 116.264 38.0723 116.355 37.9892L144.305 38.0572H144.433V38.1856C144.433 41.0637 144.38 43.3677 144.365 44.9843C144.365 45.7397 144.365 46.3364 144.365 46.7746C144.365 47.2127 144.259 47.3713 144.252 47.3638Z" fill="#E0E0E0"/>
<path d="M338.927 107.456H310.365V116.649H338.927V107.456Z" fill="#FAFAFA"/>
<path d="M348.536 107.222C348.53 107.164 348.53 107.106 348.536 107.048C348.536 106.92 348.536 106.761 348.536 106.572C348.536 106.127 348.536 105.522 348.536 104.752C348.536 103.15 348.498 100.877 348.468 98.0287L348.596 98.1572L320.646 98.2251C320.729 98.1345 320.442 98.4216 320.835 98.0287V107.207L320.639 107.018L340.604 107.101L346.466 107.162H348.052H348.619C348.445 107.172 348.271 107.172 348.098 107.162H346.587L340.77 107.214L320.586 107.388H320.397V102.712C320.397 101.957 320.397 101.164 320.397 100.378V98.0212C320.79 97.6284 320.51 97.9079 320.601 97.8248L348.551 97.8928H348.679V98.0212C348.679 100.899 348.626 103.203 348.611 104.82C348.611 105.575 348.611 106.172 348.611 106.61C348.611 107.048 348.536 107.23 348.536 107.222Z" fill="#E0E0E0"/>
<path d="M326.908 210.984H298.347V220.178H326.908V210.984Z" fill="#F5F5F5"/>
<path d="M336.85 219.86H308.288V229.053H336.85V219.86Z" fill="#FAFAFA"/>
<path d="M318.712 238.073C318.706 238.018 318.706 237.962 318.712 237.907V237.423C318.712 236.978 318.712 236.373 318.712 235.603C318.712 234.001 318.675 231.728 318.644 228.88L318.773 229.008L290.823 229.076C290.906 228.993 290.619 229.273 291.012 228.88V238.073L290.815 237.884L310.781 237.975L316.642 238.028H318.229H318.795C318.622 238.037 318.448 238.037 318.274 238.028H316.763L310.947 238.081L290.845 238.171H290.657V233.488C290.657 232.732 290.657 231.939 290.657 231.153V228.797C291.049 228.404 290.77 228.691 290.861 228.6L318.81 228.668H318.939V228.797C318.939 231.675 318.886 233.979 318.871 235.595C318.871 236.351 318.871 236.955 318.871 237.393C318.871 237.831 318.72 238.111 318.712 238.073Z" fill="#E0E0E0"/>
<path d="M38.9033 86.4257H10.3415V95.619H38.9033V86.4257Z" fill="#FAFAFA"/>
<path d="M51.5261 86.4257C51.5261 86.4257 51.5261 86.3578 51.5261 86.252C51.5261 86.1462 51.5261 85.9649 51.5261 85.7761C51.5261 85.3304 51.5261 84.7185 51.5261 83.948C51.5261 82.3541 51.4808 80.0728 51.4505 77.2249L51.579 77.3534L23.629 77.4213L23.8254 77.2325V81.9311C23.8254 83.4419 23.8254 84.9527 23.8254 86.4257L23.6366 86.2293L43.6019 86.32L49.4638 86.3729H51.0502C51.2361 86.3556 51.4232 86.3556 51.6092 86.3729C51.4381 86.3839 51.2666 86.3839 51.0955 86.3729H49.5847L43.7681 86.4257L23.6744 86.5164H23.4855V86.3275C23.4855 84.8696 23.4855 83.3739 23.4855 81.8329V77.1343C23.8783 76.7339 23.5913 77.021 23.6819 76.9303L51.6318 76.9983H51.6621V77.1267C51.6621 80.0048 51.6016 82.3088 51.5865 83.9254C51.5865 84.6808 51.5865 85.2775 51.5865 85.7157C51.593 85.9539 51.5728 86.1921 51.5261 86.4257Z" fill="#E0E0E0"/>
<path d="M345.053 322.905C345.053 323.011 267.806 323.101 172.534 323.101C77.2627 323.101 0 323.011 0 322.905C0 322.799 77.2325 322.678 172.527 322.678C267.821 322.678 345.053 322.799 345.053 322.905Z" fill="#263238"/>
<path d="M317.202 284.749L316.189 303.453C316.17 303.774 316.03 304.075 315.797 304.297C315.565 304.518 315.257 304.643 314.935 304.647L281.282 304.896C280.947 304.896 280.626 304.765 280.387 304.53C280.149 304.296 280.011 303.977 280.005 303.642L279.9 289.078C279.9 288.743 280.032 288.421 280.269 288.183C280.505 287.945 280.826 287.811 281.161 287.809H301.859C302.193 287.805 302.513 287.673 302.751 287.439L306.324 283.866C306.558 283.63 306.876 283.497 307.208 283.495L315.932 283.435C316.104 283.433 316.273 283.466 316.431 283.531C316.589 283.597 316.732 283.695 316.851 283.818C316.97 283.941 317.062 284.087 317.123 284.247C317.183 284.408 317.21 284.578 317.202 284.749Z" fill="#BF3939"/>
<path opacity="0.3" d="M317.202 284.749L316.189 303.453C316.17 303.774 316.03 304.075 315.797 304.297C315.565 304.518 315.257 304.643 314.935 304.647L281.282 304.896C280.947 304.896 280.626 304.765 280.387 304.53C280.149 304.296 280.011 303.977 280.005 303.642L279.9 289.078C279.9 288.743 280.032 288.421 280.269 288.183C280.505 287.945 280.826 287.811 281.161 287.809H301.859C302.193 287.805 302.513 287.673 302.751 287.439L306.324 283.866C306.558 283.63 306.876 283.497 307.208 283.495L315.932 283.435C316.104 283.433 316.273 283.466 316.431 283.531C316.589 283.597 316.732 283.695 316.851 283.818C316.97 283.941 317.062 284.087 317.123 284.247C317.183 284.408 317.21 284.578 317.202 284.749Z" fill="black"/>
<path d="M280.036 307.582L316.808 307.312L316.647 285.338L279.875 285.608L280.036 307.582Z" fill="#F5F5F5"/>
<path d="M319.589 287.288L316.952 310.222C316.934 310.424 316.842 310.612 316.695 310.751C316.547 310.89 316.354 310.97 316.151 310.977L280.315 311.234C280.108 311.238 279.907 311.162 279.755 311.021C279.603 310.88 279.511 310.685 279.499 310.478L277.528 287.559C277.517 287.448 277.53 287.336 277.566 287.23C277.601 287.124 277.658 287.026 277.734 286.944C277.809 286.861 277.901 286.795 278.004 286.751C278.106 286.706 278.217 286.683 278.328 286.683L318.78 286.381C318.895 286.381 319.008 286.406 319.113 286.453C319.217 286.5 319.31 286.568 319.387 286.654C319.463 286.739 319.52 286.84 319.555 286.949C319.59 287.058 319.601 287.174 319.589 287.288Z" fill="#BF3939"/>
<path d="M327.105 281.222L326.093 299.925C326.074 300.246 325.934 300.548 325.701 300.769C325.468 300.991 325.16 301.116 324.839 301.119L291.185 301.361C291.02 301.363 290.855 301.332 290.702 301.27C290.548 301.209 290.408 301.118 290.289 301.002C290.17 300.886 290.076 300.748 290.011 300.596C289.945 300.444 289.911 300.28 289.909 300.114L289.803 285.55C289.802 285.384 289.834 285.219 289.897 285.065C289.96 284.911 290.053 284.771 290.17 284.653C290.287 284.535 290.427 284.442 290.58 284.378C290.734 284.314 290.898 284.281 291.065 284.281H311.763C312.096 284.283 312.416 284.152 312.654 283.918L316.227 280.345C316.461 280.11 316.779 279.977 317.111 279.975L325.836 279.915C326.006 279.914 326.175 279.947 326.332 280.013C326.489 280.079 326.631 280.175 326.749 280.297C326.868 280.42 326.96 280.564 327.022 280.723C327.083 280.882 327.111 281.052 327.105 281.222Z" fill="#BF3939"/>
<path opacity="0.3" d="M327.105 281.222L326.093 299.925C326.074 300.246 325.934 300.548 325.701 300.769C325.468 300.991 325.16 301.116 324.839 301.119L291.185 301.361C291.02 301.363 290.855 301.332 290.702 301.27C290.548 301.209 290.408 301.118 290.289 301.002C290.17 300.886 290.076 300.748 290.011 300.596C289.945 300.444 289.911 300.28 289.909 300.114L289.803 285.55C289.802 285.384 289.834 285.219 289.897 285.065C289.96 284.911 290.053 284.771 290.17 284.653C290.287 284.535 290.427 284.442 290.58 284.378C290.734 284.314 290.898 284.281 291.065 284.281H311.763C312.096 284.283 312.416 284.152 312.654 283.918L316.227 280.345C316.461 280.11 316.779 279.977 317.111 279.975L325.836 279.915C326.006 279.914 326.175 279.947 326.332 280.013C326.489 280.079 326.631 280.175 326.749 280.297C326.868 280.42 326.96 280.564 327.022 280.723C327.083 280.882 327.111 281.052 327.105 281.222Z" fill="black"/>
<path d="M289.943 304.051L326.715 303.782L326.554 281.807L289.782 282.077L289.943 304.051Z" fill="#F5F5F5"/>
<path d="M329.492 283.76L326.848 306.694C326.836 306.898 326.747 307.09 326.598 307.231C326.449 307.371 326.252 307.45 326.047 307.449L290.211 307.714C290.004 307.716 289.804 307.639 289.653 307.499C289.501 307.358 289.409 307.165 289.395 306.958L287.424 284.054C287.414 283.943 287.428 283.83 287.464 283.724C287.501 283.618 287.559 283.521 287.635 283.438C287.711 283.356 287.803 283.29 287.906 283.245C288.009 283.201 288.12 283.178 288.232 283.178L328.676 282.876C328.789 282.876 328.901 282.899 329.005 282.944C329.109 282.989 329.202 283.055 329.278 283.138C329.355 283.222 329.414 283.32 329.45 283.427C329.487 283.534 329.501 283.647 329.492 283.76Z" fill="#BF3939"/>
<path opacity="0.3" d="M329.492 283.76L326.848 306.694C326.836 306.898 326.747 307.09 326.598 307.231C326.449 307.371 326.252 307.45 326.047 307.449L290.211 307.714C290.004 307.716 289.804 307.639 289.653 307.499C289.501 307.358 289.409 307.165 289.395 306.958L287.424 284.054C287.414 283.943 287.428 283.83 287.464 283.724C287.501 283.618 287.559 283.521 287.635 283.438C287.711 283.356 287.803 283.29 287.906 283.245C288.009 283.201 288.12 283.178 288.232 283.178L328.676 282.876C328.789 282.876 328.901 282.899 329.005 282.944C329.109 282.989 329.202 283.055 329.278 283.138C329.355 283.222 329.414 283.32 329.45 283.427C329.487 283.534 329.501 283.647 329.492 283.76Z" fill="black"/>
<path d="M338.262 285.603L337.25 304.299C337.233 304.621 337.093 304.925 336.861 305.148C336.628 305.371 336.318 305.497 335.996 305.5L302.343 305.742C302.007 305.744 301.685 305.613 301.446 305.378C301.207 305.143 301.07 304.823 301.066 304.488L300.945 289.931C300.945 289.596 301.078 289.275 301.314 289.037C301.551 288.799 301.872 288.664 302.207 288.662H322.905C323.071 288.664 323.235 288.633 323.389 288.569C323.542 288.505 323.68 288.411 323.796 288.292L327.369 284.727C327.603 284.491 327.921 284.358 328.253 284.357L336.978 284.289C337.15 284.285 337.321 284.317 337.48 284.383C337.64 284.448 337.784 284.545 337.904 284.668C338.024 284.791 338.118 284.938 338.18 285.099C338.241 285.259 338.269 285.431 338.262 285.603Z" fill="#BF3939"/>
<path d="M301.091 308.431L337.863 308.162L337.702 286.188L300.93 286.457L301.091 308.431Z" fill="#F5F5F5"/>
<path d="M340.649 288.141L338.013 311.075C337.989 311.272 337.895 311.453 337.748 311.585C337.6 311.717 337.41 311.791 337.212 311.793L301.368 312.057C301.162 312.06 300.963 311.982 300.813 311.842C300.662 311.701 300.572 311.508 300.56 311.302L298.588 288.398C298.578 288.286 298.591 288.174 298.626 288.067C298.662 287.961 298.719 287.863 298.794 287.78C298.869 287.697 298.961 287.63 299.064 287.584C299.166 287.539 299.277 287.515 299.389 287.514L339.833 287.22C339.95 287.219 340.066 287.243 340.172 287.29C340.279 287.338 340.374 287.407 340.451 287.495C340.529 287.582 340.586 287.685 340.62 287.796C340.655 287.908 340.664 288.025 340.649 288.141Z" fill="#BF3939"/>
<path d="M298.581 291.261V323.071H344.479V291.261H298.581ZM313.561 296.994C313.561 296.371 313.808 295.774 314.249 295.333C314.689 294.893 315.287 294.645 315.91 294.645H327.15C327.469 294.627 327.789 294.674 328.089 294.784C328.39 294.894 328.664 295.063 328.897 295.283C329.129 295.503 329.314 295.767 329.441 296.061C329.567 296.355 329.633 296.671 329.633 296.991C329.633 297.31 329.567 297.627 329.441 297.92C329.314 298.214 329.129 298.479 328.897 298.698C328.664 298.918 328.39 299.088 328.089 299.197C327.789 299.307 327.469 299.354 327.15 299.336H315.91C315.288 299.336 314.692 299.09 314.251 298.651C313.811 298.212 313.563 297.616 313.561 296.994Z" fill="#455A64"/>
<path d="M273.841 291.261V323.071H298.581V291.261H273.841Z" fill="#263238"/>
<path d="M187.325 299.042L184.93 312.858C184.93 312.858 170.087 315.064 169.399 317.572L196.005 323.177L200.62 301.814L187.325 299.042Z" fill="#BF3939"/>
<g opacity="0.6">
<path opacity="0.6" d="M193.398 313.432C193.637 313.565 193.818 313.78 193.909 314.038C193.999 314.295 193.992 314.577 193.889 314.83C193.767 315.074 193.555 315.263 193.298 315.355C193.041 315.448 192.757 315.438 192.507 315.328C192.246 315.188 192.048 314.954 191.953 314.674C191.858 314.393 191.872 314.087 191.993 313.817C192.148 313.571 192.393 313.396 192.676 313.329C192.959 313.263 193.256 313.31 193.504 313.462" fill="white"/>
</g>
<path opacity="0.6" d="M196.005 323.169L196.382 321.001L170.698 316.469C170.698 316.469 169.407 316.733 169.369 317.594L196.005 323.169Z" fill="white"/>
<path d="M184.522 312.631C184.522 312.76 185.142 312.956 185.693 313.508C186.245 314.059 186.449 314.679 186.6 314.648C186.751 314.618 186.69 313.832 186.011 313.175C185.331 312.518 184.522 312.503 184.522 312.631Z" fill="#263238"/>
<path d="M181.493 313.198C181.433 313.311 181.954 313.651 182.249 314.293C182.543 314.935 182.573 315.547 182.709 315.57C182.845 315.592 183.072 314.875 182.657 314.059C182.241 313.243 181.523 313.069 181.493 313.198Z" fill="#263238"/>
<path d="M179.204 316.197C179.318 316.25 179.635 315.645 179.446 314.86C179.257 314.074 178.691 313.666 178.638 313.764C178.585 313.863 178.857 314.323 179 314.965C179.144 315.608 179.076 316.159 179.204 316.197Z" fill="#263238"/>
<path d="M185.421 309.542C185.421 309.67 186.086 309.617 186.804 309.821C187.521 310.025 188.058 310.38 188.148 310.282C188.239 310.184 187.786 309.602 186.925 309.376C186.063 309.149 185.368 309.428 185.421 309.542Z" fill="#263238"/>
<path opacity="0.3" d="M186.849 301.784L186.419 304.239L199.525 306.875L200.008 304.677L186.849 301.784Z" fill="black"/>
<path d="M185.958 306.762C186.368 306.973 186.827 307.069 187.287 307.041C187.794 307.056 188.302 307.01 188.798 306.905C189.085 306.841 189.368 306.758 189.644 306.656C189.812 306.607 189.97 306.531 190.112 306.429C190.218 306.356 190.296 306.249 190.334 306.126C190.373 306.003 190.369 305.87 190.324 305.75C190.275 305.646 190.204 305.555 190.115 305.483C190.026 305.411 189.922 305.36 189.81 305.334C189.641 305.3 189.469 305.287 189.297 305.296C188.999 305.306 188.703 305.344 188.413 305.41C187.92 305.513 187.448 305.697 187.015 305.954C186.26 306.399 185.958 306.837 186.003 306.875C186.048 306.913 186.434 306.588 187.166 306.248C187.588 306.047 188.035 305.905 188.496 305.825C188.766 305.78 189.038 305.755 189.312 305.75C189.606 305.75 189.848 305.787 189.893 305.923C189.939 306.059 189.893 305.999 189.833 306.067C189.726 306.14 189.609 306.196 189.485 306.233C189.239 306.333 188.987 306.419 188.73 306.49C188.272 306.606 187.804 306.68 187.333 306.709C186.874 306.695 186.414 306.713 185.958 306.762Z" fill="#263238"/>
<path d="M186.124 306.988C186.45 306.656 186.667 306.232 186.743 305.772C186.873 305.28 186.917 304.769 186.872 304.261C186.842 303.962 186.783 303.666 186.698 303.378C186.665 303.188 186.583 303.009 186.46 302.861C186.336 302.712 186.176 302.599 185.995 302.532C185.877 302.508 185.754 302.518 185.641 302.562C185.529 302.607 185.431 302.683 185.361 302.781C185.259 302.922 185.177 303.077 185.119 303.242C185.011 303.53 184.947 303.833 184.93 304.141C184.896 304.66 184.992 305.179 185.21 305.651C185.58 306.452 186.094 306.717 186.109 306.679C186.124 306.641 185.769 306.278 185.512 305.531C185.362 305.099 185.308 304.64 185.353 304.186C185.378 303.926 185.441 303.671 185.542 303.431C185.64 303.159 185.799 302.955 185.897 303C185.995 303.045 186.207 303.287 186.267 303.536C186.351 303.795 186.412 304.06 186.449 304.329C186.51 304.788 186.51 305.253 186.449 305.712C186.26 306.497 186.018 306.951 186.124 306.988Z" fill="#263238"/>
<path d="M277.724 299.351L271.968 291.835L271.673 291.45L261.853 298.739L270.918 308.711L270.586 318.803C265.532 320.11 264.769 322.633 264.769 322.633H275.277L284.825 304.246L277.724 299.351Z" fill="#BF3939"/>
<path opacity="0.6" d="M284.855 304.239L275.307 322.625L264.799 322.633L265.985 321.054L274.529 320.578L283.337 303.196L284.855 304.239Z" fill="white"/>
<path d="M270.676 314.18C270.759 314.286 271.364 313.938 272.187 313.961C273.01 313.983 273.6 314.323 273.698 314.218C273.796 314.112 273.199 313.508 272.187 313.5C271.175 313.492 270.586 314.097 270.676 314.18Z" fill="#263238"/>
<path d="M270.85 311.672C270.956 311.747 271.416 311.128 272.255 310.962C273.093 310.796 273.766 311.181 273.834 311.075C273.902 310.969 273.751 310.849 273.456 310.69C273.059 310.484 272.604 310.42 272.166 310.508C271.728 310.596 271.333 310.831 271.046 311.173C270.842 311.438 270.797 311.642 270.85 311.672Z" fill="#263238"/>
<path d="M270.774 308.461C270.888 308.514 271.25 307.91 271.983 307.653C272.716 307.396 273.373 307.653 273.426 307.525C273.479 307.396 273.32 307.321 273.026 307.215C272.636 307.082 272.213 307.084 271.825 307.221C271.437 307.358 271.107 307.622 270.888 307.97C270.729 308.242 270.729 308.439 270.774 308.461Z" fill="#263238"/>
<path d="M267.964 305.969C268.085 306.014 268.38 305.417 269.037 304.994C269.694 304.571 270.336 304.503 270.344 304.375C270.351 304.246 269.588 304.073 268.78 304.609C267.972 305.145 267.836 305.954 267.964 305.969Z" fill="#263238"/>
<path d="M266.589 303.793C266.949 303.475 267.257 303.103 267.503 302.69L268.395 301.429C268.596 301.169 268.759 300.881 268.878 300.575C268.911 300.471 268.923 300.361 268.913 300.252C268.902 300.143 268.87 300.037 268.818 299.941C268.757 299.828 268.664 299.737 268.551 299.678C268.438 299.618 268.31 299.594 268.183 299.608C267.814 299.679 267.473 299.855 267.201 300.114C266.956 300.337 266.74 300.591 266.559 300.87C266.265 301.325 266.079 301.842 266.015 302.38C265.904 302.871 265.988 303.386 266.249 303.816C266.251 303.354 266.279 302.892 266.333 302.433C266.485 301.669 266.892 300.979 267.488 300.477C267.701 300.282 267.962 300.146 268.244 300.084C268.283 300.077 268.323 300.081 268.36 300.098C268.396 300.114 268.427 300.141 268.448 300.175C268.486 300.272 268.486 300.38 268.448 300.477C268.345 300.744 268.211 300.997 268.047 301.232L267.239 302.547C266.959 302.926 266.74 303.346 266.589 303.793Z" fill="#263238"/>
<path d="M266.197 304.125C266.25 304.125 266.197 303.566 265.638 302.939C265.251 302.519 264.738 302.237 264.176 302.136C263.614 302.035 263.034 302.121 262.525 302.38C262.471 302.425 262.428 302.482 262.399 302.546C262.371 302.61 262.357 302.68 262.359 302.751C262.365 302.872 262.41 302.989 262.488 303.083C262.593 303.215 262.721 303.327 262.865 303.415C263.102 303.581 263.355 303.723 263.621 303.838C264.058 304.039 264.525 304.169 265.003 304.224C265.438 304.323 265.893 304.281 266.302 304.103C266.302 304.027 265.804 304.065 265.056 303.906C264.622 303.812 264.203 303.66 263.81 303.453C263.586 303.334 263.373 303.195 263.175 303.038C263.072 302.975 262.98 302.896 262.903 302.804C262.85 302.713 262.865 302.736 262.903 302.713C262.995 302.655 263.098 302.617 263.205 302.6C263.334 302.568 263.466 302.548 263.598 302.539C263.851 302.517 264.106 302.535 264.353 302.592C264.774 302.685 265.163 302.882 265.487 303.166C265.985 303.672 266.144 304.156 266.197 304.125Z" fill="#263238"/>
<path opacity="0.6" d="M277.717 305.168C278.405 305.168 278.963 304.61 278.963 303.922C278.963 303.233 278.405 302.675 277.717 302.675C277.028 302.675 276.47 303.233 276.47 303.922C276.47 304.61 277.028 305.168 277.717 305.168Z" fill="white"/>
<path opacity="0.3" d="M262.782 299.744L264.799 301.957L273.282 293.55L272.104 292.016L262.782 299.744Z" fill="black"/>
<path d="M211.46 164.444C211.46 164.444 201.64 197.772 192.862 235.452C187.574 258.295 182.551 300.802 182.551 300.802L205.863 305.938L215.857 251.293L226.523 218.946C230.187 208.733 235.452 201.27 241.842 195.74C248.792 185.92 252.418 174.687 251.021 162.729L211.46 164.444Z" fill="#263238"/>
<path d="M209.541 169.754L218.251 241.518C219.097 248.445 220.268 255.115 224.974 260.274L260.244 302.101L277.717 286.419L240.332 235.308L246.828 163.258L210.251 169.497" fill="#263238"/>
<path d="M240.687 234.772C240.755 234.9 239.176 235.686 237.665 237.25C236.154 238.813 235.482 240.43 235.354 240.369C235.225 240.309 235.761 238.549 237.318 236.925C238.874 235.301 240.656 234.651 240.687 234.772Z" fill="#455A64"/>
<path d="M240.158 235.308C240.158 235.444 238.76 235.399 237.083 235.565C235.406 235.731 234.062 236.033 234.009 235.897C234.937 235.391 235.973 235.114 237.031 235.089C238.768 234.915 240.173 235.18 240.158 235.308Z" fill="#455A64"/>
<path d="M249.971 179.031C249.947 179.305 249.904 179.578 249.842 179.846C249.782 180.134 249.721 180.458 249.646 180.836C249.57 181.214 249.412 181.667 249.268 182.158C248.354 184.941 247.052 187.58 245.4 189.999C243.361 193.104 240.528 196.48 237.514 200.303C235.93 202.291 234.467 204.372 233.133 206.535C231.732 208.877 230.458 211.293 229.318 213.772C226.969 218.878 225.072 223.894 223.463 228.494C221.854 233.095 220.517 237.272 219.384 240.785C218.251 244.298 217.36 247.092 216.71 249.094C216.393 250.039 216.136 250.794 215.955 251.361C215.874 251.62 215.773 251.872 215.653 252.116C215.699 251.842 215.767 251.571 215.857 251.308L216.529 249.041L219.052 240.672C220.14 237.151 221.447 232.951 223.033 228.336C224.619 223.72 226.508 218.682 228.865 213.553C230.016 211.058 231.304 208.63 232.725 206.278C234.069 204.099 235.55 202.007 237.159 200.016C240.181 196.193 243.051 192.855 245.106 189.803C246.769 187.423 248.108 184.831 249.087 182.098C249.238 181.607 249.396 181.176 249.502 180.791C249.608 180.405 249.676 180.096 249.744 179.824C249.798 179.554 249.874 179.288 249.971 179.031Z" fill="#455A64"/>
<path d="M165.728 143.723L159.602 146.911L148.973 152.131C148.256 152.379 147.652 152.878 147.273 153.536L143.376 160.395H150.831L152.818 157.048C154.068 157.496 155.426 157.544 156.705 157.187C157.983 156.83 159.12 156.085 159.957 155.054L170.782 151.277L165.728 143.723Z" fill="#FFBE9D"/>
<path d="M236.895 59.5258C237.327 58.6073 238.037 57.8482 238.925 57.3561C239.813 56.8641 240.834 56.664 241.842 56.7844C242.85 56.9048 243.795 57.3394 244.542 58.0267C245.289 58.714 245.801 59.6191 246.005 60.6136C246.073 61.5731 246.242 62.5226 246.511 63.4463C246.796 64.0391 247.275 64.5171 247.868 64.8013C248.461 65.0856 249.133 65.1592 249.774 65.01C249.393 65.7291 248.803 66.3163 248.082 66.6946C248.174 66.6348 248.28 66.5979 248.389 66.5867C248.498 66.5755 248.609 66.5904 248.711 66.6302C248.814 66.67 248.905 66.7336 248.979 66.8157C249.052 66.8978 249.104 66.9961 249.132 67.1025C249.167 67.3244 249.134 67.5517 249.039 67.7549C248.943 67.9582 248.789 68.1282 248.596 68.2432C248.203 68.4625 247.768 68.594 247.319 68.6284C245.166 68.9532 242.787 69.0363 240.974 67.873C238.995 66.5964 238.118 64.1942 237.378 61.9658" fill="#263238"/>
<path d="M216.272 53.2862C214.006 53.4826 212.117 55.152 210.803 57.0103C209.489 58.8686 208.574 60.9989 207.2 62.8118C206.172 64.164 204.865 65.3878 204.359 67.0043C203.551 69.5878 204.971 72.5641 203.846 75.0192C203.204 76.4091 201.859 77.3534 201.194 78.7282C200.363 80.443 200.741 82.5052 201.247 84.3182C201.5 85.6254 202.146 86.8243 203.098 87.7553C203.955 88.3433 204.943 88.7141 205.976 88.8355C213.718 90.2592 221.71 89.2703 228.872 86.0027" fill="#263238"/>
<path d="M233.971 66.2111C233.94 64.6387 233.593 63.0887 232.951 61.6532C232.308 60.2176 231.384 58.9259 230.232 57.8547C229.081 56.7836 227.726 55.9549 226.248 55.4179C224.769 54.8809 223.198 54.6466 221.628 54.729C215.35 55.0462 210.523 60.4549 210.486 66.7399C210.486 72.2468 210.554 77.7914 210.871 79.7631C211.815 85.7081 215.638 87.5211 217.148 88.0121C217.685 88.122 218.232 88.1752 218.78 88.1707C218.791 88.1725 218.8 88.1781 218.807 88.1864C218.814 88.1947 218.818 88.2052 218.818 88.216L218.493 95.2488C218.546 99.7812 221.628 103.445 226.198 103.445C230.768 103.445 233.79 99.4942 233.82 94.9089L233.971 66.2111Z" fill="#FFBE9D"/>
<path d="M212.729 69.8219C212.729 70.0712 212.826 70.3108 212.999 70.4899C213.173 70.6689 213.409 70.7735 213.658 70.7813C213.78 70.7916 213.902 70.7773 214.018 70.7392C214.134 70.7011 214.241 70.64 214.333 70.5596C214.424 70.4792 214.499 70.3811 214.552 70.2713C214.605 70.1614 214.635 70.042 214.64 69.9202C214.644 69.6703 214.55 69.4288 214.378 69.2479C214.205 69.067 213.969 68.9611 213.719 68.9532C213.596 68.944 213.474 68.9593 213.357 68.9981C213.241 69.037 213.134 69.0987 213.041 69.1796C212.949 69.2605 212.874 69.359 212.821 69.4693C212.767 69.5796 212.736 69.6995 212.729 69.8219Z" fill="#263238"/>
<path d="M212.117 68.1525C212.231 68.281 212.956 67.7446 213.991 67.7446C215.026 67.7446 215.773 68.2583 215.887 68.1374C216 68.0166 215.819 67.8579 215.486 67.6162C215.043 67.3074 214.516 67.1437 213.976 67.1479C213.433 67.1397 212.902 67.3095 212.465 67.6313C212.163 67.8731 212.057 68.1072 212.117 68.1525Z" fill="#263238"/>
<path d="M222.806 69.8219C222.802 70.0711 222.897 70.3118 223.069 70.4915C223.242 70.6712 223.479 70.7754 223.728 70.7813C223.849 70.7916 223.972 70.7773 224.088 70.7392C224.203 70.7011 224.31 70.64 224.402 70.5596C224.494 70.4792 224.568 70.3811 224.621 70.2713C224.674 70.1614 224.704 70.042 224.71 69.9201C224.714 69.6703 224.62 69.4288 224.447 69.2479C224.275 69.067 224.038 68.9611 223.788 68.9532C223.666 68.944 223.544 68.9593 223.428 68.9983C223.312 69.0372 223.205 69.0991 223.114 69.18C223.022 69.261 222.948 69.3596 222.895 69.4698C222.842 69.5801 222.812 69.6998 222.806 69.8219Z" fill="#263238"/>
<path d="M222.24 68.3489C222.361 68.4698 223.086 67.9335 224.113 67.9335C225.14 67.9335 225.896 68.4547 226.009 68.3263C226.122 68.1979 225.949 68.0468 225.616 67.8051C225.171 67.5006 224.645 67.3374 224.106 67.3367C223.563 67.3339 223.034 67.5032 222.595 67.8202C222.293 68.0619 222.179 68.2885 222.24 68.3489Z" fill="#263238"/>
<path d="M218.5 75.986C217.96 75.8118 217.398 75.7102 216.831 75.6839C216.567 75.6839 216.317 75.6008 216.272 75.427C216.255 75.1637 216.315 74.9011 216.446 74.6716L217.201 72.6698C218.281 69.8219 219.067 67.4726 218.946 67.4349C218.091 69.0691 217.369 70.7691 216.786 72.5187C216.521 73.2213 216.28 73.8936 216.03 74.5357C215.865 74.8514 215.817 75.2152 215.894 75.563C215.933 75.6552 215.992 75.7376 216.066 75.8043C216.141 75.8709 216.229 75.9201 216.325 75.9483C216.473 75.9867 216.625 76.0095 216.778 76.0163C217.351 76.0808 217.93 76.0707 218.5 75.986Z" fill="#263238"/>
<path d="M218.833 88.1707C218.833 88.1707 222.814 88.4955 227.784 85.5042C227.784 85.5042 226.213 90.792 218.72 90.0366L218.833 88.1707Z" fill="#EB996E"/>
<path d="M218.939 78.4637C219.136 78.219 219.391 78.0277 219.682 77.9076C219.972 77.7874 220.288 77.7423 220.601 77.7763C220.827 77.7981 221.048 77.8648 221.249 77.9724C221.45 78.08 221.627 78.2265 221.771 78.4033C221.908 78.576 221.99 78.7862 222.004 79.006C222.019 79.2259 221.967 79.4451 221.854 79.6346C221.689 79.8204 221.472 79.9522 221.231 80.0129C220.99 80.0735 220.736 80.0601 220.502 79.9746C220.018 79.8142 219.57 79.5572 219.188 79.2191C219.071 79.138 218.971 79.0355 218.893 78.917C218.856 78.8596 218.836 78.7927 218.836 78.7243C218.836 78.656 218.856 78.5891 218.893 78.5317" fill="#EB996E"/>
<path d="M221.53 76.6961C221.363 76.6961 221.363 77.8066 220.404 78.5998C219.445 79.3929 218.259 79.2721 218.251 79.4231C218.244 79.5742 218.516 79.6422 219.007 79.6573C219.661 79.6639 220.296 79.4422 220.804 79.0303C221.291 78.6326 221.602 78.0607 221.673 77.4364C221.734 76.9681 221.628 76.6886 221.53 76.6961Z" fill="#263238"/>
<path d="M221.779 66.5435C221.877 66.823 222.904 66.6871 224.113 66.8381C225.322 66.9892 226.304 67.3065 226.462 67.0572C226.53 66.9363 226.364 66.672 225.971 66.4076C225.445 66.0744 224.85 65.8652 224.231 65.7959C223.612 65.7265 222.985 65.7988 222.398 66.0072C221.953 66.1885 221.734 66.4076 221.779 66.5435Z" fill="#263238"/>
<path d="M212.495 66.0449C212.676 66.2791 213.386 66.0449 214.24 66.0449C215.094 66.0449 215.811 66.2036 215.977 65.9543C216.053 65.8334 215.977 65.5993 215.622 65.3802C215.199 65.1128 214.704 64.9786 214.203 64.9947C213.703 65.0109 213.218 65.1767 212.812 65.4708C212.51 65.6899 212.412 65.9316 212.495 66.0449Z" fill="#263238"/>
<path d="M209.118 65.4482C210.629 67.1554 214.406 65.4482 216.552 63.7787C217.9 64.3847 219.431 64.4412 220.821 63.9362C222.21 63.4313 223.348 62.4047 223.992 61.0744C225.594 62.5852 228.253 61.6334 228.978 59.5636C229.703 57.4938 228.744 54.8876 227.12 53.3919C225.503 52.0094 223.445 51.2511 221.318 51.2541C218.864 51.1372 216.429 51.7407 214.314 52.9903C212.199 54.24 210.495 56.0811 209.413 58.287C208.401 60.4399 208.008 63.1971 209.118 65.4406" fill="#263238"/>
<path d="M226.742 53.2862C231.055 51.7754 235.973 55.5902 236.879 58.6873C238.451 64.0583 237.809 64.8514 239.191 67.3367C240.097 68.9533 242.605 70.3583 243.723 72.0127C244.955 73.7652 245.415 76.9681 245.045 79.0832C244.736 80.866 243.142 85.9423 243.142 85.9423C243.142 85.9423 236.517 86.6977 233.019 86.32C232.122 86.2757 231.249 86.0167 230.474 85.5646C229.718 85.0811 230.776 82.8754 230.534 82.0369C229.832 79.6573 227.807 78.5167 227.981 76.039C228.207 72.753 230.685 72.2619 230.156 68.9684C229.877 67.2385 226.931 65.1309 226.447 63.4539C225.964 61.7769 224.09 55.9377 226.712 53.3013" fill="#263238"/>
<path d="M237.763 63.5295C237.65 63.5295 237.726 62.4115 237.506 61.0895C237.287 59.7675 236.887 58.7326 236.993 58.6873C237.511 59.3628 237.823 60.1732 237.892 61.0215C238.098 61.8518 238.053 62.7246 237.763 63.5295Z" fill="#BF3939"/>
<path d="M237.363 61.6863C237.363 61.6863 237.212 61.7921 236.902 61.8676C236.463 61.9763 236.01 62.0196 235.557 61.996C234.88 61.9618 234.216 61.7976 233.601 61.5126C232.85 61.1596 232.186 60.6434 231.66 60.0017C231.176 59.3706 230.624 58.7955 230.013 58.287C229.502 57.9084 228.93 57.6221 228.321 57.4409C227.742 57.2976 227.154 57.1966 226.561 57.1388C226.714 57.0683 226.883 57.0372 227.052 57.0481C227.501 57.0228 227.951 57.0635 228.389 57.169C229.046 57.3274 229.669 57.6066 230.224 57.9924C230.869 58.4943 231.449 59.0726 231.954 59.7147C232.858 60.8209 234.16 61.5287 235.58 61.6863C236.174 61.7261 236.769 61.7261 237.363 61.6863Z" fill="#455A64"/>
<path d="M249.17 66.8834C249.022 67.0302 248.832 67.1256 248.626 67.1554C248.068 67.2716 247.487 67.1943 246.979 66.9363C246.234 66.5522 245.632 65.9375 245.264 65.1838C244.811 64.3755 244.509 63.4086 244.086 62.487C243.748 61.6062 243.119 60.8676 242.303 60.3945C241.608 60.0722 240.822 60.0054 240.082 60.2057C239.393 60.421 238.775 60.8176 238.292 61.3539C238.352 61.1582 238.461 60.9812 238.609 60.8402C238.981 60.4188 239.462 60.1079 239.999 59.9413C240.805 59.6783 241.679 59.7213 242.454 60.0622C243.365 60.5568 244.07 61.3604 244.441 62.3284C244.894 63.2877 245.196 64.2395 245.582 65.0176C245.897 65.7214 246.425 66.3081 247.092 66.6946C247.55 66.9571 248.079 67.0681 248.603 67.0119C248.958 66.959 249.147 66.8532 249.17 66.8834Z" fill="#455A64"/>
<path d="M237.378 61.0064C237.378 61.0064 237.189 61.0971 236.834 61.0668C236.326 61.0065 235.844 60.8051 235.444 60.4852C234.864 60.017 234.382 59.4395 234.024 58.7855C233.621 58.0131 233.14 57.2841 232.589 56.61C232.048 56.0486 231.394 55.6098 230.669 55.3231C229.945 55.0364 229.167 54.9085 228.389 54.9481C227.735 55.0113 227.089 55.143 226.462 55.3409C226.462 55.3409 226.606 55.2049 226.923 55.0538C227.381 54.8514 227.868 54.7239 228.366 54.6761C229.198 54.5879 230.04 54.6918 230.826 54.9799C231.611 55.268 232.32 55.7327 232.898 56.338C233.468 57.0363 233.957 57.7965 234.356 58.6042C234.674 59.2336 235.107 59.7975 235.633 60.2661C236.124 60.687 236.734 60.9456 237.378 61.0064Z" fill="#455A64"/>
<path d="M239.274 86.7128C239.274 86.7128 239.546 86.2973 240.029 85.5419C240.677 84.4757 241.185 83.3307 241.54 82.1351C242.077 80.3749 242.142 78.5045 241.729 76.7113C241.479 75.6244 241.017 74.5978 240.369 73.6903C239.72 72.7828 238.899 72.0124 237.952 71.4234C236.932 70.8191 235.807 70.4112 234.81 69.7993C233.818 69.2224 233.027 68.3549 232.543 67.314C232.143 66.3932 231.819 65.4406 231.577 64.4662C231.364 63.6348 231.073 62.8254 230.708 62.0489C230.46 61.4871 230.095 60.9844 229.638 60.5742C229.181 60.164 228.642 59.8556 228.056 59.6694C227.617 59.559 227.161 59.5308 226.712 59.5863C226.712 59.5863 226.825 59.5258 227.059 59.4805C227.401 59.4111 227.753 59.4111 228.094 59.4805C228.717 59.6489 229.296 59.951 229.791 60.3658C230.285 60.7807 230.683 61.2983 230.957 61.8827C231.346 62.669 231.657 63.4912 231.886 64.3378C232.136 65.2908 232.467 66.2208 232.876 67.1176C233.329 68.0882 234.07 68.8954 234.998 69.4292C235.95 70.0184 237.076 70.4188 238.141 71.0533C239.13 71.6739 239.986 72.4861 240.656 73.4423C241.327 74.3984 241.8 75.4791 242.046 76.6206C242.457 78.4752 242.36 80.4062 241.767 82.2106C241.386 83.4199 240.831 84.5674 240.12 85.6175C239.935 85.9034 239.733 86.1783 239.516 86.4409C239.372 86.6297 239.289 86.7204 239.274 86.7128Z" fill="#455A64"/>
<path d="M206.626 88.5409C206.626 88.5409 206.542 88.4804 206.422 88.3294C206.247 88.1118 206.088 87.8821 205.946 87.6419C205.417 86.7472 205.073 85.7558 204.933 84.7261C204.697 83.1886 204.907 81.6155 205.538 80.1937C205.938 79.3857 206.392 78.6058 206.897 77.8595C207.431 77.0949 207.766 76.2097 207.872 75.2835C208 73.3799 207.117 71.6047 206.996 69.8673C206.806 68.3316 207.006 66.773 207.577 65.3349C207.97 64.375 208.562 63.5097 209.315 62.7967C209.515 62.6016 209.729 62.4222 209.957 62.2604C210.032 62.1963 210.116 62.1429 210.206 62.1017C210.206 62.1017 209.912 62.3812 209.451 62.9025C208.766 63.6405 208.228 64.5018 207.864 65.4406C207.352 66.8407 207.187 68.3439 207.381 69.822C207.504 70.6994 207.685 71.5676 207.925 72.4206C208.208 73.3603 208.333 74.3406 208.295 75.3213C208.18 76.3064 207.825 77.2481 207.26 78.0634C206.759 78.7891 206.305 79.5461 205.9 80.3296C205.28 81.6851 205.05 83.1866 205.236 84.6656C205.353 85.6663 205.647 86.6382 206.104 87.5362C206.414 88.2009 206.656 88.5031 206.626 88.5409Z" fill="#455A64"/>
<path d="M220.464 52.0398C219.507 52.1619 218.56 52.3563 217.632 52.6214C215.416 53.3305 213.498 54.7545 212.178 56.6704C210.95 58.6465 210.277 60.9165 210.229 63.2424C210.238 64.2077 210.329 65.1706 210.501 66.1205C210.369 65.8854 210.277 65.6301 210.229 65.3651C210.051 64.666 209.958 63.9484 209.949 63.2273C209.917 60.8262 210.575 58.4664 211.845 56.4287C213.208 54.4364 215.226 52.9849 217.549 52.3268C218.243 52.1294 218.958 52.0128 219.679 51.9793C219.942 51.9591 220.207 51.9794 220.464 52.0398Z" fill="#455A64"/>
<path d="M215.373 61.724C215.27 61.5211 215.206 61.3008 215.184 61.0744C215.072 60.4566 215.044 59.8263 215.101 59.201C215.183 58.1604 215.477 57.1475 215.964 56.2246C216.452 55.3017 217.123 54.4883 217.937 53.8345C218.751 53.1807 219.69 52.7003 220.696 52.4228C221.702 52.1454 222.754 52.0767 223.788 52.2211C224.409 52.298 225.016 52.4581 225.594 52.697C225.814 52.7684 226.019 52.8812 226.198 53.0293C225.403 52.779 224.586 52.602 223.758 52.5006C221.756 52.2905 219.752 52.8801 218.183 54.1407C216.614 55.4014 215.607 57.2311 215.381 59.2312C215.305 60.0603 215.302 60.8945 215.373 61.724Z" fill="#455A64"/>
<path d="M249.774 169.097L241.608 137.529L244.433 125.178L248.505 101.995C248.505 101.995 244.766 96.8805 235.082 96.3895L234.432 91.6984L217.851 92.2801L217.541 96.7143C215.079 97.3256 212.773 98.4488 210.774 100.011C208.775 101.573 207.127 103.538 205.938 105.779L194.161 127.928L161.951 144.048L166.204 154.027C166.204 154.027 198.535 141.774 201.27 140.573C203.09 139.78 205.047 136.426 206.777 132.83C208.068 139.009 209.405 143.904 209.405 143.904L209.126 168.123L249.774 169.097Z" fill="#BF3939"/>
<path d="M235.331 105.016C235.331 105.016 234.908 105.137 234.16 105.364C233.412 105.59 232.332 105.93 231.002 106.383C229.673 106.837 228.102 107.388 226.281 107.819C225.322 108.064 224.332 108.173 223.343 108.144C222.275 108.016 221.245 107.666 220.321 107.116C219.369 106.61 218.493 106.044 217.602 105.605C216.752 105.169 215.854 104.832 214.927 104.601C213.35 104.207 211.714 104.105 210.1 104.299C208.613 104.519 207.16 104.933 205.779 105.53C205.859 105.46 205.948 105.402 206.044 105.356C206.304 105.203 206.574 105.067 206.852 104.948C207.876 104.496 208.956 104.184 210.063 104.019C212.7 103.632 215.392 104.064 217.775 105.258C218.689 105.719 219.573 106.285 220.51 106.769C221.381 107.29 222.351 107.627 223.358 107.758C224.308 107.788 225.259 107.689 226.183 107.464C227.981 107.063 229.567 106.527 230.904 106.119C232.241 105.711 233.337 105.364 234.107 105.213C234.492 105.122 234.795 105.069 234.998 105.039C235.107 105.01 235.22 105.002 235.331 105.016Z" fill="#FAFAFA"/>
<path d="M240.324 121.038C240.324 121.084 239.69 120.925 238.526 120.865C236.89 120.822 235.257 121.044 233.692 121.522C231.374 122.258 229.12 123.182 226.953 124.287C224.286 125.688 221.424 126.683 218.463 127.24C217.675 127.351 216.879 127.393 216.083 127.369C215.305 127.337 214.533 127.223 213.779 127.029C212.373 126.626 211.035 126.012 209.813 125.208C207.479 123.697 205.508 122.187 203.528 121.56C202.009 120.955 200.33 120.878 198.762 121.34C198.2 121.551 197.665 121.828 197.168 122.164C197.275 122.046 197.394 121.94 197.523 121.847C197.886 121.576 198.285 121.357 198.709 121.197C200.308 120.664 202.042 120.699 203.619 121.295C205.659 121.922 207.691 123.456 210.01 124.898C211.202 125.676 212.506 126.267 213.877 126.651C214.604 126.837 215.349 126.946 216.098 126.976C216.871 127 217.645 126.957 218.41 126.847C221.332 126.295 224.158 125.323 226.802 123.962C228.987 122.865 231.261 121.957 233.601 121.25C235.2 120.788 236.866 120.607 238.526 120.714C238.974 120.748 239.418 120.816 239.856 120.917C240.015 120.944 240.172 120.985 240.324 121.038Z" fill="#FAFAFA"/>
<path d="M210.093 109.994C210.093 109.994 210.093 110.108 210.017 110.319C209.942 110.531 209.866 110.833 209.73 111.226C209.466 111.981 209.043 113.129 208.499 114.497C207.955 115.864 207.29 117.518 206.694 119.331C206.379 120.293 206.126 121.275 205.938 122.27C205.715 123.324 205.628 124.403 205.681 125.48C205.831 127.58 206.139 129.666 206.603 131.72C206.996 133.623 207.411 135.323 207.759 136.758C208.106 138.194 208.386 139.349 208.559 140.158C208.65 140.558 208.71 140.913 208.748 141.087C208.779 141.195 208.792 141.307 208.786 141.419C208.63 141.021 208.504 140.612 208.408 140.195L207.479 136.849C207.101 135.421 206.656 133.722 206.24 131.818C205.75 129.75 205.43 127.645 205.281 125.525C205.225 124.415 205.316 123.303 205.553 122.217C205.74 121.209 205.992 120.215 206.308 119.24C206.928 117.382 207.63 115.766 208.204 114.413C208.778 113.061 209.239 111.958 209.549 111.195C209.701 110.782 209.882 110.381 210.093 109.994Z" fill="#263238"/>
<path d="M191.646 144.343C191.449 144.37 191.249 144.347 191.064 144.275C190.556 144.116 190.084 143.859 189.674 143.519C189.062 143.019 188.529 142.428 188.095 141.767C187.605 140.93 187.263 140.015 187.083 139.062C186.9 138.148 186.647 137.249 186.328 136.373C186.043 135.676 185.613 135.047 185.066 134.53C184.548 134.066 183.914 133.753 183.231 133.623C183.231 133.623 183.435 133.563 183.812 133.623C184.344 133.729 184.838 133.971 185.248 134.326C185.858 134.844 186.341 135.495 186.66 136.229C187.021 137.116 187.299 138.034 187.491 138.972C187.664 139.883 187.983 140.76 188.435 141.57C188.83 142.216 189.319 142.799 189.886 143.3C190.259 143.647 190.685 143.932 191.147 144.146C191.449 144.275 191.653 144.305 191.646 144.343Z" fill="#FAFAFA"/>
<path d="M173.191 151.383C173.123 151.383 173.191 150.718 173.025 149.661C172.835 148.287 172.467 146.943 171.93 145.664C171.407 144.383 170.716 143.176 169.875 142.076C169.225 141.23 168.727 140.792 168.772 140.739C169.284 141.035 169.733 141.427 170.094 141.895C171.016 142.975 171.759 144.197 172.292 145.513C172.85 146.822 173.189 148.212 173.297 149.63C173.372 150.216 173.336 150.81 173.191 151.383Z" fill="#FAFAFA"/>
<path d="M241.714 137.242C241.714 137.242 241.238 137.242 240.385 137.347C239.176 137.465 237.98 137.69 236.811 138.02C235.301 138.42 233.609 139.047 231.69 139.742C229.613 140.548 227.463 141.147 225.269 141.532C221.26 142.145 217.164 141.792 213.318 140.505C212.16 140.111 211.034 139.628 209.949 139.062C209.564 138.858 209.277 138.685 209.081 138.571C208.884 138.458 208.786 138.36 208.786 138.36C209.201 138.525 209.607 138.712 210.002 138.919C211.105 139.426 212.237 139.865 213.394 140.233C217.219 141.432 221.268 141.742 225.231 141.14C227.401 140.756 229.53 140.172 231.592 139.395C233.51 138.722 235.255 138.11 236.766 137.74C237.952 137.429 239.167 137.244 240.392 137.189C240.724 137.169 241.057 137.169 241.389 137.189C241.499 137.192 241.609 137.209 241.714 137.242Z" fill="#FAFAFA"/>
<g opacity="0.3">
<path opacity="0.3" d="M218.712 96.7294C220.895 97.9515 223.352 98.5988 225.853 98.6107C228.354 98.6226 230.818 97.9986 233.012 96.7974C228.217 97.0341 223.418 97.0517 218.614 96.8503" fill="black"/>
</g>
<path d="M234.968 96.2913C234.761 96.3972 234.54 96.4735 234.311 96.518C233.705 96.6945 233.086 96.8258 232.46 96.9108C230.397 97.1785 228.313 97.2494 226.236 97.1223C223.803 97.0165 221.62 96.873 220.034 96.8654C218.448 96.8579 217.466 96.9108 217.466 96.8654C217.685 96.7932 217.914 96.7525 218.145 96.7446C218.591 96.6841 219.233 96.6388 220.034 96.6086C221.628 96.5482 223.811 96.6464 226.251 96.7521C228.31 96.8751 230.376 96.8422 232.43 96.6539C234.001 96.4651 234.953 96.2233 234.968 96.2913Z" fill="#263238"/>
<path d="M224.801 131.108C225.246 131.992 251.376 152.833 258.869 158.793C259.13 159.001 259.347 159.259 259.508 159.55C259.668 159.842 259.77 160.163 259.806 160.495C259.843 160.826 259.814 161.161 259.72 161.481C259.627 161.801 259.471 162.099 259.262 162.359L241.827 184.001C241.41 184.521 240.805 184.856 240.142 184.931C239.48 185.006 238.815 184.815 238.292 184.402L204.896 157.962C204.627 157.75 204.405 157.486 204.242 157.185C204.08 156.884 203.98 156.554 203.949 156.213C203.917 155.873 203.956 155.529 204.062 155.204C204.167 154.879 204.338 154.579 204.563 154.321L224.801 131.108Z" fill="#263238"/>
<path d="M224.4 127.414C224.861 128.328 252.841 150.627 259.187 155.674C259.519 155.942 259.732 156.331 259.779 156.755C259.825 157.18 259.702 157.606 259.436 157.94L240.86 181.01C240.592 181.342 240.203 181.555 239.779 181.602C239.354 181.649 238.928 181.525 238.594 181.259L203.74 153.626C203.569 153.491 203.426 153.322 203.322 153.13C203.218 152.938 203.154 152.727 203.133 152.51C203.113 152.293 203.136 152.073 203.203 151.865C203.27 151.657 203.378 151.465 203.521 151.3L224.4 127.414Z" fill="#BF3939"/>
<path opacity="0.4" d="M224.4 127.414C224.861 128.336 253.377 151.051 259.36 155.817C259.504 155.931 259.623 156.072 259.711 156.232C259.8 156.393 259.855 156.569 259.875 156.751C259.895 156.933 259.878 157.117 259.826 157.293C259.774 157.468 259.687 157.632 259.572 157.774L240.687 181.191C240.455 181.478 240.12 181.663 239.753 181.704C239.387 181.745 239.019 181.639 238.73 181.41L203.528 153.46C203.38 153.344 203.256 153.198 203.166 153.032C203.075 152.867 203.019 152.684 203.002 152.496C202.984 152.308 203.005 152.118 203.063 151.939C203.121 151.759 203.215 151.593 203.339 151.451L224.4 127.414Z" fill="black"/>
<path d="M227.286 127.822C236.147 135.202 260.101 154.261 260.101 154.261L241.533 177.323C240.995 177.986 240.219 178.411 239.371 178.507C238.524 178.603 237.672 178.362 237 177.837L204.775 152.289C204.43 152.015 204.143 151.674 203.934 151.286C203.724 150.898 203.595 150.471 203.555 150.032C203.515 149.593 203.564 149.15 203.7 148.731C203.835 148.311 204.055 147.923 204.344 147.591L221.167 128.336C221.92 127.472 222.98 126.935 224.122 126.839C225.264 126.744 226.399 127.096 227.286 127.822Z" fill="#455A64"/>
<path d="M249.472 145.763L249.94 149.026L258.431 156.316L260.101 154.238L249.472 145.763Z" fill="#FAFAFA"/>
<path d="M224.649 177.973L232.657 171.295L228.766 162.034L223.373 166.929C222.108 167.265 220.817 167.49 219.513 167.601C218.842 167.668 218.164 167.617 217.511 167.45C216.694 167.278 215.903 166.996 215.162 166.612C214.519 166.181 213.696 166.763 213.938 167.413C214.18 168.062 215.917 169.286 218.364 169.679C220.563 170.019 218.077 171.643 216.665 172.504C216.54 172.58 216.448 172.699 216.406 172.838C216.365 172.978 216.376 173.128 216.438 173.259C217.171 174.921 220.057 180.368 224.649 177.973Z" fill="#FFBE9D"/>
<path d="M237.355 112.404C236.759 104.095 244.471 95.6643 248.973 102.652C253.914 110.312 264.739 128.336 267.405 140.573C268.652 146.276 234.462 173.471 232.355 175.148C232.294 175.201 231.743 174.445 231.697 174.393L223.244 165.63C223.207 165.577 225.231 163.507 225.284 163.454L249.359 139.871C249.375 139.847 249.384 139.82 249.384 139.791C249.384 139.763 249.375 139.735 249.359 139.712C248.55 138.239 237.922 118.848 237.355 112.6V112.404Z" fill="#BF3939"/>
<path d="M256.376 139.712C256.324 139.863 254.73 139.357 252.698 139.311C250.666 139.266 249.049 139.651 249.004 139.493C248.958 139.334 250.582 138.692 252.72 138.737C254.858 138.783 256.376 139.583 256.376 139.712Z" fill="#263238"/>
<path d="M254.866 142.371C254.737 142.477 253.763 141.396 252.199 140.603C250.635 139.81 249.177 139.614 249.215 139.448C249.253 139.281 250.779 139.244 252.448 140.12C254.118 140.996 254.979 142.303 254.866 142.371Z" fill="#263238"/>
<path d="M249.359 139.871C249.254 139.733 249.165 139.583 249.094 139.425L248.407 138.126L245.959 133.314C243.905 129.197 241.102 123.576 238.013 117.367C236.394 114.478 235.425 111.271 235.172 107.97C234.961 104.948 235.837 102.085 237.438 100.416C238.156 99.647 239.054 99.0704 240.052 98.7388C240.8 98.4843 241.592 98.3891 242.379 98.4593C242.874 98.5016 243.358 98.6241 243.814 98.8219C243.973 98.8899 244.078 98.9654 244.154 99.0032C244.23 99.041 244.267 99.0712 244.26 99.0787C243.661 98.8181 243.022 98.6598 242.371 98.6104C241.6 98.564 240.828 98.6798 240.105 98.9503C239.153 99.2887 238.299 99.8569 237.62 100.605C236.109 102.259 235.263 105.016 235.489 107.985C235.78 111.229 236.758 114.373 238.36 117.208C241.419 123.433 244.184 129.076 246.209 133.208C247.183 135.232 247.976 136.879 248.543 138.073L249.162 139.41C249.239 139.558 249.305 139.712 249.359 139.871Z" fill="#263238"/>
<g opacity="0.3">
<path opacity="0.3" d="M235.588 107.736C234.711 115.101 234.077 122.549 234.757 129.929C235.119 133.82 239.236 138.692 242.477 140.875L241.608 137.529C242.084 135.361 243.67 128.509 243.67 128.509C243.67 128.509 240.717 122.662 239.538 120.525C237.272 116.615 235.922 112.242 235.588 107.736Z" fill="black"/>
</g>
<path d="M264.996 133.246C264.996 133.246 264.829 133.434 264.474 133.729C264.301 133.873 264.074 134.039 263.802 134.22C263.53 134.401 263.228 134.613 262.873 134.817C262.046 135.304 261.182 135.726 260.289 136.078C259.195 136.507 258.069 136.848 256.92 137.098C255.771 137.339 254.604 137.486 253.43 137.536C252.469 137.573 251.506 137.528 250.552 137.4C250.186 137.357 249.823 137.291 249.465 137.204C249.193 137.156 248.925 137.088 248.664 137C248.429 136.952 248.205 136.865 247.999 136.743C247.999 136.675 248.981 136.97 250.59 137.121C251.529 137.208 252.473 137.229 253.415 137.181C254.565 137.101 255.708 136.945 256.837 136.713C257.966 136.465 259.077 136.139 260.161 135.738C261.043 135.405 261.904 135.017 262.737 134.575C264.157 133.827 264.95 133.193 264.996 133.246Z" fill="#FAFAFA"/>
<path d="M250.96 158.559C250.651 157.871 250.398 157.158 250.205 156.429C249.675 154.703 249.011 153.021 248.218 151.398C247.774 150.514 247.251 149.672 246.654 148.882C246.167 148.245 245.601 147.671 244.97 147.175C243.882 146.337 243.066 146.012 243.104 145.944C243.307 145.972 243.504 146.036 243.686 146.133C244.195 146.355 244.681 146.629 245.136 146.949C245.813 147.433 246.42 148.007 246.941 148.656C247.569 149.452 248.113 150.31 248.566 151.217C249.376 152.859 250.014 154.58 250.469 156.353C250.707 157.07 250.871 157.809 250.96 158.559Z" fill="#FAFAFA"/>
<path d="M242.024 166.906C241.332 166.748 240.666 166.493 240.045 166.151C238.509 165.414 237.08 164.471 235.799 163.348C234.518 162.224 233.392 160.933 232.453 159.511C232.034 158.942 231.703 158.313 231.471 157.645C231.524 157.645 231.924 158.31 232.687 159.352C234.652 162.076 237.212 164.316 240.173 165.902C241.268 166.536 242.024 166.846 242.024 166.906Z" fill="#FAFAFA"/>
<path d="M250.499 105.122C250.321 105.244 250.121 105.331 249.91 105.379C249.356 105.55 248.787 105.672 248.21 105.741C246.753 105.96 244.713 105.832 242.522 105.953C241.493 105.997 240.476 106.187 239.501 106.519C238.713 106.797 237.983 107.217 237.348 107.758C236.779 108.282 236.301 108.898 235.935 109.579C235.949 109.363 236.014 109.153 236.124 108.967C236.376 108.435 236.727 107.955 237.159 107.554C237.798 106.954 238.55 106.486 239.372 106.18C240.373 105.821 241.422 105.612 242.484 105.56C244.751 105.439 246.737 105.605 248.173 105.462C249.608 105.318 250.477 105.046 250.499 105.122Z" fill="#FAFAFA"/>
<path d="M258.303 119.18C258.247 119.409 258.132 119.62 257.97 119.792C257.566 120.281 257.047 120.663 256.46 120.902C255.582 121.226 254.659 121.412 253.725 121.454C252.61 121.535 251.5 121.679 250.401 121.884C248.405 122.276 246.46 122.889 244.6 123.712C243.172 124.347 242.333 124.838 242.333 124.785C242.496 124.622 242.682 124.484 242.885 124.377C243.412 124.043 243.956 123.738 244.517 123.463C246.366 122.55 248.33 121.889 250.356 121.499C252.728 120.985 254.964 121.22 256.399 120.638C257.16 120.344 257.821 119.838 258.303 119.18Z" fill="#FAFAFA"/>
<path d="M71.6123 44.0778C73.1575 44.1962 74.6628 44.626 76.0376 45.3413C77.4124 46.0566 78.6282 47.0427 79.612 48.2401C81.5557 50.6462 82.9227 53.4654 83.6081 56.4815C85.1189 62.2453 84.0991 69.0363 82.407 74.7472C76.19 72.481 72.4055 65.7881 70.6983 62.283C68.0015 56.7308 66.4907 45.075 71.6501 44.0778" fill="#BF3939"/>
<path d="M91.2755 81.8027C90.3554 80.3432 89.8361 78.6672 89.7698 76.9432C89.7035 75.2192 90.0926 73.5082 90.8978 71.9824C91.7332 70.4725 92.8607 69.1438 94.2147 68.0739C95.5687 67.0039 97.122 66.2141 98.7842 65.7503C100.295 65.2971 102.078 65.1158 103.392 66.0147C103.98 66.4728 104.435 67.0782 104.712 67.7696C104.99 68.4609 105.079 69.2134 104.971 69.9504C104.725 71.425 104.094 72.8086 103.143 73.9616C100.076 78.0408 96.3442 81.425 91.2755 81.8027Z" fill="#BF3939"/>
<g opacity="0.3">
<path opacity="0.3" d="M91.2755 81.8027C90.3554 80.3432 89.8361 78.6672 89.7698 76.9432C89.7035 75.2192 90.0926 73.5082 90.8978 71.9824C91.7332 70.4725 92.8607 69.1438 94.2147 68.0739C95.5687 67.0039 97.122 66.2141 98.7842 65.7503C100.295 65.2971 102.078 65.1158 103.392 66.0147C103.98 66.4728 104.435 67.0782 104.712 67.7696C104.99 68.4609 105.079 69.2134 104.971 69.9504C104.725 71.425 104.094 72.8086 103.143 73.9616C100.076 78.0408 96.3442 81.425 91.2755 81.8027Z" fill="white"/>
</g>
<path d="M84.643 87.9139C82.7071 84.8335 80.0652 82.2586 76.9361 80.4024C73.807 78.5462 70.2807 77.4622 66.6493 77.24C64.7986 77.1494 62.5928 77.5044 61.8072 79.1738C61.0216 80.8433 62.1547 82.7847 63.4388 84.1217C66.1674 86.8558 69.6439 88.7213 73.4305 89.4835C77.2172 90.2457 81.1447 89.8704 84.7186 88.4049" fill="#BF3939"/>
<g opacity="0.3">
<path opacity="0.3" d="M84.643 87.9139C82.7071 84.8335 80.0652 82.2586 76.9361 80.4024C73.807 78.5462 70.2807 77.4622 66.6493 77.24C64.7986 77.1494 62.5928 77.5044 61.8072 79.1738C61.0216 80.8433 62.1547 82.7847 63.4388 84.1217C66.1674 86.8558 69.6439 88.7213 73.4305 89.4835C77.2172 90.2457 81.1447 89.8704 84.7186 88.4049" fill="white"/>
</g>
<path d="M91.3283 101.594C91.2053 101.195 91.1193 100.785 91.0715 100.37C90.9355 99.5773 90.7467 98.4291 90.5578 97.0089C89.9886 93.2963 89.9048 89.5254 90.3085 85.7912C90.7437 82.0276 92.1782 78.4491 94.4633 75.4271C95.1654 74.5265 95.9746 73.7148 96.873 73.0098C97.1154 72.8158 97.3675 72.6342 97.6284 72.4659C97.7157 72.3991 97.8124 72.3456 97.9154 72.3073C96.7212 73.2815 95.6371 74.3834 94.6823 75.5933C92.5056 78.617 91.1331 82.1443 90.6938 85.8441C90.3047 89.5484 90.3529 93.2857 90.8373 96.9787C90.9959 98.346 91.1244 99.4867 91.2226 100.348C91.2874 100.76 91.3228 101.177 91.3283 101.594Z" fill="#263238"/>
<path d="M73.5688 52.8556C73.6605 53.0083 73.7413 53.1674 73.8105 53.3315C73.9692 53.6865 74.1807 54.1473 74.4375 54.729C74.9739 55.9376 75.7293 57.7053 76.6509 59.896C78.4865 64.2697 80.9415 70.3507 83.5024 77.1267C86.0632 83.9027 88.2463 90.0894 89.7647 94.5916C90.5201 96.8578 91.1244 98.6633 91.5247 99.9248C91.706 100.529 91.8571 101.02 91.9704 101.39C92.0357 101.556 92.0814 101.728 92.1064 101.904C92.0195 101.748 91.9486 101.583 91.8949 101.413C91.7665 101.05 91.5927 100.574 91.3737 99.9777C90.9204 98.6859 90.2783 96.8881 89.5003 94.6898C87.9139 90.2179 85.7232 84.0462 83.1398 77.2778C80.5563 70.5094 78.1617 64.4359 76.394 60.0093L74.294 54.797C74.0674 54.2078 73.8785 53.7319 73.735 53.3693C73.6605 53.2048 73.6048 53.0325 73.5688 52.8556Z" fill="#263238"/>
<path d="M69.5954 82.0142C69.9944 82.0063 70.3934 82.0291 70.7889 82.0822C71.2535 82.1177 71.7152 82.1833 72.1713 82.2786C72.7852 82.3777 73.393 82.5113 73.9918 82.679L75.0343 82.966C75.3969 83.0718 75.7897 83.2228 76.1447 83.3513C76.9545 83.6481 77.7487 83.986 78.5242 84.3635C82.1019 86.1057 85.2316 88.6462 87.6722 91.7891C88.2085 92.5445 88.7373 93.2168 89.183 93.9194C89.3945 94.2669 89.6136 94.5917 89.7873 94.9241L90.2859 95.891C90.6183 96.4953 90.8298 97.0845 91.0413 97.5831C91.2265 98.0129 91.3829 98.4545 91.5096 98.905C91.6455 99.2814 91.7516 99.6678 91.8269 100.061C91.7363 100.061 91.2981 98.4367 90.029 96.0194C89.8629 95.7172 89.6967 95.4 89.5154 95.0751C89.3341 94.7503 89.115 94.4406 88.8959 94.1007C88.4285 93.3802 87.9242 92.6843 87.3851 92.0157C84.947 88.9467 81.869 86.4461 78.3656 84.6883C77.5498 84.3106 76.7868 83.9329 76.0239 83.661C75.6537 83.525 75.2685 83.3664 74.9436 83.2531L73.9163 82.9434C71.3026 82.1955 69.5803 82.1049 69.5954 82.0142Z" fill="#263238"/>
<path d="M79.4987 96.0118H101.881V109.111C101.881 111.573 100.903 113.934 99.1622 115.675C97.4211 117.416 95.0597 118.394 92.5975 118.394H88.7827C86.3204 118.394 83.959 117.416 82.2179 115.675C80.4769 113.934 79.4987 111.573 79.4987 109.111V96.0118Z" fill="#BF3939"/>
<path opacity="0.3" d="M79.4987 96.0118H101.881V109.111C101.881 111.573 100.903 113.934 99.1622 115.675C97.4211 117.416 95.0597 118.394 92.5975 118.394H88.7827C86.3204 118.394 83.959 117.416 82.2179 115.675C80.4769 113.934 79.4987 111.573 79.4987 109.111V96.0118Z" fill="black"/>
<path d="M94.6219 96.0571C94.573 96.2912 94.4863 96.5157 94.3651 96.7219C94.0803 97.3031 93.7467 97.859 93.3679 98.3838C92.1221 100.136 90.4716 101.561 88.5566 102.538C86.6417 103.516 84.519 104.016 82.3692 103.996C81.7236 103.996 81.0792 103.94 80.443 103.83C80.2055 103.807 79.9733 103.746 79.7556 103.649C79.7556 103.581 80.7527 103.777 82.3617 103.724C84.4552 103.662 86.5089 103.136 88.3743 102.184C90.2398 101.231 91.8705 99.8767 93.1489 98.2176C94.1309 96.9636 94.5539 96.0571 94.6219 96.0571Z" fill="#FAFAFA"/>
<path d="M101.67 111.165C101.411 111.158 101.156 111.107 100.914 111.014C100.27 110.808 99.6521 110.529 99.0713 110.183C97.1153 109.037 95.6332 107.229 94.8922 105.087C94.1512 102.944 94.2 100.607 95.0298 98.4971C95.2754 97.8678 95.5895 97.2674 95.9665 96.7068C96.0969 96.4959 96.2572 96.3051 96.4425 96.1403C96.0036 96.9312 95.62 97.7515 95.2942 98.5953C94.5657 100.649 94.5577 102.89 95.2716 104.95C95.9854 107.009 97.3787 108.764 99.2223 109.926C100.009 110.395 100.826 110.809 101.67 111.165Z" fill="#FAFAFA"/>
<path d="M95.9363 117.783C95.9154 116.665 95.7581 115.554 95.468 114.474C95.1039 113.323 94.5386 112.247 93.7985 111.294C92.8893 110.132 91.7662 109.155 90.4898 108.416C88.1295 107.094 85.4078 106.565 82.7243 106.905C81.6145 107.089 80.5171 107.341 79.4383 107.66C79.7002 107.503 79.979 107.377 80.2692 107.282C81.0513 106.994 81.8615 106.789 82.6865 106.671C85.4378 106.229 88.2575 106.733 90.6863 108.098C92.0096 108.869 93.1654 109.896 94.0856 111.12C94.8371 112.115 95.3956 113.243 95.7323 114.444C95.9559 115.25 96.0603 116.085 96.0421 116.921C96.0424 117.212 96.0069 117.501 95.9363 117.783Z" fill="#FAFAFA"/>
<path d="M99.1241 118.394H28.6676V322.905H99.1241V118.394Z" fill="#263238"/>
<path d="M136.947 118.394H59.8053V322.905H136.947V118.394Z" fill="#455A64"/>
<path d="M133.502 176.44H64.7532V218.659H133.502V176.44Z" fill="#455A64"/>
<path d="M87.9214 276.138H111.467V277.203C111.472 277.421 111.434 277.637 111.353 277.84C111.273 278.042 111.153 278.226 111 278.381C110.847 278.536 110.664 278.659 110.463 278.742C110.262 278.825 110.046 278.867 109.828 278.865H89.5531C89.1223 278.865 88.7092 278.694 88.4047 278.389C88.1001 278.085 87.929 277.671 87.929 277.241V276.176L87.9214 276.138Z" fill="#263238"/>
<path d="M133.351 276.138C133.351 276.138 133.351 276.387 133.351 276.893C133.351 277.399 133.351 278.132 133.351 279.084C133.351 281.033 133.351 283.873 133.351 287.522C133.351 294.872 133.404 305.44 133.434 318.38V318.531H133.283L64.5417 318.576H64.3075V318.38C64.3075 303.438 64.3075 289.184 64.3075 276.213V276.032H64.4888L114.089 276.077H128.245H132.022H132.981H133.298H132.959H131.977H128.2L113.998 276.138L64.519 276.266L64.7003 276.085C64.7003 289.055 64.7003 303.279 64.7003 318.252L64.5039 318.055L133.246 318.093L133.087 318.252C133.087 305.349 133.155 294.834 133.17 287.492C133.17 283.828 133.17 280.972 133.208 279.016C133.208 278.049 133.208 277.309 133.208 276.795C133.336 276.402 133.351 276.138 133.351 276.138Z" fill="#263238"/>
<path d="M110.553 286.449H90.0818V291.979H110.553V286.449Z" fill="#E0E0E0"/>
<path d="M133.502 223.433H64.7532V265.653H133.502V223.433Z" fill="#455A64"/>
<path d="M87.8307 228.91H111.377V229.975C111.377 230.406 111.206 230.819 110.901 231.123C110.596 231.428 110.183 231.599 109.753 231.599H89.4322C89.0014 231.599 88.5883 231.428 88.2838 231.123C87.9792 230.819 87.8081 230.406 87.8081 229.975V228.91H87.8307Z" fill="#263238"/>
<path d="M134.001 228.91C134.001 228.91 134.001 229.159 134.001 229.665C134.001 230.171 134.001 230.904 134.001 231.856C134.001 233.805 134.001 236.645 134.039 240.294C134.039 247.644 134.092 258.212 134.122 271.152V271.303H134.001L65.2593 271.311H65.0251V271.114C65.0251 256.172 65.0251 241.918 65.0251 228.948V228.766H65.2064L114.806 228.812L128.962 228.85H132.739H133.699H134.001H133.661H132.679H128.902L114.7 228.91L65.2215 229.046L65.4028 228.857C65.4028 241.827 65.4028 256.052 65.4028 271.024L65.2064 270.827L133.948 270.865L133.79 271.024C133.827 258.121 133.857 247.606 133.873 240.264C133.873 236.6 133.873 233.745 133.873 231.788C133.873 230.821 133.873 230.081 133.873 229.567C134.001 229.182 134.001 228.91 134.001 228.91Z" fill="#263238"/>
<path d="M109.843 238.896H89.3718V244.426H109.843V238.896Z" fill="#E0E0E0"/>
<path d="M88.08 124.007H111.626V125.072C111.626 125.503 111.455 125.916 111.15 126.221C110.846 126.525 110.433 126.696 110.002 126.696H89.7042C89.2734 126.696 88.8603 126.525 88.5557 126.221C88.2512 125.916 88.08 125.503 88.08 125.072V124.007Z" fill="#263238"/>
<path d="M133.502 124.007C133.502 124.007 133.502 124.249 133.502 124.762C133.502 125.276 133.502 126.001 133.502 126.961C133.502 128.902 133.502 131.75 133.54 135.399C133.54 142.741 133.586 153.309 133.623 166.249V166.4H133.465L64.723 166.438H64.5039V166.242C64.5039 151.3 64.5039 137.053 64.5039 124.083V123.901H64.6852L114.277 123.947H128.441H132.218H133.178H133.495H133.155H132.181H128.403L114.209 124.007L64.7305 124.143L64.9118 123.962C64.9118 136.932 64.9118 151.156 64.9118 166.121L64.7154 165.924L133.457 165.97L133.306 166.121C133.306 153.219 133.366 142.703 133.389 135.361C133.389 131.705 133.389 128.849 133.427 126.893C133.427 125.926 133.427 125.185 133.427 124.672C133.427 124.158 133.502 124.007 133.502 124.007Z" fill="#263238"/>
<path d="M109.722 132.966H89.2509V138.496H109.722V132.966Z" fill="#E0E0E0"/>
<path d="M64.9722 190.128V174.264C64.9722 173.607 65.2333 172.977 65.6979 172.512C66.1626 172.047 66.7928 171.786 67.45 171.786H109.707C110.354 171.786 110.975 172.043 111.433 172.501C111.89 172.959 112.147 173.579 112.147 174.226V190.09L64.9722 190.128Z" fill="#BF3939"/>
<path opacity="0.3" d="M64.9722 190.128V174.264C64.9722 173.607 65.2333 172.977 65.6979 172.512C66.1626 172.047 66.7928 171.786 67.45 171.786H109.707C110.354 171.786 110.975 172.043 111.433 172.501C111.89 172.959 112.147 173.579 112.147 174.226V190.09L64.9722 190.128Z" fill="black"/>
<path d="M69.2931 190.128V176.183C69.293 176.117 69.318 176.054 69.3629 176.006C69.4079 175.959 69.4694 175.93 69.5349 175.926H112.147V190.128H69.2931Z" fill="#FAFAFA"/>
<path d="M121.748 173.252L120.532 190.128H74.6716L75.8954 174.468C76.0163 172.957 77.0587 171.809 78.3051 171.817L100.612 171.937C100.574 171.491 100.709 171.048 100.991 170.7C101.273 170.352 101.679 170.127 102.123 170.072H119.346C120.759 170.087 121.869 171.545 121.748 173.252Z" fill="#BF3939"/>
<path d="M83.7516 188.488V172.625C83.7516 172.299 83.8159 171.976 83.9409 171.675C84.0659 171.374 84.2491 171.1 84.4799 170.87C84.7108 170.64 84.9849 170.458 85.2863 170.334C85.5878 170.209 85.9108 170.146 86.2368 170.147H128.494C129.141 170.147 129.762 170.404 130.219 170.862C130.677 171.319 130.934 171.94 130.934 172.587V188.496L83.7516 188.488Z" fill="#BF3939"/>
<path opacity="0.3" d="M83.7516 188.488V172.625C83.7516 172.299 83.8159 171.976 83.9409 171.675C84.0659 171.374 84.2491 171.1 84.4799 170.87C84.7108 170.64 84.9849 170.458 85.2863 170.334C85.5878 170.209 85.9108 170.146 86.2368 170.147H128.494C129.141 170.147 129.762 170.404 130.219 170.862C130.677 171.319 130.934 171.94 130.934 172.587V188.496L83.7516 188.488Z" fill="black"/>
<path d="M88.08 188.488V174.536C88.079 174.504 88.0845 174.471 88.0962 174.441C88.1079 174.411 88.1256 174.383 88.1481 174.36C88.1707 174.337 88.1976 174.318 88.2275 174.306C88.2573 174.293 88.2894 174.287 88.3218 174.287H130.934V188.488H88.08Z" fill="#FAFAFA"/>
<path d="M140.535 171.597L139.289 188.488H93.451L94.72 172.821C94.7174 172.159 94.9636 171.519 95.4099 171.03C95.8561 170.54 96.4699 170.236 97.1298 170.177L119.437 170.291C119.398 169.845 119.534 169.401 119.816 169.053C120.098 168.705 120.503 168.48 120.948 168.425H138.148C139.546 168.425 140.656 169.898 140.535 171.597Z" fill="#BF3939"/>
<path d="M109.889 189.402V173.539C109.888 173.213 109.951 172.89 110.075 172.588C110.199 172.287 110.381 172.013 110.612 171.782C110.842 171.551 111.115 171.368 111.416 171.243C111.717 171.118 112.04 171.054 112.366 171.054H154.624C154.945 171.054 155.262 171.117 155.559 171.24C155.856 171.363 156.125 171.544 156.351 171.771C156.578 171.998 156.758 172.268 156.88 172.565C157.002 172.862 157.064 173.18 157.063 173.501V189.402H109.889Z" fill="#BF3939"/>
<path opacity="0.3" d="M109.889 189.402V173.539C109.888 173.213 109.951 172.89 110.075 172.588C110.199 172.287 110.381 172.013 110.612 171.782C110.842 171.551 111.115 171.368 111.416 171.243C111.717 171.118 112.04 171.054 112.366 171.054H154.624C154.945 171.054 155.262 171.117 155.559 171.24C155.856 171.363 156.125 171.544 156.351 171.771C156.578 171.998 156.758 172.268 156.88 172.565C157.002 172.862 157.064 173.18 157.063 173.501V189.402H109.889Z" fill="black"/>
<path d="M114.217 189.402V175.458C114.215 175.393 114.238 175.33 114.282 175.282C114.326 175.234 114.386 175.205 114.451 175.201H157.063V189.402H114.217Z" fill="#FAFAFA"/>
<path d="M159.587 171.567H116.362V196.904H159.587V171.567Z" fill="#E0E0E0"/>
<path d="M163.144 160.319H119.588V187.333H163.144V160.319Z" fill="#F5F5F5"/>
<path d="M127.527 185.625C127.414 185.625 127.331 180.957 127.331 175.201C127.331 169.445 127.414 164.776 127.527 164.776C127.641 164.776 127.724 169.445 127.724 175.201C127.724 180.957 127.633 185.625 127.527 185.625Z" fill="#263238"/>
<path d="M130.617 185.625C130.511 185.625 130.42 180.957 130.42 175.201C130.42 169.445 130.511 164.776 130.617 164.776C130.723 164.776 130.813 169.445 130.813 175.201C130.813 180.957 130.73 185.625 130.617 185.625Z" fill="#263238"/>
<path d="M134.001 185.625C133.888 185.625 133.805 180.957 133.805 175.201C133.805 169.445 133.888 164.776 134.001 164.776C134.114 164.776 134.197 169.445 134.197 175.201C134.197 180.957 134.099 185.625 134.001 185.625Z" fill="#263238"/>
<path d="M137.363 185.625C137.257 185.625 137.166 180.957 137.166 175.201C137.166 169.445 137.257 164.776 137.363 164.776C137.468 164.776 137.559 169.445 137.559 175.201C137.559 180.957 137.468 185.625 137.363 185.625Z" fill="#263238"/>
<path d="M140.732 185.625C140.626 185.625 140.535 180.957 140.535 175.201C140.535 169.445 140.626 164.776 140.732 164.776C140.837 164.776 140.928 169.445 140.928 175.201C140.928 180.957 140.845 185.625 140.732 185.625Z" fill="#263238"/>
<path d="M144.108 185.625C143.995 185.625 143.912 180.957 143.912 175.201C143.912 169.445 143.995 164.776 144.108 164.776C144.222 164.776 144.305 169.445 144.305 175.201C144.305 180.957 144.214 185.625 144.108 185.625Z" fill="#263238"/>
<path d="M147.477 185.625C147.372 185.625 147.281 180.957 147.281 175.201C147.281 169.445 147.372 164.776 147.477 164.776C147.583 164.776 147.674 169.445 147.674 175.201C147.674 180.957 147.598 185.625 147.477 185.625Z" fill="#263238"/>
<path d="M150.846 185.625C150.741 185.625 150.65 180.957 150.65 175.201C150.65 169.445 150.741 164.776 150.846 164.776C150.952 164.776 151.043 169.445 151.043 175.201C151.043 180.957 150.96 185.625 150.846 185.625Z" fill="#263238"/>
<path d="M154.223 185.625C154.11 185.625 154.019 180.957 154.019 175.201C154.019 169.445 154.11 164.776 154.223 164.776C154.336 164.776 154.42 169.445 154.42 175.201C154.42 180.957 154.329 185.625 154.223 185.625Z" fill="#263238"/>
<path d="M157.592 185.625C157.479 185.625 157.396 180.957 157.396 175.201C157.396 169.445 157.479 164.776 157.592 164.776C157.706 164.776 157.789 169.445 157.789 175.201C157.789 180.957 157.698 185.625 157.592 185.625Z" fill="#263238"/>
<path d="M166.665 175.51L165.456 189.402H119.588L120.819 176.508C120.876 175.91 121.153 175.355 121.598 174.951C122.042 174.547 122.621 174.324 123.221 174.324L145.536 174.423C145.536 174.022 145.695 173.638 145.979 173.354C146.262 173.071 146.646 172.912 147.047 172.912H164.247C164.581 172.909 164.912 172.975 165.219 173.107C165.526 173.239 165.802 173.433 166.029 173.678C166.257 173.922 166.431 174.212 166.54 174.527C166.65 174.843 166.692 175.178 166.665 175.51Z" fill="#BF3939"/>
<path d="M133.329 181.682H64.5794V223.902H133.329V181.682Z" fill="#263238"/>
<path d="M174.929 181.682H106.18V223.902H174.929V181.682Z" fill="#455A64"/>
<path d="M174.929 223.72C174.929 223.72 174.929 223.456 174.929 222.965C174.929 222.474 174.929 221.719 174.929 220.759C174.929 218.825 174.929 215.993 174.929 212.359C174.929 205.092 174.876 194.637 174.846 181.826L174.997 181.984L106.255 182.022L106.451 181.826C106.451 196.677 106.451 210.841 106.451 223.728L106.27 223.547L155.719 223.637L169.913 223.683H173.69H174.664H175.004H174.687H173.728H169.951L155.794 223.735L106.225 223.819H106.044V223.72C106.044 210.833 106.044 196.669 106.044 181.818V181.622H106.247L174.989 181.667H175.148V181.818C175.148 194.66 175.08 205.153 175.065 212.442C175.065 216.061 175.065 218.886 175.027 220.812C175.027 221.764 175.027 222.489 175.027 222.988C174.944 223.456 174.929 223.72 174.929 223.72Z" fill="#263238"/>
<path d="M130.919 181.682H154.465V182.611C154.465 183.042 154.294 183.455 153.989 183.76C153.685 184.064 153.272 184.235 152.841 184.235H132.543C132.112 184.235 131.699 184.064 131.395 183.76C131.09 183.455 130.919 183.042 130.919 182.611V181.682Z" fill="#263238"/>
<path d="M153.37 191.147H132.898V196.677H153.37V191.147Z" fill="#E0E0E0"/>
<path d="M152.516 155.371C151.876 158.01 151.494 160.704 151.375 163.416C151.375 163.764 151.375 164.172 151.677 164.361C151.98 164.55 152.433 164.028 152.682 163.719C153.166 163.167 154.948 160.078 154.948 160.078C156.2 159.963 157.367 159.393 158.226 158.475C159.085 157.558 159.577 156.356 159.609 155.099" fill="#FFBE9D"/>
<path d="M159.587 155.099C159.613 155.285 159.613 155.473 159.587 155.658C159.539 156.179 159.409 156.689 159.201 157.169C158.875 157.911 158.378 158.566 157.751 159.08C156.938 159.726 155.963 160.134 154.933 160.259L155.069 160.168C154.503 161.15 153.876 162.223 153.166 163.311C153.052 163.469 152.954 163.628 152.818 163.794C152.682 163.96 152.584 164.081 152.44 164.232C152.295 164.408 152.096 164.533 151.874 164.587C151.743 164.6 151.611 164.571 151.498 164.503C151.385 164.435 151.297 164.332 151.247 164.21C151.123 163.84 151.092 163.446 151.156 163.061C151.156 162.714 151.202 162.374 151.232 162.042C151.33 160.861 151.489 159.686 151.708 158.521C151.889 157.532 152.078 156.739 152.229 156.195C152.284 155.907 152.376 155.628 152.501 155.364C152.493 155.655 152.45 155.944 152.372 156.225C152.274 156.784 152.123 157.577 151.98 158.574C151.836 159.571 151.685 160.75 151.594 162.064L151.526 163.084C151.477 163.402 151.501 163.728 151.594 164.036C151.647 164.157 151.753 164.225 151.813 164.21C151.948 164.156 152.067 164.071 152.161 163.96L152.516 163.537C152.63 163.394 152.735 163.246 152.833 163.092C153.536 162.019 154.17 160.946 154.752 159.979L154.797 159.896H154.888C155.856 159.792 156.778 159.427 157.555 158.839C158.163 158.371 158.655 157.769 158.99 157.079C159.268 156.446 159.469 155.781 159.587 155.099Z" fill="#EB996E"/>
</svg>
